<?xml version="1.0" encoding="UTF-8" standalone="no"?> <!-- Created with Vectornator for iOS (http://vectornator.io/) --><!DOCTYPE svg PUBLIC "-//W3C//DTD SVG 1.1//EN" "http://www.w3.org/Graphics/SVG/1.1/DTD/svg11.dtd">
<svg style="fill-rule:evenodd;clip-rule:evenodd;stroke-linecap:round;stroke-linejoin:round;" xmlns:vectornator="http://vectornator.io" xmlns:xlink="http://www.w3.org/1999/xlink" xmlns="http://www.w3.org/2000/svg" xml:space="preserve" version="1.1" viewBox="0 0 3024 4032">
<metadata>
<vectornator:setting key="DisplayWhiteBackground" value="0"/>
<vectornator:setting key="RulersVisible" value="1"/>
<vectornator:setting key="SnapToEdges" value="0"/>
<vectornator:setting key="Units" value="Pixels"/>
<vectornator:setting key="DynamicGuides" value="0"/>
<vectornator:setting key="SnapToPoints" value="0"/>
<vectornator:setting key="CMYKEnabledKey" value="0"/>
<vectornator:setting key="SnapToGrid" value="0"/>
<vectornator:setting key="SnapToGuides" value="1"/>
<vectornator:setting key="ShowGrid" value="1"/>
<vectornator:setting key="GridSpacing" value="36"/>
</metadata>
<defs>
<linearGradient y1="2015.3" id="LinearGradient" x1="6.59239" y2="2014.27" x2="3332.27" gradientUnits="userSpaceOnUse" gradientTransform="matrix(1.00084 0 0 1.00356 -8.77175 -5.77355)">
<stop stop-color="#000000" offset="0"/>
<stop stop-color="#3e4d8a" offset="0.663333"/>
<stop stop-color="#8e68b1" offset="1"/>
</linearGradient>
<path d="M816.419+1912.39C816.419+1491.75+1155.13+1150.76+1572.94+1150.76C1990.76+1150.76+2329.47+1491.75+2329.47+1912.39C2329.47+2333.03+1990.76+2674.02+1572.94+2674.02C1155.13+2674.02+816.419+2333.03+816.419+1912.39Z" id="Mask"/>
<linearGradient y1="817.908" id="LinearGradient_2" x1="2.57639" y2="828.656" x2="2844.14" gradientUnits="userSpaceOnUse" gradientTransform="matrix(0.756901 0 0 1.02279 463.212 1101.85)">
<stop stop-color="#000000" offset="0"/>
<stop stop-color="#3e4d8a" offset="0.663333"/>
<stop stop-color="#8e68b1" offset="1"/>
</linearGradient>
</defs>
<g id="Layer 2" vectornator:layerName="Layer 2" visibility="hidden">
<path d="M3.40384-4.26056L3020.49-4.26056C3023.57-4.26056+3026.07-1.66404+3026.07+1.53894L3026.07+4031.86C3026.07+4035.06+3023.57+4037.66+3020.49+4037.66L3.40384+4037.66C0.323378+4037.66-2.17383+4035.06-2.17383+4031.86L-2.17383+1.53894C-2.17383-1.66404+0.323378-4.26056+3.40384-4.26056Z" opacity="1" fill="url(#LinearGradient)"/>
</g>
<g id="Layer 1" vectornator:layerName="Layer 1">
<g vectornator:shadowColor="#000000" vectornator:shadowOpacity="1" vectornator:mask="#Mask" vectornator:shadowRadius="10" vectornator:shadowOffset="10" opacity="1" vectornator:shadowAngle="0.840632">
<clipPath id="ClipPath">
<use xlink:href="#Mask" fill="none" overflow="visible"/>
</clipPath>
<g clip-path="url(#ClipPath)">
<path stroke="#6e6865" stroke-width="1" d="M952.36+2778.35C983.242+2784.84+957.206+2938.15+951.766+2996.81C946.327+3055.48+947.03+3188.29+952.317+3231.51C966.48+3347.29+1215.8+3757.38+1326.07+3781.16C1562.67+3832.18+1301.18+3474.06+1262.66+3393.56C1230.86+3327.1+1180.37+3254.75+1163.7+3188.31C1153.72+3148.56+1166.95+3115.31+1174.58+3077.68C1189.33+3004.95+1222.22+2873.19+1213.5+2856.84C1206.35+2843.44+931.359+2773.94+952.36+2778.35Z" fill="#988174" stroke-linecap="butt" opacity="1" stroke-linejoin="round"/>
<path d="M465.162+2755.63L2746.22+2755.63L2746.22+1121.17L465.162+1121.17L465.162+2755.63Z" opacity="1" fill="url(#LinearGradient_2)"/>
<path d="M1769.08+1831.04C1769.08+1841.66+1772.28+1852.9+1770.12+1863.7C1768.73+1870.63+1766.12+1877.62+1764.42+1884.44C1763.58+1887.79+1754.33+1925.3+1751.97+1934.73C1751.1+1938.21+1750.21+1941.71+1748.86+1945.09C1748.28+1946.54+1745.16+1958.46+1744.72+1959.93C1741.26+1971.33+1742.36+1968.51+1735.85+1977.2C1733.9+1979.8+1729.33+1986.72+1727.1+1988.94C1722.63+1993.41+1719.34+1998.33+1714.48+2002.22C1705.18+2009.66+1694.53+2017.87+1682.79+2020.81C1676.62+2022.35+1672.1+2025+1665.81+2027.82C1650.99+2034.46+1650.77+2035.08+1638.13+2037.6C1633.43+2038.55+1614.99+2042.13+1610.44+2043.27C1599.63+2045.97+1586.78+2040.84+1575.71+2043.05C1567.25+2044.74+1554.89+2040.62+1546.68+2039.45C1542.89+2038.91+1539.14+2036.82+1535.27+2036.34C1522.98+2034.8+1509.97+2034.6+1497.94+2032.19C1492.7+2031.14+1479.53+2022.07+1474.98+2020.26C1468.19+2017.54+1471.79+2017.5+1465.8+2013.01C1461.56+2009.83+1456.07+2008.13+1451.8+2004.71C1444.9+1999.19+1444.98+2014.16+1439.58+2007.41C1431.94+1997.85+1434.61+1977.84+1428.53+1960.76C1423.27+1945.96+1406.31+1923.37+1400.48+1908.8C1398.44+1903.7+1378.61+1863.22+1377.09+1859.67C1368.9+1840.49+1354.3+1781.31+1353.61+1773.71C1352.76+1764.37+1354.34+1694.74+1354.34+1685.36C1354.34+1654.52+1351.88+1621.86+1363.15+1592.56C1373.52+1565.6+1391.1+1548.53+1413.96+1531.39C1423.05+1524.57+1431.44+1516.45+1440.92+1510.13C1443.7+1508.28+1446.89+1507.24+1449.73+1505.47C1452.07+1504+1453.61+1501.75+1455.95+1500.28C1458.94+1498.41+1463.09+1496.31+1466.32+1495.1C1468.45+1494.3+1471.15+1494.29+1473.06+1493.03C1480.23+1488.24+1488.55+1484.33+1496.91+1482.66C1499.39+1482.16+1501.59+1479.98+1504.16+1479.55C1509.99+1478.58+1515.94+1478.83+1521.79+1477.99C1529.42+1476.9+1536.9+1474.29+1544.6+1473.32C1551.24+1472.5+1557.67+1471.84+1564.3+1470.73C1568.73+1469.99+1573.79+1470.73+1578.3+1470.73C1583.67+1470.73+1589.06+1469.94+1594.37+1469.18C1597.08+1468.79+1599.96+1469.56+1602.67+1469.18C1618.38+1466.93+1634.73+1466.05+1650.36+1469.18C1654.38+1469.98+1658.3+1470.97+1662.29+1471.77C1664.8+1472.27+1667+1474.37+1669.54+1474.88C1678.29+1476.63+1688.63+1475.74+1695.98+1481.62C1705.28+1489.06+1707.06+1502.23+1712.05+1512.21C1714.09+1516.27+1715.7+1520.54+1717.76+1524.65C1719.95+1529.03+1723.82+1533.35+1725.02+1538.13C1726.8+1545.25+1728.77+1552.25+1730.2+1559.38C1731.43+1565.54+1736.45+1571.47+1737.24+1577.78C1737.73+1581.68+1752.42+1622.82+1753.88+1626.23C1756.53+1632.4+1761.66+1674.17+1762.55+1677.72C1763.69+1682.28+1770.67+1717.58+1768.82+1705.76C1766.97+1693.93+1772.15+1730.19+1773.6+1742.51C1774.22+1747.81+1773.34+1772.24+1773.52+1764.6C1773.78+1754.21+1775.03+1776.01+1774.32+1787.8C1773.57+1800.32+1773.31+1807.1+1772.2+1813.76C1770.85+1821.88+1771.48+1829.59+1770.12+1837.78C1768.64+1846.65+1763.39+1868.6+1763.39+1860.02" opacity="1" fill="#988174"/>
<path d="M1768.29+2093.43C1768.87+2094.61+1805.68+2139.85+1805.3+2141.4C1805+2142.59+1800.16+2193.44+1759.83+2219.41C1696.13+2260.42+1585.35+2283.02+1579.62+2282.06C1576.2+2281.49+1442.65+2212.27+1441.76+2208.71C1439.85+2201.08+1417.12+2144.27+1422.13+2139.25C1430.6+2130.79+1442.07+2121.87+1444.54+2109.49C1445.59+2104.26+1433.17+1986.67+1433.17+1983.74C1433.17+1982.3+1433.17+1981.06+1433.51+1979.72C1433.56+1979.51+1433.51+1979.05+1433.51+1979.05C1433.51+1979.05+1433.99+1981.36+1434.51+1982.4C1435.34+1984.06+1436.42+1985.28+1437.52+1986.75C1439.18+1988.96+1441.38+1990.61+1443.2+1992.43C1445.08+1994.3+1446.06+1997.5+1448.22+1999.12C1450.3+2000.68+1451.42+2003.32+1453.24+2005.14C1454.52+2006.42+1481.91+1957.94+1483.21+1959.24C1485.76+1961.79+1463.64+2012.61+1466.62+2014.84C1469.58+2017.06+1472.1+2019.72+1475.31+2021.86C1477.07+2023.03+1479.99+2023.37+1482+2023.87C1484.88+2024.59+1487.44+2027.38+1490.36+2028.55C1502.97+2033.59+1516.54+2033.36+1529.83+2035.57C1536.18+2036.63+1542.4+2038.78+1548.89+2039.59C1553.89+2040.21+1559.38+2038.7+1564.27+2039.92C1566.14+2040.39+1567.76+2041.8+1569.63+2042.26C1572.71+2043.03+1576.2+2041.97+1579.32+2042.6C1583.58+2043.45+1588.01+2042.72+1592.37+2043.27C1597.04+2043.85+1602.73+2044.4+1607.42+2043.94C1616.04+2043.07+1624.64+2041.48+1633.17+2040.26C1640.48+2039.21+1647.65+2035.54+1654.58+2033.23C1674.06+2026.74+1692.59+2017.93+1709.42+2006.14C1715.33+2002.01+1720.88+1996.62+1725.48+1991.09C1726.89+1989.39+1729.18+1988.37+1730.16+1986.41C1732.67+1981.4+1735.88+1977.13+1738.86+1972.36C1739.91+1970.67+1741.63+1969.5+1742.53+1967.68C1744.07+1964.61+1743.66+1961.27+1744.21+1957.98C1745.35+1951.14+1747.9+1944.56+1749.56+1937.92C1750.26+1935.11+1753.57+1909.93+1755.19+1907.77C1757.5+1904.69+1758.25+1923.52+1758.25+1931.23" opacity="1" fill="#988174"/>
<path stroke="#915b58" stroke-width="5" d="M1810.55+1717.84C1815.17+1714.08+1817.31+1702.36+1822.1+1707.15C1824.16+1709.2+1824.02+1722.92+1823.98+1729.96C1823.95+1736.99+1821.23+1764.22+1816.66+1767.27C1811.92+1770.43+1813.74+1765.37+1812.46+1757.93C1810.9+1748.77+1810.85+1750.81+1810.19+1745.4C1809.9+1742.94+1808.9+1739.34+1808.73+1737.47C1807.88+1727.99+1804.18+1723.02+1810.55+1717.84Z" fill="#915b58" stroke-linecap="butt" opacity="1" stroke-linejoin="round"/>
<path stroke="#9b7773" stroke-width="5" d="M1785.6+1724.22C1785.05+1716.66+1786.73+1707.35+1791.75+1704.22C1801.2+1698.32+1817.98+1695.39+1824.21+1703.69C1830.53+1712.12+1820.89+1772.63+1818.23+1787.9C1817.47+1792.28+1813.09+1807.72+1809.47+1817.91C1807.17+1824.38+1802.42+1830.57+1798.32+1840.3C1794.22+1850.03+1775.36+1858.5+1774.88+1847.83C1774.54+1840.13+1778.5+1824.13+1779.84+1814.29C1781.43+1802.57+1787.65+1798.46+1792.32+1796.86C1800.4+1794.08+1804.29+1799.01+1814.8+1782.19C1820.36+1773.29+1835.82+1699.13+1820.19+1702.25C1818.88+1702.51+1813.48+1703.05+1812.13+1708.07C1809.91+1716.35+1809.17+1711.63+1807.79+1713.98C1806.25+1716.59+1802.73+1720.35+1804.06+1730.62C1804.7+1735.57+1800.2+1750.24+1789.18+1746.58C1778.16+1742.93+1786.83+1721.74+1785.29+1723.29" fill="#9b7773" stroke-linecap="butt" opacity="1" stroke-linejoin="round"/>
<path stroke="#3e3b39" stroke-width="1" d="M1394.56+1897.44C1405.61+1932.74+1426.4+1973.86+1467.96+2016.4C1491.17+2040.16+1563.45+2072.12+1588.1+2071.41C1603.32+2070.97+1659.67+2051.64+1688.19+2024.98C1734.07+1982.09+1755.02+1921.66+1755.28+1920.82C1761.77+1899.66+1771.42+1865.58+1770.35+1854.37" fill="#988174" stroke-linecap="butt" opacity="1" stroke-linejoin="round"/>
<path stroke="#9b7773" stroke-width="5" d="M1804.5+1730.96C1804.5+1744.75+1806.95+1756.29+1810.2+1769.3C1811.41+1774.14+1810.42+1789.25+1810.42+1784.26" fill="#774f51" stroke-linecap="butt" opacity="1" stroke-linejoin="round"/>
<path stroke="#9b7773" stroke-width="5" d="M1819.03+1768C1812.9+1783.62+1809.51+1789.75+1812.14+1784.48" fill="#774f51" stroke-linecap="butt" opacity="1" stroke-linejoin="round"/>
<path stroke="#9b7773" stroke-width="5" d="M1786.1+1754.37C1786.1+1736.65+1840.11+1792.89+1789.74+1799.19C1781.91+1800.17+1792.31+1782.36+1791.79+1775.58C1791.51+1771.94+1781.87+1753.19+1788.26+1753.19" fill="#774f51" stroke-linecap="butt" opacity="1" stroke-linejoin="round"/>
<path stroke="#9b7773" stroke-width="5" d="M1792.25+1741.57C1791.98+1742.24+1792.78+1744.36+1792.46+1743.72" fill="#9b7773" stroke-linecap="butt" opacity="1" stroke-linejoin="round"/>
<path stroke="#9b7773" stroke-width="5" d="M1792.46+1742.59C1791.4+1746.82+1796.78+1752.61+1799.63+1755.14C1812.96+1766.99+1801.16+1748.31+1801.16+1738.19" fill="#9b7773" stroke-linecap="butt" opacity="1" stroke-linejoin="round"/>
<path stroke="#9b7773" stroke-width="5" d="M1784.82+1742.39C1788.75+1758.09+1783.06+1774.77+1785.03+1790.53C1785.41+1793.56+1786.67+1799.55+1786.67+1799.55C1786.67+1799.55+1784.72+1785.82+1788.51+1765.79" fill="#9b7773" stroke-linecap="butt" opacity="1" stroke-linejoin="round"/>
<path stroke="#9b7773" stroke-width="1.99" d="M1821.74+1768.34C1824.66+1769.57+1817+1779.25+1814.89+1780.46C1812.43+1781.87+1808.66+1768.97+1808.85+1768.03C1809.58+1764.37+1809.32+1767.62+1812.39+1769.11C1814.62+1770.19+1821.21+1766.87+1820.82+1763.22" fill="#9b7773" stroke-linecap="butt" opacity="1" stroke-linejoin="round"/>
<path stroke="#9b7773" stroke-width="5" d="M1314.72+1761.38C1307.62+1762.29+1330.74+1747.68+1334.72+1753.62C1341.66+1763.96+1341.76+1801.04+1345.87+1789.28" fill="#9b7773" stroke-linecap="butt" opacity="1" stroke-linejoin="round"/>
<path stroke="#9b7773" stroke-width="5" d="M1338.06+1773.73C1339.94+1788.42+1337.27+1817.97+1340.48+1823.84C1345.13+1832.37+1350.08+1814.49+1347.74+1797.93C1345.41+1781.37+1340.97+1780.95+1339.44+1768.95C1339.2+1767.05+1335.11+1752.24+1333.71+1754.05" fill="#9b7773" stroke-linecap="butt" opacity="1" stroke-linejoin="round"/>
<path stroke="#9b7773" stroke-width="5" d="M1356.43+1827.63C1351.17+1827.85+1342.66+1833.15+1343.28+1839.2C1343.9+1845.25+1360.46+1878.97+1363.72+1883.9C1367.86+1890.15+1385.16+1899.4+1388.83+1895.71C1392.5+1892.03+1370.84+1866.44+1369.2+1859.6C1366.4+1847.91+1360.51+1827.46+1356.43+1827.63Z" fill="#9b7773" stroke-linecap="butt" opacity="1" stroke-linejoin="round"/>
<path stroke="#9b7773" stroke-width="5" d="M1352.45+1808.49C1355.25+1814.08+1367.32+1858.74+1353.24+1855.23C1350.82+1854.62+1350.22+1849.75+1348.79+1847.46C1335.06+1825.42+1360.98+1737.88+1318.71+1754.78C1312.74+1757.17+1324.71+1790.47+1327.74+1798.03C1329.71+1802.96+1354.9+1839.7+1349.6+1839.7C1323.17+1839.7+1294.83+1736.16+1323.46+1743.54C1344.37+1748.92+1343.74+1771.7+1343.74+1775.22" fill="#9b7773" stroke-linecap="butt" opacity="1" stroke-linejoin="round"/>
<path stroke="#915b58" stroke-width="5" d="M1316.18+1762.41C1315.57+1774.05+1324.91+1788.06+1329.88+1800.7C1331.97+1806.01+1330.68+1819.9+1335.52+1816.87C1344.08+1811.5+1337.01+1776.54+1331.09+1771.67C1326.75+1768.09+1316.8+1750.77+1316.18+1762.41Z" fill="#915b58" stroke-linecap="butt" opacity="1" stroke-linejoin="round"/>
<path d="M1834.56+1858.69C1833.71+1858.8+1834.03+1858.64+1833.54+1858.97" opacity="1" fill="#000000"/>
<path d="M1784.4+1856.9C1784.4+1855.39+1785.72+1854.16+1787.36+1854.16C1789+1854.16+1790.33+1855.39+1790.33+1856.9C1790.33+1858.41+1789+1859.63+1787.36+1859.63C1785.72+1859.63+1784.4+1858.41+1784.4+1856.9Z" opacity="1" fill="#000000"/>
<path stroke="#000000" stroke-width="1" d="M1786.58+1857.69C1786.58+1857.69+1787.84+1857.26+1787.65+1852.07C1787.57+1849.88+1786.23+1847.95+1784.53+1847.23" fill="none" stroke-linecap="round" opacity="1" stroke-linejoin="round"/>
<path d="M1427.1+2132.95C1399.49+2179.26+1510.56+2219.31+1541.63+2228.91C1560.21+2234.65+1584.27+2239.88+1608.18+2241.75C1618.44+2242.55+1689.31+2227.51+1717+2212.99C1734.44+2203.85+1774.5+2187.59+1783.44+2159.47C1784.7+2155.49+1785.34+2151.28+1785.21+2146.81C1784.93+2137.15+1771.73+2101.32+1768.46+2094.79C1765.2+2088.26+1768.73+2090.48+1770.87+2093.58C1778.67+2104.84+1816.54+2097.2+1828.14+2152.65C1834.57+2183.4+1796.92+2233.75+1778.12+2245.13C1733.82+2271.94+1638.81+2292.59+1586.56+2291.07C1489.13+2288.24+1403.86+2223.57+1386.09+2200.42C1362.51+2169.7+1381.15+2145.41+1424.66+2134.41" opacity="1" fill="#2b343d"/>
<path d="M1406.55+2140.87C1390.6+2140.86+1317.62+2196.99+1304.05+2201.44C1187.56+2239.61+1096.84+2299.2+1032.63+2395.67C992.174+2456.45+975.234+2548.28+958.628+2573.1C942.021+2597.93+891.765+2738.64+900.504+2745.32C953.878+2786.14+1179.1+2869.09+1240.75+2848.54C1310.66+2825.24+1239.57+2627.46+1239.57+2627.46C1239.57+2627.46+1243.11+2662.89+1243.11+2680.66C1243.11+2716.39+1196.62+2865.27+1213.01+2890.34C1229.4+2915.41+1245.99+3044.06+1250.21+3071.99C1254.5+3100.42+2073.85+3004.85+2125.68+3025.59" opacity="1" fill="#2b343d"/>
<path d="M1808.9+2111.38C1811.73+2109.32+1876.23+2124.81+1887.34+2125.7C2021.65+2136.41+2090.16+2150.6+2140.15+2204.64C2190.13+2258.68+2231.42+2338.55+2262.51+2429.15C2268.63+2447+2310.94+2570.73+2302.57+2589.34C2300.38+2594.2+2298.28+2590.72+2289.03+2597.52C2287.98+2598.3+2252.82+2614.71+2257.45+2567.63C2261.43+2527.17+2265.4+2553.76+2277.47+2606.83C2287.63+2651.51+2167.03+2704.23+2129.66+2687.42C2075.1+2662.89+2123.59+2508.05+2123.59+2508.05C2123.59+2508.05+2119.66+2550.85+2120.17+2572.29C2122.67+2678.93+2109.54+2773.12+2114.22+2881C2117.94+2966.6+2128.97+2945.75+2133.78+2976.6C2138.6+3007.46+2152.52+3047.48+2113.89+3021.14C2075.27+2994.81+2027.27+2905.76+1996.5+2875.01C1849.97+2728.55+1639.82+2436.41+1511.99+2271.48C1483.33+2234.5+1767.51+2292.49+1802.6+2163.72" opacity="1" fill="#2b343d"/>
<path stroke="#6e6865" stroke-width="1" d="M2120.76+2683.92C2116.07+2725.73+2113.96+2794.64+2112.46+2823.66C2111.76+2837.36+2121.95+2868.15+2129.72+2913.27C2137.49+2958.4+2140.04+2981.91+2140.66+2995.96C2142.11+3028.72+2151.09+3117.26+2153.29+3174.14C2155.48+3231.02+2164.98+3251.25+2175.03+3311.54C2183.08+3359.84+2191.22+3542.67+2285.1+3480.08C2367.53+3425.13+2370.96+3267.18+2358.07+3138.33C2348.5+3042.66+2329.93+2963.03+2328.03+2953.53C2323.57+2931.22+2318.71+2911.27+2315.44+2891.67C2312.08+2871.47+2291.92+2687.62+2283.07+2661.68C2274.21+2635.74+2280.45+2609.37+2272.45+2624.51C2256.52+2654.62+2246.24+2657.82+2219.34+2670.64C2183.82+2687.57+2182.17+2687.72+2160.26+2689.89C2136.89+2692.22+2122.91+2688.48+2123.08+2688.57" fill="#988174" stroke-linecap="butt" opacity="1" stroke-linejoin="round"/>
<path stroke="#5e595a" stroke-width="1" d="M1806.73+1692.31C1810.07+1673.22+1798.64+1626.11+1791.61+1573.26C1784.58+1520.41+1759.29+1455.98+1718.3+1414.99C1573.82+1270.51+1294.6+1376.55+1256.35+1567.8C1253.04+1584.38+1313.14+1637.08+1305.99+1682.26C1303.66+1696.95+1305.84+1719.02+1314.43+1731.17C1316.36+1733.91+1322.78+1742.05+1324.85+1742.8C1336.06+1746.91+1335.33+1751+1338.81+1754.09C1340.72+1755.78+1352.63+1818.8+1358.52+1828.64C1364.42+1838.47+1372.13+1867.89+1372.63+1867.67C1372.88+1867.56+1384.71+1892.94+1387.48+1897.75C1389.46+1901.18+1392.84+1898.67+1393.11+1898.14C1394.92+1894.58+1380.14+1864.64+1377.24+1859.4C1373.94+1853.45+1363.15+1817.4+1361.01+1808.43C1358.91+1799.68+1354.42+1780.27+1353.47+1770.77C1352.5+1761.07+1354.2+1747.69+1354.19+1746.94C1354.07+1732.34+1344.06+1596.79+1400.37+1543.27C1436.16+1509.26+1485.75+1484.98+1504.96+1481.14C1517.75+1478.58+1549.84+1473.82+1572.95+1471.73C1596.07+1469.64+1638.95+1467.27+1650.32+1469.33C1716.57+1481.31+1713.9+1532.03+1742.36+1603.17C1746.99+1614.75+1762.1+1665.86+1765.12+1690.12C1766.53+1701.43+1772.92+1727.75+1773.17+1744.74C1773.21+1747.77+1775.25+1771.88+1774.49+1783.8C1773.81+1794.43+1771.73+1807.99+1770.88+1823.66C1770.68+1827.29+1769.39+1847.23+1769.56+1851.71C1769.74+1856.2+1773.01+1852.24+1773.23+1851.9C1773.38+1851.65+1772.48+1845.39+1772.76+1843.57C1773.04+1841.76+1774.88+1827.42+1775.53+1823.44C1776.63+1816.7+1777.76+1810.1+1778.8+1807.71C1780.33+1804.23+1782.12+1801.15+1783+1800.49C1783.88+1799.84+1783.53+1797.37+1783.32+1796.16C1780.79+1781.97+1782.23+1781.74+1782.44+1775.06C1782.65+1768.38+1783.83+1750.27+1784.09+1741.34C1784.41+1730.36+1783.27+1718.42+1783.3+1714.98C1783.34+1708.74+1788.64+1699.46+1806.09+1695.82" fill="#5e5249" stroke-linecap="butt" opacity="1" stroke-linejoin="round"/>
<path d="M1590.53+1740.52C1581.75+1722.31+1579.98+1696.91+1596.08+1679.79C1612.17+1662.66+1646.64+1653.05+1665.52+1651.98C1690.65+1650.56+1703.86+1654.46+1715.68+1671.37C1721.19+1679.26+1729.29+1688.94+1729+1701.91C1728.66+1716.74+1726.31+1737.21+1716.66+1749.71C1707.01+1762.2+1692.64+1777.04+1668.31+1778.05C1643.98+1779.07+1626.38+1773.68+1619.1+1768.67C1609.46+1762.03+1594.34+1748.42+1590.53+1740.52Z" fill-opacity="0.434298" fill="#ffffff" opacity="1"/>
<path d="M1583.31+1682.71C1584.35+1682.13+1554.48+1682.18+1546.92+1682.52C1539.36+1682.85+1521.6+1690.03+1523.25+1690.7C1531.8+1694.17+1530.4+1703.86+1533.57+1712.02C1536.73+1720.17+1535.51+1723.63+1537.52+1719.93C1544.48+1707.09+1544.5+1704.95+1553.91+1704.01C1570.29+1702.36+1571.07+1717.17+1572.62+1711.89C1575.7+1701.4+1571.3+1689.42+1583.31+1682.71Z" opacity="1" fill="#2c2b32"/>
<path d="M1385.19+1758.5C1383.78+1753.29+1381.72+1746.04+1380.35+1741.7C1374.27+1722.49+1375.98+1713.4+1390.44+1695.85C1408.15+1674.34+1454.02+1670.97+1472.81+1673.06C1491.6+1675.15+1508.54+1683.07+1520.37+1699.97C1532.19+1716.87+1532.39+1724.61+1521.06+1751.47C1508.53+1781.17+1477.9+1799.32+1454.25+1798.8C1430.6+1798.28+1392.85+1786.8+1385.19+1758.5Z" fill-opacity="0.434298" fill="#ffffff" opacity="1"/>
<path d="M1784.49+1672.42C1774.41+1664.17+1753.43+1654.69+1745.73+1651.75C1743.62+1650.94+1741.31+1651.04+1738.36+1651.99C1734.79+1653.15+1730.77+1652.63+1727.8+1651.8C1707.43+1646.11+1673.91+1646.41+1644.95+1650.82C1624.48+1653.93+1606.3+1659.09+1596.63+1665.64C1592.69+1668.32+1583.9+1673.1+1580.06+1681.49C1579.25+1683.26+1568.72+1702.93+1573.18+1717.17C1577.64+1731.41+1584.26+1742.5+1591.7+1751.67C1599.85+1761.71+1604.38+1764.89+1607.3+1767.58C1625.43+1784.26+1654.34+1781.49+1663.12+1781.51C1680.22+1781.55+1698.63+1771.27+1703.92+1767.07C1716.42+1757.14+1728.01+1740.99+1730.8+1723.57C1733.72+1705.3+1730.35+1669.83+1728.36+1663.21C1727.1+1659.03+1726.33+1675.59+1725.94+1690.2C1725.71+1698.74+1725.61+1706.62+1725.61+1709.29C1725.62+1716.52+1723.59+1729.53+1716.51+1741.82C1711.39+1750.69+1700.92+1759.66+1693+1765.86C1682.17+1774.34+1645.59+1776.59+1627.72+1769.94C1609.85+1763.28+1598.32+1743.88+1592.79+1738.08C1580.38+1725.04+1583.12+1687.62+1602.53+1674.69C1610.04+1669.68+1629.25+1660.24+1650.55+1657.31C1670.76+1654.53+1693.07+1658.07+1701.31+1660.31C1706.12+1661.62+1709.49+1663.52+1714.37+1668.68C1716.73+1671.18+1726.53+1688.06+1726.07+1695.99C1724.04+1731.32+1729.38+1701.55+1729.75+1703.11C1731.63+1710.94+1731.98+1677.8+1739.32+1674.12C1750.8+1668.36+1772.93+1685.22+1784.12+1694.31" opacity="1" fill="#2c2b32"/>
<path d="M1525.38+1690.53C1550.57+1730.52+1528.83+1771.62+1493.38+1791.04C1478.26+1799.33+1468.71+1802.66+1448.73+1803.07C1428.75+1803.48+1421.02+1796.63+1413.46+1792.67C1402.03+1786.69+1393.76+1778.72+1383.49+1760.26C1366.44+1729.59+1382.12+1720.34+1362.93+1711.26C1362.47+1711.05+1360.86+1716.83+1353.73+1732.33C1352.01+1736.05+1351.15+1752.03+1348.02+1751.7C1340.48+1750.88+1335.74+1751.81+1334.65+1746.56C1331.6+1731.9+1333.54+1741.09+1352.3+1697.06C1353.78+1693.58+1372.27+1690.37+1374.93+1688.9C1392.59+1679.16+1487.9+1652.6+1517.33+1680.39C1534.97+1697.06+1536.55+1720.01+1512.34+1692.57C1505.78+1685.14+1479.87+1677.27+1470.14+1675.04C1447.86+1669.93+1423.06+1680.45+1411.43+1685.44C1399.98+1690.35+1381.27+1714.11+1382.48+1733.43C1382.93+1740.53+1383.69+1752.15+1392.31+1763.55C1405.51+1781.02+1429.94+1791.79+1444.86+1794.92C1461.08+1798.32+1478.97+1793.21+1496.44+1780.65C1519.68+1763.93+1539.86+1724.21+1513.77+1692.37" opacity="1" fill="#2c2b32"/>
<path stroke="#42373a" stroke-width="1" d="M1580+1666.36C1586.76+1657.23+1593.23+1645+1601.94+1637.39L1602.27+1637.65C1602.42+1638.04+1590.3+1655.05+1589.02+1656.74C1586.4+1660.19+1583.73+1663.6+1581.08+1667.02" fill="#42373a" stroke-linecap="butt" opacity="1" stroke-linejoin="round"/>
<path stroke="#42373a" stroke-width="1" d="M1580.13+1668.12C1585.08+1661.82+1600.92+1640.21+1609.68+1640.44L1609.74+1640.69C1601.16+1640.94+1585.52+1662.08+1580.45+1668.31" fill="#42373a" stroke-linecap="butt" opacity="1" stroke-linejoin="round"/>
<path stroke="#42373a" stroke-width="1" d="M1589.54+1653.4C1598.58+1645.35+1603.98+1638.48+1615.5+1637.02L1615.59+1637.51C1604.2+1638.92+1598.77+1645.72+1589.81+1653.6" fill="#42373a" stroke-linecap="butt" opacity="1" stroke-linejoin="round"/>
<path stroke="#42373a" stroke-width="1" d="M1576.92+1667.63C1591.3+1651.81+1607.77+1636.28+1629.67+1632.88L1629.83+1633.54C1608.61+1637.32+1590.99+1652.15+1577.06+1667.78" fill="#42373a" stroke-linecap="butt" opacity="1" stroke-linejoin="round"/>
<path stroke="#42373a" stroke-width="1" d="M1594.92+1660.45C1600.54+1656.72+1605.43+1651.17+1611.98+1649.53L1612.52+1650.37C1606.01+1652+1601.17+1657.53+1595.59+1661.26" fill="#42373a" stroke-linecap="butt" opacity="1" stroke-linejoin="round"/>
<path stroke="#42373a" stroke-width="1" d="M1593.46+1661.64C1602.73+1654.95+1611.46+1650.51+1622.02+1646.4L1622.26+1646.9C1612.87+1652.71+1603.11+1655.25+1594.01+1662.11" fill="#42373a" stroke-linecap="butt" opacity="1" stroke-linejoin="round"/>
<path stroke="#42373a" stroke-width="1" d="M1590.29+1655.94C1597.09+1650.08+1605.7+1640.89+1614.83+1638.09L1615.24+1638.98C1606.77+1642.06+1597.62+1651.33+1591.09+1656.65" fill="#42373a" stroke-linecap="butt" opacity="1" stroke-linejoin="round"/>
<path stroke="#42373a" stroke-width="1" d="M1585.62+1657.12C1588.62+1654.82+1592.34+1651.81+1596.41+1648.82C1604.13+1643.15+1613.14+1637.58+1621.02+1637.2L1621.23+1637.84C1610.54+1645.49+1597.56+1650.19+1586.62+1658" fill="#42373a" stroke-linecap="butt" opacity="1" stroke-linejoin="round"/>
<path stroke="#42373a" stroke-width="1" d="M1594.36+1655.87C1599.43+1652.75+1623.77+1639.24+1630.73+1642.4L1630.81+1643.3C1626.13+1646.52+1615.68+1647.54+1610.37+1649.22C1603.12+1651.5+1603.99+1651.78+1595.13+1656.72" fill="#42373a" stroke-linecap="butt" opacity="1" stroke-linejoin="round"/>
<path stroke="#42373a" stroke-width="1" d="M1610.13+1652.82C1619.1+1648.75+1628.05+1644.83+1637.37+1641.67L1637.86+1643.01C1628.61+1646.05+1619.36+1649.52+1610.31+1653.17" fill="#42373a" stroke-linecap="butt" opacity="1" stroke-linejoin="round"/>
<path stroke="#42373a" stroke-width="1" d="M1623.55+1651.18C1626.68+1650.09+1640.95+1642.89+1644.72+1646.68L1644.72+1647.64C1643.06+1649.31+1626.5+1651.07+1623.78+1651.76" fill="#42373a" stroke-linecap="butt" opacity="1" stroke-linejoin="round"/>
<path stroke="#42373a" stroke-width="1" d="M1600.31+1649.25C1605.37+1647.09+1619.93+1640.45+1626.96+1642.09L1627.15+1643.33C1618.43+1646.08+1609.25+1647.05+1600.54+1649.87" fill="#42373a" stroke-linecap="butt" opacity="1" stroke-linejoin="round"/>
<path stroke="#42373a" stroke-width="1" d="M1631.86+1646.85C1634.75+1645.63+1643.87+1640.47+1648.9+1640.58L1649.03+1641.45C1643.05+1641.63+1637.7+1645.32+1632.08+1647.35" fill="#42373a" stroke-linecap="butt" opacity="1" stroke-linejoin="round"/>
<path stroke="#42373a" stroke-width="1" d="M1608.7+1657.75C1615.83+1653.23+1623.9+1649.17+1630.42+1643.73L1630.61+1643.99C1624.08+1649.43+1616.2+1653.61+1609.2+1658.38" fill="#42373a" stroke-linecap="butt" opacity="1" stroke-linejoin="round"/>
<path stroke="#42373a" stroke-width="1" d="M1620.3+1642.17C1626.4+1640.24+1641.86+1632.89+1649.67+1636.09L1649.41+1637.94C1646.61+1636.11+1636.35+1638.99+1633.77+1639.53C1629.31+1640.46+1624.88+1641.52+1620.43+1642.51" fill="#42373a" stroke-linecap="butt" opacity="1" stroke-linejoin="round"/>
<path stroke="#42373a" stroke-width="1" d="M1626.8+1640.04C1639.01+1637.52+1659.58+1630.09+1672.27+1635.24L1671.96+1636.76C1658.93+1633.83+1639.5+1638.83+1627.12+1641.09" fill="#42373a" stroke-linecap="butt" opacity="1" stroke-linejoin="round"/>
<path stroke="#42373a" stroke-width="1" d="M1632+1638.46C1646.7+1637.61+1662.68+1634.25+1676.72+1640.6L1676.13+1642.56C1662.09+1637.72+1646.48+1639.96+1632.07+1639.12" fill="#42373a" stroke-linecap="butt" opacity="1" stroke-linejoin="round"/>
<path stroke="#42373a" stroke-width="1" d="M1621.59+1634.33C1630.22+1632.86+1638.85+1630.35+1647.6+1630.65C1649.37+1630.71+1656.81+1630.46+1656.78+1633.57L1656.5+1633.86C1656.46+1632.23+1644.57+1633.13+1643.67+1633.23C1636.49+1634.05+1629.35+1635.17+1622.19+1636.14" fill="#42373a" stroke-linecap="butt" opacity="1" stroke-linejoin="round"/>
<path stroke="#42373a" stroke-width="1" d="M1626.75+1629.46C1640.45+1625.03+1657+1626.45+1671.16+1627.55C1672.68+1627.67+1685.36+1629.18+1681.86+1632.08L1681.61+1631.95C1683.71+1631.77+1677.63+1630.38+1675.54+1630.23C1672.26+1629.98+1668.97+1629.85+1665.7+1629.6C1653.11+1628.65+1639.52+1627.46+1627.13+1630.51" fill="#42373a" stroke-linecap="butt" opacity="1" stroke-linejoin="round"/>
<path stroke="#42373a" stroke-width="1" d="M1673.14+1634.19C1680.47+1634.94+1687.8+1635.71+1695.1+1636.65C1696.28+1636.8+1705.91+1638.54+1699.07+1638.73L1698.95+1638.21C1699.8+1637.95+1702.17+1638.18+1701.55+1638.81C1701.12+1639.24+1697.98+1638.94+1697.87+1638.93C1689.77+1638.67+1680.93+1636.47+1673.14+1635.15" fill="#42373a" stroke-linecap="butt" opacity="1" stroke-linejoin="round"/>
<path stroke="#42373a" stroke-width="1" d="M1678.33+1634.45C1686.26+1634.07+1695.8+1632.26+1703.6+1635.4L1703.41+1636.46C1698.07+1638.27+1682.4+1635.58+1678.46+1635.39" fill="#42373a" stroke-linecap="butt" opacity="1" stroke-linejoin="round"/>
<path stroke="#42373a" stroke-width="1" d="M1670.41+1633.68C1679.61+1633.19+1688.85+1632.66+1698.03+1632.15C1703.99+1631.81+1695.58+1635.02+1692.01+1634.88L1691.99+1634.61C1710.76+1633.86+1687.58+1634.55+1682.65+1634.42C1678.59+1634.32+1674.53+1634.33+1670.47+1634.29" fill="#42373a" stroke-linecap="butt" opacity="1" stroke-linejoin="round"/>
<path stroke="#42373a" stroke-width="1" d="M1656.68+1643.17C1666.12+1639.46+1677.31+1638.89+1687.33+1640.34L1687.33+1640.79C1677.21+1642.25+1667.16+1641.31+1657.11+1644.05" fill="#42373a" stroke-linecap="butt" opacity="1" stroke-linejoin="round"/>
<path stroke="#42373a" stroke-width="1" d="M1651.9+1641.82C1656.92+1641.06+1661.91+1640.05+1666.94+1639.41C1669.87+1639.03+1695.83+1637.19+1695.32+1642.78L1695.08+1642.92C1693.97+1638.96+1670.06+1640.37+1667.14+1640.71C1662.74+1641.22+1658.37+1642+1653.98+1642.63C1653.4+1642.71+1652.82+1642.78+1652.25+1642.86" fill="#42373a" stroke-linecap="butt" opacity="1" stroke-linejoin="round"/>
<path stroke="#42373a" stroke-width="1" d="M1674.1+1640.98C1684.35+1640.58+1686.33+1640.05+1694.7+1640.79C1697.14+1641.01+1706.4+1644.44+1699.06+1645.4L1698.94+1644.86C1704.78+1642.5+1689.99+1641.77+1688.37+1641.71C1683.65+1641.55+1678.91+1641.68+1674.18+1641.67" fill="#42373a" stroke-linecap="butt" opacity="1" stroke-linejoin="round"/>
<path stroke="#42373a" stroke-width="1" d="M1678.71+1640.72C1684.82+1640.77+1694.65+1639.67+1694.93+1643.12L1694.45+1643.59C1694.75+1642.76+1689.6+1642.43+1689.07+1642.35C1685.61+1641.89+1682.16+1641.4+1678.71+1640.92" fill="#42373a" stroke-linecap="butt" opacity="1" stroke-linejoin="round"/>
<path stroke="#42373a" stroke-width="1" d="M1660.7+1641.55C1669.31+1640.57+1677.64+1639.72+1686.21+1641.34C1688.75+1641.82+1696.11+1644.42+1691.13+1647.11L1690.64+1646.7C1693.53+1646.59+1690.17+1644.75+1689.16+1644.34C1686.03+1643.08+1682.77+1642.77+1679.45+1642.19C1673.25+1641.09+1666.96+1641.43+1660.7+1641.61" fill="#42373a" stroke-linecap="butt" opacity="1" stroke-linejoin="round"/>
<path stroke="#42373a" stroke-width="1" d="M1675.62+1643.53C1681.43+1642.32+1687.49+1642.82+1693.42+1643C1695.2+1643.06+1702.52+1644.02+1702.54+1646.93L1702.07+1647.4C1702.1+1646.02+1693.85+1644.75+1693.42+1644.72C1687.53+1644.3+1681.6+1643.73+1675.71+1644.19" fill="#42373a" stroke-linecap="butt" opacity="1" stroke-linejoin="round"/>
<path stroke="#42373a" stroke-width="1" d="M1696.46+1638.68C1698.68+1638.59+1717.48+1637.17+1713.03+1641.62L1712.43+1640.72C1713.18+1642.25+1700.25+1639.75+1696.53+1639.6" fill="#42373a" stroke-linecap="butt" opacity="1" stroke-linejoin="round"/>
<path stroke="#42373a" stroke-width="1" d="M1671.03+1633.5C1673.86+1632.86+1676.86+1632.67+1679.51+1631.48L1679.79+1632.81C1677.18+1634.23+1673.96+1633.9+1671.03+1634.35" fill="#42373a" stroke-linecap="butt" opacity="1" stroke-linejoin="round"/>
<path stroke="#42373a" stroke-width="1" d="M1627.23+1632.1C1631.04+1631.78+1634.85+1631.43+1638.66+1631.13C1652.96+1629.99+1613.85+1636.23+1610.74+1636.98L1610.26+1635.93C1616.07+1631.45+1626.54+1631.11+1633.27+1630.77C1635.04+1630.68+1640.16+1629.9+1641.81+1630.95C1642.1+1631.13+1642.71+1631.8+1642.71+1631.45C1642.71+1630.98+1638.97+1631.1+1638.66+1631.13C1634.85+1631.46+1631.05+1631.83+1627.25+1632.18" fill="#42373a" stroke-linecap="butt" opacity="1" stroke-linejoin="round"/>
<path stroke="#42373a" stroke-width="1" d="M1627.26+1634.07C1619.66+1635.84+1610.84+1639.69+1602.99+1639.9L1602.71+1639.05C1607.26+1634.22+1621.25+1634.29+1627.14+1633.21" fill="#42373a" stroke-linecap="butt" opacity="1" stroke-linejoin="round"/>
<path stroke="#42373a" stroke-width="1" d="M1634.11+1644.27C1632.49+1644.78+1597.4+1658.46+1610.72+1653.24L1610.73+1653.26C1597.42+1658.69+1632.03+1644.58+1634.02+1643.96" fill="#42373a" stroke-linecap="butt" opacity="1" stroke-linejoin="round"/>
<path stroke="#42373a" stroke-width="1" d="M1635.63+1640.14C1632.01+1641.18+1628.37+1642.12+1624.78+1643.25C1622.12+1644.1+1606.15+1651.23+1609.25+1646.26L1609.67+1646.54C1605.85+1648.7+1622.09+1643.2+1624.58+1642.44C1628.2+1641.33+1631.89+1640.46+1635.54+1639.46" fill="#42373a" stroke-linecap="butt" opacity="1" stroke-linejoin="round"/>
<path stroke="#42373a" stroke-width="1" d="M1613.41+1643.76C1607.19+1646.56+1623.35+1637.98+1623.67+1637.87C1627.72+1636.44+1636.57+1632.65+1640.88+1633.79L1640.95+1634.15C1633.54+1636.48+1626.2+1638.51+1618.93+1641.3C1616.75+1642.13+1607.18+1643.75+1613.12+1642.95" fill="#42373a" stroke-linecap="butt" opacity="1" stroke-linejoin="round"/>
<path stroke="#42373a" stroke-width="1" d="M1614.82+1640.55C1622.97+1638.47+1636.65+1633.2+1645.97+1634.52L1646+1634.94C1635.32+1636.52+1625.88+1638.82+1615.25+1641.59" fill="#42373a" stroke-linecap="butt" opacity="1" stroke-linejoin="round"/>
<path stroke="#42373a" stroke-width="1" d="M1610.34+1649.74C1621.07+1644.24+1646.94+1635.95+1658.92+1638.22L1658.92+1639.36C1643.48+1643.66+1625.92+1646.42+1610.1+1649.15" fill="#42373a" stroke-linecap="butt" opacity="1" stroke-linejoin="round"/>
<path stroke="#42373a" stroke-width="1" d="M1629.18+1648.48C1633.9+1647.3+1638.59+1645.99+1643.34+1644.95C1646.85+1644.18+1650.41+1643.66+1653.95+1643.05C1656.15+1642.68+1662+1640.87+1663.74+1642.2L1663.74+1643.5C1663.04+1644.55+1655.97+1644.48+1654.26+1644.67C1645.88+1645.6+1637.55+1647.11+1629.31+1648.88" fill="#42373a" stroke-linecap="butt" opacity="1" stroke-linejoin="round"/>
<path stroke="#42373a" stroke-width="1" d="M1595.67+1658.61C1593.73+1659.64+1591.56+1661.13+1589.53+1662.01L1589.36+1661.73C1591.44+1660.54+1593.26+1659.2+1595.4+1658.03" fill="#42373a" stroke-linecap="butt" opacity="1" stroke-linejoin="round"/>
<path stroke="#42373a" stroke-width="1" d="M1619.59+1646.31C1612.98+1649.18+1606.26+1651.98+1599.69+1654.97L1599.45+1654.53C1604.51+1649.91+1613.41+1647.31+1619.13+1644.92" fill="#42373a" stroke-linecap="butt" opacity="1" stroke-linejoin="round"/>
<path stroke="#42373a" stroke-width="1" d="M1605.57+1649.06C1600.51+1651.7+1596+1657.4+1590.33+1656.83L1590.01+1656.26C1595.69+1655.61+1600.1+1650.87+1605.21+1648.31" fill="#42373a" stroke-linecap="butt" opacity="1" stroke-linejoin="round"/>
<path stroke="#42373a" stroke-width="1" d="M1600.53+1659.49C1595.78+1662.39+1591.02+1665.33+1586.56+1668.66C1585.28+1669.61+1582.36+1672.79+1582.52+1671.21L1582.11+1670.8C1582.09+1670.8+1585.18+1667.11+1590.32+1664.05C1593.52+1662.15+1596.86+1660.47+1600.12+1658.67" fill="#42373a" stroke-linecap="butt" opacity="1" stroke-linejoin="round"/>
<path stroke="#42373a" stroke-width="1" d="M1587.92+1665.24C1587.42+1665.88+1579.95+1675.8+1583.64+1671.72L1584.04+1672.32C1579.29+1676.76+1585.71+1666.13+1587.36+1664.6" fill="#42373a" stroke-linecap="butt" opacity="1" stroke-linejoin="round"/>
<path stroke="#42373a" stroke-width="1" d="M1588.34+1660.8C1586.76+1663.23+1582.09+1669.66+1584.85+1668.77L1584.85+1669.18C1581.83+1669.86+1585.94+1662.76+1587.96+1660.41" fill="#42373a" stroke-linecap="butt" opacity="1" stroke-linejoin="round"/>
<path stroke="#42373a" stroke-width="1" d="M1583.61+1668.43C1587.15+1662.44+1595.25+1660.41+1601.33+1658.03L1601.36+1658.1C1595.35+1661.11+1589.11+1665.61+1583.05+1668" fill="#42373a" stroke-linecap="butt" opacity="1" stroke-linejoin="round"/>
<path stroke="#42373a" stroke-width="1" d="M1590.82+1666.05C1594.29+1663.99+1597.72+1661.88+1601.21+1659.89C1603.43+1658.62+1608.85+1655.1+1611.46+1655.21L1611.52+1655.34C1606.54+1655.57+1593.61+1664.85+1591.06+1666.32" fill="#42373a" stroke-linecap="butt" opacity="1" stroke-linejoin="round"/>
<path stroke="#42373a" stroke-width="1" d="M1581.11+1664.93C1589.97+1660.19+1598.55+1655.65+1607.73+1651.68L1607.89+1652.03C1598.72+1655.92+1590.07+1660.5+1581.24+1665.16" fill="#42373a" stroke-linecap="butt" opacity="1" stroke-linejoin="round"/>
<path stroke="#42373a" stroke-width="1" d="M1580.55+1658.88C1584.43+1656.66+1596.52+1651.89+1602.36+1653.16L1602.36+1653.94C1595.48+1656.6+1587.6+1655.84+1580.55+1658.88" fill="#42373a" stroke-linecap="butt" opacity="1" stroke-linejoin="round"/>
<path stroke="#42373a" stroke-width="1" d="M1591.1+1657.76C1593.79+1656.95+1600.05+1654.34+1603.97+1654.19L1604.12+1654.77C1601.41+1656.6+1592+1657.62+1591.11+1657.8" fill="#42373a" stroke-linecap="butt" opacity="1" stroke-linejoin="round"/>
<path stroke="#42373a" stroke-width="1" d="M1520.42+1678.21C1515.98+1674.76+1511.68+1670.26+1506.35+1668.12L1506.54+1667.61C1511.84+1667.14+1517.83+1674.69+1520.94+1677.61" fill="#42373a" stroke-linecap="butt" opacity="1" stroke-linejoin="round"/>
<path stroke="#42373a" stroke-width="1" d="M1523.35+1679.34C1518.97+1674.33+1510.96+1666.44+1504.38+1663.58L1504.52+1663.17C1511.33+1663.9+1520.63+1674.08+1524.21+1678.5" fill="#42373a" stroke-linecap="butt" opacity="1" stroke-linejoin="round"/>
<path stroke="#42373a" stroke-width="1" d="M1524.45+1674.95C1520.33+1670.36+1515.07+1664.31+1509.5+1661.01L1509.57+1660.91C1515.17+1662.32+1522.49+1670.44+1525.43+1674.16" fill="#42373a" stroke-linecap="butt" opacity="1" stroke-linejoin="round"/>
<path stroke="#42373a" stroke-width="1" d="M1520.86+1673.61C1515.25+1669.02+1508.6+1661.13+1501.88+1657.72L1502.08+1657.36C1505.37+1657.59+1520.06+1671.54+1521.52+1672.83" fill="#42373a" stroke-linecap="butt" opacity="1" stroke-linejoin="round"/>
<path stroke="#42373a" stroke-width="1" d="M1517.57+1678.83C1514.85+1676.58+1511.56+1671.92+1507.68+1671.35L1507.76+1671.21C1510.49+1670.54+1516.08+1677.08+1518.11+1678.19" fill="#42373a" stroke-linecap="butt" opacity="1" stroke-linejoin="round"/>
<path stroke="#42373a" stroke-width="1" d="M1523.38+1684.3C1516.56+1678.33+1509+1671.33+1500.34+1668L1500.49+1667.68C1508.97+1669.52+1517.62+1678.33+1523.97+1683.6" fill="#42373a" stroke-linecap="butt" opacity="1" stroke-linejoin="round"/>
<path stroke="#42373a" stroke-width="1" d="M1514.83+1676.84C1506.76+1671.49+1494.7+1661.76+1484.58+1660.79L1484.67+1660.07C1491.1+1658.79+1510.45+1672.62+1515.5+1676.09" fill="#42373a" stroke-linecap="butt" opacity="1" stroke-linejoin="round"/>
<path stroke="#42373a" stroke-width="1" d="M1499.77+1667.39C1491.44+1664.11+1482.6+1662.05+1473.79+1660.47C1473.08+1660.35+1460.54+1658.27+1466.23+1659.17L1465.95+1659.87C1465.43+1659.78+1463.17+1658.91+1464.11+1657.9C1465.61+1656.27+1472.86+1658.29+1474.22+1658.56C1483.15+1660.35+1491.9+1662.76+1500.17+1666.61" fill="#42373a" stroke-linecap="butt" opacity="1" stroke-linejoin="round"/>
<path stroke="#42373a" stroke-width="1" d="M1487.75+1665.2C1484.33+1664.43+1480.93+1663.6+1477.49+1662.9C1473.46+1662.09+1450.91+1659.32+1465.47+1662.66C1467.17+1663.05+1468.88+1663.4+1470.57+1663.81C1471.14+1663.95+1471.69+1664.14+1472.25+1664.31L1472.25+1664.31C1469.26+1663.42+1470.09+1663.62+1465.45+1662.77C1460.94+1661.94+1456.07+1658.65+1464.11+1659.64C1472.24+1660.64+1480.04+1662.42+1487.98+1664.45" fill="#42373a" stroke-linecap="butt" opacity="1" stroke-linejoin="round"/>
<path stroke="#42373a" stroke-width="1" d="M1483.04+1667.51C1475.62+1665.79+1468.13+1663.97+1460.49+1663.57C1458.9+1663.49+1454.25+1663.59+1452.62+1663.59C1451.71+1663.59+1450.79+1663.49+1449.87+1663.56C1449.23+1663.6+1447.42+1664.32+1448.01+1664.05C1449.16+1663.54+1449.82+1663.51+1451.09+1663.67L1450.92+1664.56C1439.4+1663.31+1458.14+1662.08+1460.68+1662.37C1468.34+1663.25+1475.67+1665.31+1483.06+1667.42" fill="#42373a" stroke-linecap="butt" opacity="1" stroke-linejoin="round"/>
<path stroke="#42373a" stroke-width="1" d="M1452.19+1663.81C1449.01+1664+1445.83+1664.14+1442.65+1664.37C1440.71+1664.51+1435.34+1666.5+1436.89+1665.32C1438.17+1664.36+1438.19+1664.69+1439.79+1664.91L1439.56+1665.87C1437.98+1665.58+1436.61+1665.94+1436.31+1663.94C1436.11+1662.6+1442.63+1662.67+1442.68+1662.67C1445.87+1662.78+1449.05+1663.04+1452.23+1663.22" fill="#42373a" stroke-linecap="butt" opacity="1" stroke-linejoin="round"/>
<path stroke="#42373a" stroke-width="1" d="M1452.41+1668.27C1444.13+1668.07+1436.23+1668+1428+1668.72C1426.73+1668.83+1417.56+1671.27+1419.99+1669.71L1419.67+1670.51C1415.61+1665.73+1439.73+1666.77+1442.12+1666.9C1445.57+1667.07+1449.01+1667.31+1452.46+1667.52" fill="#42373a" stroke-linecap="butt" opacity="1" stroke-linejoin="round"/>
<path stroke="#42373a" stroke-width="1" d="M1435.04+1670.45C1426.49+1670.97+1417.86+1671.59+1409.45+1673.33C1408.01+1673.63+1404.8+1673.85+1405.44+1675.17C1405.73+1675.76+1406.64+1674.62+1407.25+1674.39L1407.04+1675.39C1396.37+1672+1423.25+1670.49+1428.28+1670.28C1430.53+1670.19+1432.79+1670.17+1435.04+1670.12" fill="#42373a" stroke-linecap="butt" opacity="1" stroke-linejoin="round"/>
<path stroke="#42373a" stroke-width="1" d="M1421.12+1674.01C1417.18+1674.37+1413.22+1674.69+1409.31+1675.31C1407.33+1675.62+1402.18+1678.06+1403.42+1676.49L1402.81+1676.19C1402.48+1674.08+1408.08+1673.99+1409.21+1673.89C1414.4+1673.44+1414.04+1673.62+1421.13+1673.54" fill="#42373a" stroke-linecap="butt" opacity="1" stroke-linejoin="round"/>
<path stroke="#42373a" stroke-width="1" d="M1402.76+1676.49C1400.63+1676.88+1398.48+1677.21+1396.36+1677.65C1395.23+1677.88+1392.1+1679.29+1393.1+1678.74L1392.63+1678.34C1392.08+1676.77+1394.73+1676.57+1402.66+1675.5" fill="#42373a" stroke-linecap="butt" opacity="1" stroke-linejoin="round"/>
<path stroke="#42373a" stroke-width="1" d="M1396.68+1679.1C1395.84+1679.35+1388.43+1681.92+1389.47+1682.06L1389.02+1681.88C1387.99+1679.51+1395.35+1678.68+1396.62+1678.38" fill="#42373a" stroke-linecap="butt" opacity="1" stroke-linejoin="round"/>
<path stroke="#42373a" stroke-width="1" d="M1395.99+1680.22C1393.96+1681.18+1388.29+1683.11+1391.73+1682.23L1391.87+1682.81C1387.65+1684.97+1391.13+1680.88+1395.7+1679.15" fill="#42373a" stroke-linecap="butt" opacity="1" stroke-linejoin="round"/>
<path stroke="#42373a" stroke-width="1" d="M1394.57+1680.01C1391.89+1681.28+1390.45+1681.68+1388.42+1683.2C1388.23+1683.34+1387.16+1684.24+1387.65+1684.22L1387.16+1684.02C1385.25+1681.89+1391.71+1680.42+1394.36+1679.33" fill="#42373a" stroke-linecap="butt" opacity="1" stroke-linejoin="round"/>
<path stroke="#42373a" stroke-width="1" d="M1396.74+1678.23C1391.31+1679.77+1393.32+1679.15+1389.92+1680.23C1389.6+1680.32+1388.73+1680.71+1389.05+1680.7L1388.47+1680.55C1387.93+1677.73+1393.9+1678.61+1396.71+1677.98" fill="#42373a" stroke-linecap="butt" opacity="1" stroke-linejoin="round"/>
<path stroke="#42373a" stroke-width="1" d="M1400.38+1675.44C1396.22+1676.19+1395.65+1676.02+1392.7+1677.09C1392.28+1677.24+1390.78+1678.3+1392.07+1678.26L1391.13+1678.52C1388.91+1674.52+1399.59+1674.53+1400.35+1674.42" fill="#42373a" stroke-linecap="butt" opacity="1" stroke-linejoin="round"/>
<path stroke="#42373a" stroke-width="1" d="M1404.05+1676.22C1400.86+1676.1+1397.71+1676.11+1394.6+1676.83C1394.27+1676.91+1390.95+1677.77+1391.22+1678.44L1390.7+1678.19C1390.84+1674.04+1402.93+1675.28+1404.1+1675.31" fill="#42373a" stroke-linecap="butt" opacity="1" stroke-linejoin="round"/>
<path stroke="#42373a" stroke-width="1" d="M1400.4+1674.3C1405.72+1673.71+1410.6+1672.44+1415.74+1674.4L1415.61+1675.03C1410.63+1673.57+1405.61+1674.27+1400.52+1674.79" fill="#42373a" stroke-linecap="butt" opacity="1" stroke-linejoin="round"/>
<path stroke="#42373a" stroke-width="1" d="M1398.91+1673.19C1406.08+1672.97+1414.29+1672.5+1420.83+1676.11L1420.58+1676.79C1414+1673.89+1406.09+1674.02+1399.09+1673.87" fill="#42373a" stroke-linecap="butt" opacity="1" stroke-linejoin="round"/>
<path stroke="#42373a" stroke-width="1" d="M1396.48+1678.76C1399.16+1678.26+1406.24+1675.9+1409.46+1676.87L1409.46+1677.31C1405.9+1676.65+1399.69+1678.8+1396.63+1679.49" fill="#42373a" stroke-linecap="butt" opacity="1" stroke-linejoin="round"/>
<path stroke="#42373a" stroke-width="1" d="M1401.68+1678.84C1402.92+1678.58+1404.15+1678.31+1405.39+1678.05L1405.39+1678.05C1404.15+1678.31+1402.92+1678.58+1401.68+1678.84" fill="#42373a" stroke-linecap="butt" opacity="1" stroke-linejoin="round"/>
<path stroke="#42373a" stroke-width="1" d="M1399.43+1678.41C1396.74+1678.91+1393.45+1678.09+1391.34+1679.83L1391.32+1679.76C1392.81+1677.45+1396.61+1678.28+1399.28+1677.63" fill="#42373a" stroke-linecap="butt" opacity="1" stroke-linejoin="round"/>
<path stroke="#42373a" stroke-width="1" d="M1413.68+1674.63C1413.15+1674.6+1402.94+1674.09+1402.94+1674.09L1402.43+1674.14C1401.54+1670.85+1413.53+1673.32+1413.78+1673.35" fill="#42373a" stroke-linecap="butt" opacity="1" stroke-linejoin="round"/>
<path stroke="#42373a" stroke-width="1" d="M1421.57+1675C1418.45+1673.85+1404.07+1669.65+1400.17+1672.49L1399.86+1671.65C1404.56+1668.33+1417.73+1672.17+1421.8+1673.97" fill="#42373a" stroke-linecap="butt" opacity="1" stroke-linejoin="round"/>
<path stroke="#42373a" stroke-width="1" d="M1416.23+1667.89C1412.77+1667.2+1409.21+1667.05+1405.68+1666.98C1405.33+1666.98+1403.39+1667.5+1404.24+1667.62L1403.87+1667.58C1402.24+1664.65+1414.83+1666.51+1416.46+1666.86" fill="#42373a" stroke-linecap="butt" opacity="1" stroke-linejoin="round"/>
<path stroke="#42373a" stroke-width="1" d="M1417.09+1669.89C1414.27+1669.84+1411.45+1669.78+1408.63+1669.74C1407.04+1669.71+1391.75+1671.17+1398.31+1671.33L1398.14+1672.08C1391.08+1671.83+1399.41+1668.78+1401.39+1668.47C1406.66+1667.67+1411.92+1668.53+1417.19+1669" fill="#42373a" stroke-linecap="butt" opacity="1" stroke-linejoin="round"/>
<path stroke="#42373a" stroke-width="1" d="M1423.53+1670.82C1417.38+1670.5+1411.73+1670.49+1405.63+1670.72C1402.45+1670.83+1402.45+1670.98+1399.58+1671.2C1399.02+1671.24+1397.51+1671.79+1397.9+1671.38C1398.81+1670.4+1398.4+1670.52+1399.47+1670.87L1399.4+1671.34C1393.85+1670.98+1404.72+1669.04+1405.6+1669.01C1411.71+1668.83+1417.58+1669.26+1423.69+1669.81" fill="#42373a" stroke-linecap="butt" opacity="1" stroke-linejoin="round"/>
<path stroke="#42373a" stroke-width="1" d="M1430.8+1668.43C1427.34+1667.95+1423.89+1667.38+1420.41+1666.99C1418.59+1666.79+1397.92+1664.72+1405.67+1666.66L1405.58+1667.04C1405.16+1666.99+1401.87+1665.93+1403.36+1665.25C1405.9+1664.09+1408.95+1664.9+1411.74+1664.98C1418.42+1665.16+1424.27+1666.36+1430.89+1667.78" fill="#42373a" stroke-linecap="butt" opacity="1" stroke-linejoin="round"/>
<path stroke="#42373a" stroke-width="1" d="M1432.5+1667.33C1428.81+1666.72+1425.13+1665.98+1421.42+1665.5C1419.45+1665.25+1400.23+1662.72+1408.58+1665.07L1408.46+1665.65C1396.62+1663.12+1420.16+1663.91+1421.67+1664.15C1425.39+1664.74+1429.06+1665.61+1432.76+1666.33" fill="#42373a" stroke-linecap="butt" opacity="1" stroke-linejoin="round"/>
<path stroke="#42373a" stroke-width="1" d="M1438.08+1667.39C1434.78+1666.86+1431.49+1666.3+1428.19+1665.8C1426.19+1665.5+1409.38+1662.81+1414.56+1664.6L1414.47+1665.17C1405.32+1663.68+1426.86+1664+1428.5+1664.28C1431.83+1664.85+1435.15+1665.51+1438.48+1666.13" fill="#42373a" stroke-linecap="butt" opacity="1" stroke-linejoin="round"/>
<path stroke="#42373a" stroke-width="1" d="M1442.17+1665.3C1435.3+1664.44+1428.65+1663.52+1421.75+1663.49C1421.32+1663.49+1412.74+1664.35+1414.67+1664.45L1414.05+1664.59C1412.59+1661.18+1429.5+1662.47+1431.31+1662.68C1435.01+1663.13+1438.68+1663.77+1442.36+1664.32" fill="#42373a" stroke-linecap="butt" opacity="1" stroke-linejoin="round"/>
<path stroke="#42373a" stroke-width="1" d="M1440.83+1662.21C1434.89+1661.97+1427.63+1661.55+1421.33+1661.58C1418.2+1661.59+1417.88+1661.62+1415.13+1661.94C1414.73+1661.99+1413.61+1662.45+1413.99+1662.33C1415.86+1661.78+1417.31+1661.72+1419.3+1661.72L1419.31+1662.26C1411.36+1663.51+1413.99+1660.23+1421.39+1660.32C1427.92+1660.39+1434.44+1660.92+1440.96+1661.35" fill="#42373a" stroke-linecap="butt" opacity="1" stroke-linejoin="round"/>
<path stroke="#42373a" stroke-width="1" d="M1445.75+1660.61C1443.46+1660.59+1441.16+1660.47+1438.87+1660.54C1434.83+1660.67+1430.8+1660.94+1426.79+1661.44C1421.15+1662.16+1424.87+1661.53+1420.13+1662.43C1420.02+1662.45+1419.68+1662.53+1419.79+1662.49C1421.61+1661.75+1421.35+1662.07+1423.98+1662.09L1423.97+1662.4C1415.04+1663.12+1423.36+1660.74+1426.72+1660.35C1433.1+1659.6+1439.42+1659.58+1445.83+1659.65" fill="#42373a" stroke-linecap="butt" opacity="1" stroke-linejoin="round"/>
<path stroke="#42373a" stroke-width="1" d="M1448.64+1660.68C1444.08+1660.6+1439.52+1660.48+1434.96+1660.43C1430.66+1660.37+1421.61+1661.68+1424.78+1660.64L1424.7+1660.97C1421.48+1659.7+1431.53+1659.5+1434.99+1659.55C1439.57+1659.62+1444.16+1659.77+1448.74+1659.87" fill="#42373a" stroke-linecap="butt" opacity="1" stroke-linejoin="round"/>
<path stroke="#42373a" stroke-width="1" d="M1452.58+1658.84C1448.64+1658.89+1444.7+1658.89+1440.77+1659.01C1439.15+1659.06+1434.35+1659.77+1435.96+1659.61C1436.97+1659.51+1438+1659.34+1439.01+1659.42L1438.93+1659.93C1438.11+1659.84+1436.04+1660.22+1435.87+1658.71C1435.67+1657.08+1439.13+1658.27+1440.78+1658.29C1444.72+1658.33+1448.65+1658.49+1452.59+1658.59" fill="#42373a" stroke-linecap="butt" opacity="1" stroke-linejoin="round"/>
<path stroke="#42373a" stroke-width="1" d="M1461.9+1661.21C1456.65+1661.38+1449.74+1662.41+1444.24+1662.25L1444.11+1661.79C1448.83+1658.88+1457.48+1660.32+1461.95+1660.5" fill="#42373a" stroke-linecap="butt" opacity="1" stroke-linejoin="round"/>
<path stroke="#42373a" stroke-width="1" d="M1463.75+1662.2C1453.13+1661.52+1443.09+1661.69+1432.59+1662.79L1432.5+1662.35C1441.27+1657.6+1454.8+1660.09+1463.98+1660.97" fill="#42373a" stroke-linecap="butt" opacity="1" stroke-linejoin="round"/>
<path stroke="#42373a" stroke-width="1" d="M1451.89+1661.21C1458.7+1661.15+1469.49+1660.47+1474.8+1665.88L1474.27+1666.64C1468.22+1662.62+1458.86+1662.38+1451.95+1661.6" fill="#42373a" stroke-linecap="butt" opacity="1" stroke-linejoin="round"/>
<path stroke="#42373a" stroke-width="1" d="M1444.52+1663.13C1450.77+1662.97+1459.46+1663.88+1465.49+1666.22L1465.3+1667C1459.73+1664.66+1450.28+1663.64+1444.53+1663.37" fill="#42373a" stroke-linecap="butt" opacity="1" stroke-linejoin="round"/>
<path stroke="#42373a" stroke-width="1" d="M1445.83+1665.43C1451.04+1665.83+1456.05+1666.31+1461.19+1667.05L1461.15+1667.35C1456+1666.72+1451.12+1666.33+1445.89+1666.13" fill="#42373a" stroke-linecap="butt" opacity="1" stroke-linejoin="round"/>
<path stroke="#42373a" stroke-width="1" d="M1465.04+1667.61C1460.94+1667.62+1456.83+1667.68+1452.72+1667.79C1452.01+1667.81+1446.82+1667.7+1447.36+1667.52L1446.87+1667.1C1447.11+1665.27+1451.72+1666.18+1452.76+1666.19C1456.88+1666.24+1460.99+1666.58+1465.1+1666.92" fill="#42373a" stroke-linecap="butt" opacity="1" stroke-linejoin="round"/>
<path stroke="#42373a" stroke-width="1" d="M1462.77+1667.9C1456.1+1667.47+1446.38+1669.92+1439.85+1668.83L1439.75+1668.22C1446.44+1665.87+1456.3+1665.86+1462.88+1666.98" fill="#42373a" stroke-linecap="butt" opacity="1" stroke-linejoin="round"/>
<path stroke="#42373a" stroke-width="1" d="M1442.72+1669.46C1438.48+1669.64+1432.58+1667.51+1430.07+1670.93L1429.53+1670.47C1432.03+1667.55+1440+1668.83+1442.76+1668.88" fill="#42373a" stroke-linecap="butt" opacity="1" stroke-linejoin="round"/>
<path stroke="#42373a" stroke-width="1" d="M1439.3+1671.9C1437.33+1671.93+1435.44+1671.92+1433.56+1671.93C1431.07+1671.94+1428.61+1672+1426.03+1672.23C1425.51+1672.28+1421.54+1673.41+1422.29+1672.14L1421.99+1672.49C1420.57+1669.7+1437.64+1671.14+1438.14+1671.17C1438.52+1671.19+1438.9+1671.23+1439.28+1671.25" fill="#42373a" stroke-linecap="butt" opacity="1" stroke-linejoin="round"/>
<path stroke="#42373a" stroke-width="1" d="M1429.65+1667.75C1425.8+1667.73+1424.24+1667.67+1422.73+1667.68C1421.53+1667.68+1420.37+1667.74+1418.12+1667.89C1416.51+1668+1414.89+1668.12+1413.28+1668.17C1412.86+1668.18+1411.85+1668.58+1412.04+1668.21C1412.84+1666.68+1414.64+1667.13+1416.09+1667.12L1416.12+1667.39C1404.34+1669.19+1427.43+1666.99+1429.72+1667.1" fill="#42373a" stroke-linecap="butt" opacity="1" stroke-linejoin="round"/>
<path stroke="#42373a" stroke-width="1" d="M1422+1669.93C1419.79+1669.77+1409.01+1670.87+1410.21+1670.04L1409.89+1670.74C1406.8+1668.06+1418.07+1668.77+1422.1+1669.44" fill="#42373a" stroke-linecap="butt" opacity="1" stroke-linejoin="round"/>
<path stroke="#42373a" stroke-width="1" d="M1419.55+1670.29C1417.39+1670.22+1410.98+1670.1+1413.09+1670.54L1412.78+1670.03C1412.88+1667.76+1417.3+1669.41+1419.57+1669.47" fill="#42373a" stroke-linecap="butt" opacity="1" stroke-linejoin="round"/>
<path stroke="#42373a" stroke-width="1" d="M1464.42+1666.53C1468.43+1667.22+1474.03+1667.66+1478.01+1669.39L1477.89+1669.87C1473.52+1668.61+1468.77+1667.8+1464.37+1666.85" fill="#42373a" stroke-linecap="butt" opacity="1" stroke-linejoin="round"/>
<path stroke="#42373a" stroke-width="1" d="M1458.88+1664.84C1463.43+1665.64+1468.5+1666.14+1472.84+1667.84L1472.75+1668.22C1468.12+1667.28+1463.56+1666.34+1458.89+1665.65" fill="#42373a" stroke-linecap="butt" opacity="1" stroke-linejoin="round"/>
<path stroke="#42373a" stroke-width="1" d="M1452.05+1663.92C1456.68+1664.74+1460.9+1665.74+1465.39+1666.99L1465.25+1667.5C1460.81+1666.54+1456.49+1665.45+1452+1664.64" fill="#42373a" stroke-linecap="butt" opacity="1" stroke-linejoin="round"/>
<path stroke="#42373a" stroke-width="1" d="M1450.34+1664.9C1458.24+1665.19+1465.97+1666.53+1473.77+1666.9L1473.7+1667.51C1466.02+1667.39+1457.94+1666.06+1450.33+1665.44" fill="#42373a" stroke-linecap="butt" opacity="1" stroke-linejoin="round"/>
<path stroke="#42373a" stroke-width="1" d="M1471.84+1665.15C1473.55+1665.43+1495.09+1667.44+1493.42+1670.02L1492.9+1669.58C1494.08+1670.65+1485.26+1668.09+1484.59+1667.94C1480.21+1667+1476.33+1666.03+1471.81+1665.54" fill="#42373a" stroke-linecap="butt" opacity="1" stroke-linejoin="round"/>
<path stroke="#42373a" stroke-width="1" d="M1481.4+1665.82C1485.78+1666.78+1490.68+1667.74+1494.73+1669.74L1494.62+1670.12C1490.18+1669.98+1485.64+1667.43+1481.23+1666.62" fill="#42373a" stroke-linecap="butt" opacity="1" stroke-linejoin="round"/>
<path stroke="#42373a" stroke-width="1" d="M1490.34+1666.97C1507.53+1669.57+1482.04+1663.25+1477.68+1661.36L1477.86+1660.84C1482.07+1662.43+1508.07+1669.9+1490.27+1667.31" fill="#42373a" stroke-linecap="butt" opacity="1" stroke-linejoin="round"/>
<path stroke="#42373a" stroke-width="1" d="M1499.68+1666.05C1494.53+1664.11+1489.4+1662.22+1484.36+1660.04L1484.54+1659.6C1489.77+1660.89+1495.42+1662.98+1500.06+1665.45" fill="#42373a" stroke-linecap="butt" opacity="1" stroke-linejoin="round"/>
<path stroke="#42373a" stroke-width="1" d="M1508.15+1664.72C1501.63+1662.2+1495.06+1659.47+1488.41+1657.28L1488.58+1656.69C1495.53+1657.89+1502.22+1661.02+1508.67+1663.66" fill="#42373a" stroke-linecap="butt" opacity="1" stroke-linejoin="round"/>
<path stroke="#42373a" stroke-width="1" d="M1504.3+1662.04C1497.31+1658.85+1490.86+1656.66+1483.79+1654.12L1483.89+1653.3C1490.51+1652.92+1499.47+1658.52+1504.82+1661.17" fill="#42373a" stroke-linecap="butt" opacity="1" stroke-linejoin="round"/>
<path stroke="#42373a" stroke-width="1" d="M1499.19+1666.03C1491.05+1662.55+1482.63+1659.84+1474+1657.84C1470.31+1656.98+1468.12+1656.32+1464.66+1656.14C1464.54+1656.14+1460.51+1656.69+1461.52+1656.52L1461.15+1656.74C1460.51+1655.58+1461.58+1655.17+1462.68+1655.12C1466.66+1654.94+1470.33+1656.15+1474.18+1657.16C1482.74+1659.41+1491.16+1662.09+1499.51+1665.05" fill="#42373a" stroke-linecap="butt" opacity="1" stroke-linejoin="round"/>
<path stroke="#42373a" stroke-width="1" d="M1486.23+1663.65C1475.62+1660.29+1464.78+1658.87+1453.68+1658.29C1450.01+1658.1+1446.38+1658.1+1442.71+1658C1442.07+1657.99+1442.14+1658.04+1442.75+1657.78L1442.4+1657.47C1441.97+1656.87+1457.29+1657.12+1459.15+1657.35C1468.51+1658.5+1477.5+1660.16+1486.49+1662.97" fill="#42373a" stroke-linecap="butt" opacity="1" stroke-linejoin="round"/>
<path stroke="#42373a" stroke-width="1" d="M1476.44+1663.68C1464.04+1663.17+1451.69+1661.54+1439.24+1661.12C1436.74+1661.03+1431.16+1659.58+1434.01+1661.03L1433.87+1661.37C1429.15+1660.23+1436.41+1659.6+1437.04+1659.59C1441.46+1659.56+1445.87+1660.02+1450.29+1660.3C1459.17+1660.85+1467.68+1661.51+1476.46+1663.25" fill="#42373a" stroke-linecap="butt" opacity="1" stroke-linejoin="round"/>
<path stroke="#42373a" stroke-width="1" d="M1459.71+1665.19C1452.33+1663.85+1444.75+1662.72+1437.48+1660.77L1437.58+1660.3C1444.98+1661.99+1452.34+1663.17+1459.78+1664.92" fill="#42373a" stroke-linecap="butt" opacity="1" stroke-linejoin="round"/>
<path stroke="#88715b" stroke-width="1.27" d="M1325.08+1529.18C1355.27+1457.89+1430.37+1410.69+1504.03+1393.93C1546.78+1384.2+1593.2+1389.74+1624.23+1422.3L1624.04+1422.5C1533.64+1339.94+1368.47+1434.07+1325.56+1529.27" fill="#88715b" stroke-linecap="butt" opacity="1" stroke-linejoin="round"/>
<path stroke="#88715b" stroke-width="1.27" d="M1391.01+1493.49C1430.56+1451.28+1496.13+1425.65+1553.44+1426.12C1571.9+1426.27+1587.78+1435.49+1605.71+1437.26L1605.67+1437.47C1587.82+1436.45+1571.75+1427+1553.48+1426.79C1497.24+1426.14+1430.35+1452.45+1391.18+1493.61" fill="#88715b" stroke-linecap="butt" opacity="1" stroke-linejoin="round"/>
<path stroke="#88715b" stroke-width="1.27" d="M1618.8+1470.81C1537.48+1439.73+1424.99+1444.81+1366.01+1517.78L1365.58+1517.41C1375.69+1501.38+1392.89+1489.84+1408.89+1480.37C1472.18+1442.92+1552.66+1444.41+1619.8+1469.13" fill="#88715b" stroke-linecap="butt" opacity="1" stroke-linejoin="round"/>
<path stroke="#5e595a" stroke-width="1" d="M1611.03+1473.8C1591.66+1469.31+1569.29+1474.49+1549.65+1475.25C1477.38+1478.06+1429.36+1486.63+1370.42+1532.12C1359.16+1540.8+1316.14+1573.24+1315.16+1589.01L1314.13+1588.72C1313.34+1571.89+1357.52+1539.29+1369.15+1530.37C1428.94+1484.52+1477.04+1477.9+1549.59+1473.96C1569.81+1472.87+1591.39+1467.84+1611.41+1472.44" fill="#5e595a" stroke-linecap="butt" opacity="1" stroke-linejoin="round"/>
<path stroke="#5e595a" stroke-width="1" d="M1384.06+1555C1375.03+1565.72+1363.83+1574.22+1353.17+1583.21C1351.29+1584.79+1346.85+1590.39+1347.61+1588.06C1349.07+1583.61+1354.95+1579.72+1358.34+1576.92L1358.38+1576.97C1325.87+1605.92+1380.21+1557.76+1383.34+1554.18" fill="#5e595a" stroke-linecap="butt" opacity="1" stroke-linejoin="round"/>
<path stroke="#5e595a" stroke-width="1" d="M1371.57+1563.34C1367.27+1566.85+1363.11+1570.52+1358.68+1573.86C1354.22+1577.22+1341.13+1582.5+1339.57+1588.43L1339.4+1588.31C1338.65+1583.52+1354.85+1575.46+1358.04+1573.08C1362.47+1569.78+1366.67+1566.18+1370.99+1562.72" fill="#5e595a" stroke-linecap="butt" opacity="1" stroke-linejoin="round"/>
<path stroke="#5e595a" stroke-width="1" d="M1369.47+1565.22C1357.57+1574.68+1346.29+1584.84+1334.28+1594.14C1331.06+1596.64+1318.51+1610.46+1322.05+1605.61L1322.14+1605.9C1316.7+1609.89+1331.15+1595.56+1333.76+1593.53C1345.79+1584.13+1356.97+1574.2+1369.11+1564.83" fill="#5e595a" stroke-linecap="butt" opacity="1" stroke-linejoin="round"/>
<path stroke="#5e595a" stroke-width="1" d="M1354.08+1580.67C1345.66+1588.3+1336.72+1595.4+1328.85+1603.6C1328.35+1604.12+1318.59+1617.52+1318.99+1614.57L1319.25+1614.83C1317.06+1617.06+1319.27+1612.29+1328.26+1602.95C1336.16+1594.75+1345.2+1587.74+1353.7+1580.17" fill="#5e595a" stroke-linecap="butt" opacity="1" stroke-linejoin="round"/>
<path stroke="#5e595a" stroke-width="1" d="M1349.67+1593.59C1341.39+1601.7+1333.23+1609.95+1325.4+1618.49C1322.78+1621.33+1319.82+1623.88+1317.46+1626.93C1316.57+1628.08+1314.49+1631.69+1315.72+1630.93L1315.56+1631.26C1311.07+1630.23+1320.82+1622.14+1324.76+1617.86C1332.62+1609.34+1340.84+1601.15+1349.17+1593.09" fill="#5e595a" stroke-linecap="butt" opacity="1" stroke-linejoin="round"/>
<path stroke="#5e595a" stroke-width="1" d="M1338.72+1609.44C1331.81+1615.77+1325.4+1622.67+1319.38+1629.85C1315.12+1634.93+1310.82+1641.07+1311.74+1640.46L1311.59+1640.61C1309.91+1640.1+1311.53+1638.52+1312.33+1637.29C1319.28+1626.59+1328.83+1617.45+1338.26+1609.03" fill="#5e595a" stroke-linecap="butt" opacity="1" stroke-linejoin="round"/>
<path stroke="#5e595a" stroke-width="1" d="M1338.24+1617.91C1329.24+1627.94+1315.91+1635.53+1311.57+1648.28C1311.55+1648.35+1317.65+1645.38+1319.04+1644.38L1319.2+1644.63C1318.04+1645.53+1310.2+1650.81+1310.77+1647.68C1311.2+1645.29+1315.96+1641.02+1317.22+1639.66C1324.04+1632.23+1330.9+1624.85+1337.75+1617.45" fill="#5e595a" stroke-linecap="butt" opacity="1" stroke-linejoin="round"/>
<path stroke="#5e595a" stroke-width="1" d="M1340.71+1626.81C1333.31+1635.33+1325.8+1643.77+1318.94+1652.72C1317.85+1654.13+1305.11+1670.51+1314.07+1662.26L1314.23+1662.52C1305.52+1671.89+1316.95+1653.93+1318.3+1652.19C1325.23+1643.29+1332.79+1634.89+1340.24+1626.43" fill="#5e595a" stroke-linecap="butt" opacity="1" stroke-linejoin="round"/>
<path stroke="#5e595a" stroke-width="1" d="M1340.71+1634.75C1334.46+1641.9+1326.77+1649.79+1321.05+1657.78C1319.81+1659.51+1311.74+1669.22+1318.58+1664.3L1318.65+1664.46C1310.44+1670.83+1321.64+1655.49+1323.2+1653.6C1328.66+1647.01+1334.45+1640.69+1340.24+1634.39" fill="#5e595a" stroke-linecap="butt" opacity="1" stroke-linejoin="round"/>
<path stroke="#5e595a" stroke-width="1" d="M1341.94+1646.39C1335.4+1653.36+1315.35+1670.38+1314.68+1681.77L1314.61+1681.76C1313.92+1669.37+1333.99+1652.76+1341+1645.6" fill="#5e595a" stroke-linecap="butt" opacity="1" stroke-linejoin="round"/>
<path stroke="#5e595a" stroke-width="1" d="M1344.02+1651.52C1336.23+1661.12+1327.96+1670.37+1320.91+1680.52C1319.11+1683.09+1306.38+1696.79+1314.58+1692.1L1314.71+1692.29C1305.5+1698.06+1319.16+1681.62+1320.31+1680.03C1326.95+1670.83+1338.57+1657.73+1343.89+1651.4" fill="#5e595a" stroke-linecap="butt" opacity="1" stroke-linejoin="round"/>
<path stroke="#5e595a" stroke-width="1" d="M1331.74+1676.99C1325.33+1684.65+1318.87+1692.25+1312.52+1699.96C1311.31+1701.43+1304.27+1710.21+1310.17+1708.45L1310.17+1708.72C1303.49+1709.57+1309.5+1702.06+1311.8+1699.34C1318.24+1691.7+1324.82+1684.18+1331.33+1676.6" fill="#5e595a" stroke-linecap="butt" opacity="1" stroke-linejoin="round"/>
<path stroke="#5e595a" stroke-width="1" d="M1344.2+1680.42C1337.62+1690.11+1330.72+1699.63+1324.95+1709.83C1322.84+1713.55+1317.23+1724.59+1320.55+1721.89L1320.66+1722.12C1320.33+1722.35+1318.36+1724.53+1317.3+1723.38C1313.76+1719.55+1321.64+1713.88+1324.21+1709.34C1329.99+1699.16+1337.02+1689.74+1343.71+1680.13" fill="#5e595a" stroke-linecap="butt" opacity="1" stroke-linejoin="round"/>
<path stroke="#5e595a" stroke-width="1" d="M1346.13+1695.31C1341.37+1701.96+1336.19+1708.35+1331.93+1715.34C1331.57+1715.93+1326+1725.29+1328.7+1724.84L1328.41+1725.13C1324.63+1724.67+1330.43+1715.91+1331.14+1714.76C1335.41+1707.78+1340.84+1701.59+1345.76+1695.04" fill="#5e595a" stroke-linecap="butt" opacity="1" stroke-linejoin="round"/>
<path stroke="#5e595a" stroke-width="1" d="M1344.69+1704.27C1339.67+1711.47+1334.65+1718.69+1329.39+1725.73C1327.44+1728.35+1322.26+1733.27+1326.91+1728.83L1327.22+1729.08C1320.82+1735.78+1331.58+1721.64+1332.2+1720.79C1336.26+1715.22+1340.21+1709.58+1344.21+1703.97" fill="#5e595a" stroke-linecap="butt" opacity="1" stroke-linejoin="round"/>
<path stroke="#5e595a" stroke-width="1" d="M1722.15+1512.57C1732.84+1515.24+1743.71+1517.22+1754.64+1518.66C1757.37+1519.03+1760.11+1519.35+1762.84+1519.65C1764.5+1519.83+1763.88+1516.6+1762.46+1521.15L1764.71+1518.89C1765.6+1528.05+1745.13+1520.11+1734.97+1518.16C1730.43+1517.29+1726.03+1515.76+1721.57+1514.56" fill="#5e595a" stroke-linecap="butt" opacity="1" stroke-linejoin="round"/>
<path stroke="#5e595a" stroke-width="1" d="M1749.32+1528.41C1756.89+1529+1769.49+1528.71+1773.8+1534.72L1773.53+1535.71C1767.29+1531.86+1757.07+1531.78+1749.32+1531.1" fill="#5e595a" stroke-linecap="butt" opacity="1" stroke-linejoin="round"/>
<path stroke="#5e595a" stroke-width="1" d="M1740.61+1533.53C1749.46+1535.2+1758.59+1536.21+1766.97+1539.53C1770.11+1540.78+1768.92+1541.99+1765.72+1541.75L1765.72+1541.59C1770.5+1541.19+1766.7+1541.36+1762.98+1540.52C1755.41+1538.82+1747.76+1537.45+1740.15+1535.91" fill="#5e595a" stroke-linecap="butt" opacity="1" stroke-linejoin="round"/>
<path stroke="#5e595a" stroke-width="1" d="M1748.47+1544.32C1757.41+1546.65+1770.14+1544.63+1774.95+1552.52L1774.37+1553.68C1766.72+1550.4+1752.97+1547.35+1748.18+1545.98" fill="#5e595a" stroke-linecap="butt" opacity="1" stroke-linejoin="round"/>
<path stroke="#5e595a" stroke-width="1" d="M1745.05+1550.68C1755.69+1554.11+1766.4+1557.33+1776.98+1560.97C1777.64+1561.2+1788.59+1567.52+1785.7+1568.5L1785.48+1568.5C1788.67+1570.03+1779.66+1564.29+1776.32+1563.11C1765.81+1559.43+1755.21+1556.06+1744.65+1552.54" fill="#5e595a" stroke-linecap="butt" opacity="1" stroke-linejoin="round"/>
<path stroke="#5e595a" stroke-width="1" d="M1746.11+1565.45C1756.07+1568.03+1766.05+1570.52+1775.98+1573.19C1776.66+1573.38+1788.94+1577.95+1783.63+1579.02L1783.57+1578.84C1786.44+1579.5+1778.15+1576.53+1775.32+1575.73C1765.43+1572.95+1755.49+1570.3+1745.58+1567.58" fill="#5e595a" stroke-linecap="butt" opacity="1" stroke-linejoin="round"/>
<path stroke="#5e595a" stroke-width="1" d="M1745.22+1577.15C1756.95+1580.2+1768.82+1582.74+1780.45+1586.16C1781.94+1586.6+1794.69+1590.27+1788.1+1591.46L1788.04+1591.25C1793.41+1592.39+1774.35+1587.41+1773.31+1587.12C1763.67+1584.43+1754.09+1581.53+1744.49+1578.73" fill="#5e595a" stroke-linecap="butt" opacity="1" stroke-linejoin="round"/>
<path stroke="#5e595a" stroke-width="1" d="M1759.48+1583.19C1768.34+1586.9+1790.16+1593.22+1789.41+1598.54L1788.72+1599.06C1780.02+1592.69+1768.35+1588.81+1759.04+1584.61" fill="#5e595a" stroke-linecap="butt" opacity="1" stroke-linejoin="round"/>
<path stroke="#5e595a" stroke-width="1" d="M1751.18+1588.71C1763.71+1594.05+1775.88+1600.3+1787.6+1607.25C1798.97+1614+1793.62+1616.3+1784.07+1612.79L1784.13+1612.63C1791.9+1614.97+1797.64+1615.87+1786.56+1609.24C1774.86+1602.23+1762.78+1595.82+1750.44+1590.02" fill="#5e595a" stroke-linecap="butt" opacity="1" stroke-linejoin="round"/>
<path stroke="#5e595a" stroke-width="1" d="M1755.27+1601.4C1764.24+1605.8+1773.24+1610.14+1782.17+1614.61C1782.79+1614.92+1795.12+1621.85+1793.65+1622.42L1793.42+1622.88C1793.98+1623.3+1787.12+1620.08+1786.53+1619.76C1784.7+1618.77+1782.9+1617.73+1781.05+1616.78C1772.16+1612.19+1763.22+1607.7+1754.3+1603.16" fill="#5e595a" stroke-linecap="butt" opacity="1" stroke-linejoin="round"/>
<path stroke="#5e595a" stroke-width="1" d="M1757.1+1609.66C1766.77+1615.01+1776.57+1620.14+1786.12+1625.7C1788.7+1627.21+1796.21+1632.56+1795.26+1636.73C1794.47+1640.2+1786.93+1635.47+1786.07+1635.1L1786.1+1635.03C1788.65+1635.85+1793.04+1639.95+1793.8+1637.38C1794.71+1634.31+1786.49+1628.42+1785.06+1627.54C1775.63+1621.77+1765.98+1616.37+1756.45+1610.79" fill="#5e595a" stroke-linecap="butt" opacity="1" stroke-linejoin="round"/>
<path stroke="#5e595a" stroke-width="1" d="M1761.32+1622.45C1771.37+1629.69+1783.54+1636.65+1791.95+1645.89C1792.11+1646.06+1800.17+1655+1795.6+1654.14C1789.37+1652.95+1783.91+1646.6+1778.14+1644.01L1778.14+1644.01C1782.92+1645.96+1787.96+1648.61+1792.24+1651.53C1793.51+1652.4+1795.6+1656.01+1795.8+1654.48C1796.29+1650.87+1778.73+1638.34+1773.91+1634.56C1769.34+1630.97+1764.76+1627.41+1760.18+1623.83" fill="#5e595a" stroke-linecap="butt" opacity="1" stroke-linejoin="round"/>
<path stroke="#5e595a" stroke-width="1" d="M1755.98+1635.99C1765.67+1642.58+1775.7+1648.67+1785.26+1655.45C1787.3+1656.91+1797.1+1666.94+1789.51+1661.48L1789.61+1661.32C1797.12+1667.24+1780.27+1655.27+1778.96+1654.36C1770.77+1648.71+1762.71+1642.87+1754.59+1637.12" fill="#5e595a" stroke-linecap="butt" opacity="1" stroke-linejoin="round"/>
<path stroke="#5e595a" stroke-width="1" d="M1770.06+1647.43C1778.93+1654.11+1787.86+1660.72+1796.68+1667.48C1798.11+1668.57+1810.13+1677.79+1803.9+1676.86L1805.03+1675.74C1804.63+1681.75+1798.04+1671.39+1795.36+1669.22C1786.74+1662.26+1778+1655.43+1769.32+1648.54" fill="#5e595a" stroke-linecap="butt" opacity="1" stroke-linejoin="round"/>
<path stroke="#5e595a" stroke-width="1" d="M1793.91+1680.3C1797.21+1682.68+1804.49+1690.04+1804.01+1688.66L1804.07+1688.63C1806.59+1692.37+1794.15+1683.08+1792.76+1681.96" fill="#5e595a" stroke-linecap="butt" opacity="1" stroke-linejoin="round"/>
<path stroke="#5e595a" stroke-width="1" d="M1793.55+1686.43C1795.73+1688.62+1797.97+1690.75+1800.09+1692.98C1800.11+1693+1802.54+1697.11+1802.49+1697.1C1801.31+1696.95+1800.89+1696.42+1799.94+1695.71L1799.94+1695.71C1800.94+1696.31+1801.57+1696.38+1801.94+1697.51C1802.4+1698.91+1799.91+1695.38+1798.88+1694.34C1796.81+1692.26+1794.73+1690.2+1792.66+1688.13" fill="#5e595a" stroke-linecap="butt" opacity="1" stroke-linejoin="round"/>
<path stroke="#5e595a" stroke-width="1" d="M1786.23+1692.21C1790.32+1693.87+1794.02+1695.72+1797.49+1698.22L1797.38+1698.68C1793.53+1699.99+1788.14+1695.16+1785.39+1693.29" fill="#5e595a" stroke-linecap="butt" opacity="1" stroke-linejoin="round"/>
<path d="M1431.62+1973.8C1431.41+1972.14+1436.27+1980.12+1437.71+1981.91C1442.29+1987.63+1448.04+1995.94+1453.42+2001.04C1461.27+2008.47+1467.02+2016.68+1473.57+2022.2C1481.46+2028.85+1490.52+2033.84+1499.91+2039.45C1510.11+2045.54+1519.53+2049.89+1520.06+2050.16C1526.5+2053.41+1533.33+2056.45+1545.39+2061.17C1548.69+2062.46+1560.38+2066.62+1566.38+2068.24C1573.95+2070.27+1574.54+2070.16+1577.09+2070.73C1578.41+2071.03+1581.32+2071.4+1582.44+2071.57C1583.24+2071.69+1584.61+2071.82+1585.41+2071.86C1587.29+2071.94+1586.15+2071.92+1586.56+2072.06C1594.13+2074.71+1472.03+2129.84+1451.79+2138.75C1447.58+2140.61+1428.69+2146.45+1424.66+2144.31C1421.64+2142.69+1424.83+2136.59+1426.63+2133.86C1431.64+2126.27+1435.58+2124.86+1436.86+2123.78C1444.28+2117.49+1443.29+2109.41+1443.4+2108.95C1444.82+2103.29+1442.62+2082.12+1440.71+2061.5C1439.41+2047.47+1438.07+2033.66+1437.15+2025.46C1435.26+2008.59+1433.79+1990.59+1431.62+1973.8Z" opacity="1" fill="#5c524d"/>
<path stroke="#5e595a" stroke-width="1" d="M1789.35+1681.35C1791.43+1682.17+1797.8+1684.26+1795.6+1683.85L1796.54+1684.32C1794.82+1686.89+1790.54+1684+1788.66+1683.19" fill="#5e595a" stroke-linecap="butt" opacity="1" stroke-linejoin="round"/>
<path stroke="#5e595a" stroke-width="1" d="M1777.74+1704.28C1778.28+1704.77+1784.23+1710.13+1780.34+1710.53C1778.79+1710.69+1769.67+1699.76+1768.49+1701.77C1768.27+1702.14+1769.76+1702.89+1769.86+1703C1773.12+1706.37+1775.81+1710.11+1778.83+1713.66C1779.25+1714.16+1780.43+1714.67+1780.05+1715.2C1778.38+1717.54+1774.24+1713.77+1771.91+1712.93C1770.69+1712.48+1766.83+1711.77+1768.13+1711.93C1772.97+1712.53+1777.03+1718.74+1780.52+1722.06C1780.99+1722.51+1782.25+1722.98+1781.85+1723.5C1777.7+1728.91+1775.42+1718.42+1771.22+1720.83C1770.19+1721.43+1773.23+1722.19+1774+1723.1C1775.77+1725.2+1780.54+1729.47+1780.05+1732.63C1779.45+1736.48+1772.92+1731.47+1771.78+1730.75C1771.09+1730.31+1769.49+1728.76+1769.62+1729.57C1769.71+1730.1+1770.62+1729.07+1771.16+1729.05C1772.3+1729.03+1772.72+1730.72+1773.55+1731.52C1774.93+1732.85+1782.17+1739.39+1780.1+1741.9C1776.7+1746.01+1774.21+1736.14+1771.45+1737.8C1770.61+1738.31+1772.61+1739.4+1773.16+1740.21C1774.13+1741.63+1782.14+1747.24+1780.57+1749.5C1778.57+1752.38+1776.62+1749.7+1774.58+1748.46C1773.56+1747.84+1770.08+1746.9+1771.22+1747.22C1773.14+1747.76+1781.23+1755.11+1779.05+1757.48C1777.26+1759.42+1776.23+1758.45+1774.56+1757.1C1773.79+1756.47+1771.22+1755.03+1772.17+1755.33C1773.68+1755.81+1782.45+1763.23+1778.65+1765.69C1776.84+1766.86+1771.82+1764.51+1774.86+1763.75C1775.81+1763.51+1781.83+1773.23+1781.41+1774.8C1780.62+1777.76+1776.72+1774.74+1775.59+1773.94C1775.51+1773.89+1772.93+1772.8+1773.19+1773.32C1774.83+1776.53+1779.69+1779.09+1779.74+1783.21C1779.76+1784.86+1778.41+1785.5+1776.92+1785.35C1776.39+1785.29+1774.8+1784.96+1775.33+1785.09C1776.75+1785.44+1785.79+1792.32+1783.62+1795.08C1781.64+1797.6+1778.37+1795.52+1776.16+1794.51C1774.95+1793.95+1771.99+1791.54+1772.57+1792.74C1773.38+1794.4+1779.45+1795.43+1778.98+1800.13C1778.52+1804.65+1772.7+1800.71+1772.07+1802.36C1771.31+1804.39+1780.11+1811.55+1777.26+1814.03C1775.36+1815.69+1773.17+1813.61+1771.33+1812.71C1770.77+1812.44+1769.03+1811.99+1769.65+1811.89C1778.21+1810.37+1772.3+1823.45+1772.39+1823.8C1772.74+1825.18+1779.43+1831+1777.69+1832.46C1775.77+1834.06+1774.68+1833.25+1772.6+1832.57C1772.07+1832.39+1770.66+1831.96+1770.93+1832.44C1771.81+1833.99+1777.74+1843.39+1775.61+1844.56C1773.6+1845.67+1771.17+1844.05+1769.4+1844.94C1767.53+1845.88+1778.49+1858.44+1771.55+1858.63L1770.9+1857.34C1771.25+1857.39+1767.83+1846.09+1768.6+1843.96C1769.44+1841.66+1773.56+1844.12+1774.05+1844C1774.07+1844+1769.59+1833.99+1770.11+1832.13C1770.76+1829.83+1775.34+1830.7+1775.7+1832.46C1775.85+1833.21+1775.44+1830.91+1775.04+1830.26C1773.82+1828.26+1772.07+1826.59+1771.19+1824.4C1770.91+1823.72+1770.97+1823.15+1771+1822.43C1771.09+1819.89+1773.29+1821.3+1773.08+1818.43C1772.89+1815.9+1769.65+1813.92+1769.48+1811.72C1769.29+1809.32+1775.09+1811.92+1775.29+1812.71C1775.37+1813.04+1775.26+1814+1775.44+1813.71C1777+1811.29+1771.5+1805.81+1770.91+1803.51C1769.79+1799.17+1776.23+1801.51+1776.69+1800.51C1778.17+1797.27+1772.17+1794.6+1772.48+1791.67C1772.55+1790.99+1774.24+1791.94+1774.25+1791.94C1776.32+1792.8+1778.6+1793.64+1780.8+1793.88C1781.41+1793.94+1781.34+1795.52+1781.46+1795.01C1782.18+1792.09+1776.29+1788.03+1774.99+1785.91C1773.24+1783.04+1777.39+1783.79+1777.34+1783.39C1776.86+1779.9+1771.38+1776.44+1772.46+1772.81C1773.55+1769.19+1778.76+1774.55+1778.81+1774.8C1779.14+1776.2+1777.85+1772.06+1777.15+1770.8C1776.09+1768.89+1772.79+1765.29+1773.96+1763.1C1774.72+1761.67+1777.02+1765.95+1776.95+1764.05C1776.86+1761.57+1770.83+1756.76+1771.71+1754.87C1773.21+1751.65+1777.15+1758.58+1776.75+1756.71C1776+1753.21+1770.45+1750.2+1770.54+1746.65C1770.61+1744.14+1777.13+1747.64+1777.53+1747.9C1778+1748.2+1777.89+1750.03+1778.02+1749.49C1778.96+1745.69+1767.96+1741.96+1771.02+1736.82C1772.79+1733.87+1778.05+1741.68+1778.05+1741.68C1778.15+1741.74+1778.15+1741.44+1778.13+1741.33C1777.65+1739.37+1776.5+1737.83+1775.25+1736.3C1773.12+1733.68+1769.77+1731.96+1770.08+1728.39C1770.16+1727.52+1771.71+1729.09+1772.49+1729.51C1773.14+1729.85+1777.28+1731.22+1777.54+1731.71C1777.7+1731.99+1777.31+1732.95+1777.49+1732.68C1779.31+1729.92+1769.74+1723.25+1769.93+1720.36C1770.09+1717.95+1780.94+1720.85+1779.74+1724.9C1779.47+1725.81+1778.55+1723.44+1777.93+1722.73C1777.08+1721.76+1776.14+1720.88+1775.25+1719.94C1773.73+1718.34+1767.56+1713.7+1767.73+1711.29C1767.8+1710.25+1780.1+1712.13+1778.35+1716.34C1777.91+1717.38+1777.03+1714.51+1776.42+1713.55C1773.65+1709.18+1777.82+1714.97+1774.22+1710.36C1772.66+1708.35+1767.32+1704.15+1768.31+1701.28C1768.42+1700.96+1769.58+1701.06+1769.8+1701.12C1774.68+1702.57+1785.38+1715.59+1776.55+1705.84" fill="#5e595a" stroke-linecap="butt" opacity="1" stroke-linejoin="round"/>
<path stroke="#5e595a" stroke-width="1" d="M1344.46+1752.4C1347.07+1751.99+1355.31+1751.2+1352.78+1756.2C1352.51+1756.73+1345.03+1757.57+1344.19+1758.03C1343.26+1758.53+1354.04+1758.27+1351.09+1761.85C1349.09+1764.28+1343.4+1761.55+1341.73+1764.21C1341.57+1764.48+1341.82+1764.6+1342.1+1764.39C1343.31+1763.48+1348.76+1765.96+1349.12+1767.95C1349.96+1772.56+1344.98+1769.87+1343.66+1771.52C1343.46+1771.76+1344.25+1771.27+1344.49+1771.07C1345.81+1769.96+1350.07+1774.13+1350.78+1775.27C1353.44+1779.54+1344.21+1777.09+1347.91+1778.26C1352.65+1779.77+1353.8+1784.41+1349.71+1786.43C1347.96+1787.29+1353.51+1788.22+1354.35+1789.98C1354.98+1791.28+1349.98+1793.65+1351.27+1793.01C1353.2+1792.06+1357.26+1797.31+1356.55+1799.19C1356.09+1800.38+1353.87+1801.16+1353.94+1802.23C1354.06+1804.1+1360.21+1805.58+1359.21+1808.5C1358.63+1810.2+1357.78+1809.86+1356.51+1810.42C1356.22+1810.54+1358.16+1812.07+1358.37+1812.22C1361.3+1814.4+1358.14+1815.2+1357.37+1816.8C1356.89+1817.78+1359.45+1817.68+1360.16+1818.51C1361.55+1820.13+1361.93+1822.28+1362.5+1824.25C1362.98+1825.96+1360.75+1827.02+1361.68+1829.21C1363.06+1832.5+1366.17+1834.98+1367.55+1838.34C1369.24+1842.45+1368.08+1846.62+1371.29+1850.93C1372.98+1853.21+1376.27+1856.07+1376.27+1859.11C1376.27+1861.26+1373.53+1861.27+1373.36+1862.77C1373.06+1865.49+1380.06+1867.87+1380.73+1871.03C1381.3+1873.69+1378.05+1875.28+1378.49+1878.06C1378.94+1880.81+1382.06+1882.62+1383.43+1884.88C1386.28+1889.58+1388.62+1898.96+1388.62+1898.96C1385.76+1890.54+1380.68+1887.1+1377.86+1879.12C1376.8+1876.13+1380.24+1874.06+1379.6+1871.68C1378.65+1868.11+1373.77+1867.37+1372.84+1864.12C1371.96+1861.05+1376.01+1860.7+1374.67+1858.06C1371.17+1851.16+1366.92+1847.54+1366.28+1839.75C1365.97+1835.96+1361.59+1833+1360.3+1829.54C1359.36+1827+1361.33+1825.79+1360.93+1823.79C1360.68+1822.57+1352.78+1807.1+1357.47+1808.91C1357.59+1808.95+1356.33+1806.31+1356.3+1806.27C1355.33+1804.86+1352.51+1803.86+1352.86+1801.83C1353.05+1800.74+1355.33+1799.65+1355.36+1799.19C1355.62+1795.43+1345.94+1785.2+1350.73+1785.02C1351.18+1785+1345.69+1778.89+1345.62+1778.65C1345.14+1777.1+1347.15+1775.35+1348.64+1775.97C1350.53+1776.74+1343.45+1772.95+1342.72+1771.49C1342.03+1770.1+1347.64+1771.12+1347.02+1769.7C1346.05+1767.47+1339.29+1766.05+1340.28+1763.11C1340.96+1761.07+1346.77+1759.98+1348.51+1760.02C1348.75+1760.03+1349.35+1762.24+1349.33+1762.01C1349.05+1759.55+1342.29+1761.31+1342.33+1758C1342.37+1754.47+1347.91+1754.25+1350.44+1753.98C1351.36+1753.88+1352.96+1756.47+1352.07+1756.21C1347.36+1754.85+1348.12+1754.98+1345.05+1754.86" fill="#5e595a" stroke-linecap="butt" opacity="1" stroke-linejoin="round"/>
<path d="M1730.46+1580.54C1730.1+1580.5+1730.21+1580.55+1730.68+1580.27" opacity="1" fill="#988174"/>
</g>
<use stroke-linecap="round" stroke="#000000" xlink:href="#Mask" stroke-width="1.75" fill="none" stroke-linejoin="round"/>
</g>
</g>
</svg>
