<?xml version="1.0" encoding="UTF-8" standalone="no"?> <!-- Created with Vectornator for iOS (http://vectornator.io/) --><!DOCTYPE svg PUBLIC "-//W3C//DTD SVG 1.1//EN" "http://www.w3.org/Graphics/SVG/1.1/DTD/svg11.dtd">
<svg height="100%" style="fill-rule:evenodd;clip-rule:evenodd;stroke-linecap:round;stroke-linejoin:round;" xmlns:xlink="http://www.w3.org/1999/xlink" xmlns="http://www.w3.org/2000/svg" xml:space="preserve" width="100%" xmlns:vectornator="http://vectornator.io" version="1.1" viewBox="0 0 3024 4032">
<metadata>
<vectornator:setting key="DisplayWhiteBackground" value="0"/>
<vectornator:setting key="RulersVisible" value="1"/>
<vectornator:setting key="SnapToEdges" value="0"/>
<vectornator:setting key="Units" value="Pixels"/>
<vectornator:setting key="DynamicGuides" value="0"/>
<vectornator:setting key="SnapToPoints" value="0"/>
<vectornator:setting key="SnapToGrid" value="0"/>
<vectornator:setting key="SnapToGuides" value="1"/>
<vectornator:setting key="ShowGrid" value="1"/>
<vectornator:setting key="GridSpacing" value="36"/>
</metadata>
<defs>
<path d="M705.645+1905.06C705.645+1484.42+1044.35+1143.43+1462.17+1143.43C1879.99+1143.43+2218.69+1484.42+2218.69+1905.06C2218.69+2325.7+1879.99+2666.69+1462.17+2666.69C1044.35+2666.69+705.645+2325.7+705.645+1905.06Z" id="Mask"/>
<linearGradient y1="817.908" id="LinearGradient" x1="2.57639" y2="828.656" x2="2844.14" gradientUnits="userSpaceOnUse" gradientTransform="matrix(0.756901 0 0 1.02279 352.438 1094.52)">
<stop stop-color="#000000" offset="0"/>
<stop stop-color="#3e4d8a" offset="0.663333"/>
<stop stop-color="#8e68b1" offset="1"/>
</linearGradient>
</defs>
<g id="Layer 1" vectornator:layerName="Layer 1">
<g vectornator:shadowColor="#000000" vectornator:shadowOpacity="1" vectornator:mask="#Mask" vectornator:shadowRadius="10" vectornator:shadowOffset="10" opacity="1" vectornator:shadowAngle="0.840632">
<clipPath id="ClipPath">
<use xlink:href="#Mask" fill="none" overflow="visible"/>
</clipPath>
<g clip-path="url(#ClipPath)">
<path d="M354.388+2748.3L2635.45+2748.3L2635.45+1113.84L354.388+1113.84L354.388+2748.3Z" opacity="1" fill="url(#LinearGradient)"/>
<path d="M1658.31+1823.71C1658.31+1834.33+1661.51+1845.57+1659.34+1856.37C1657.96+1863.3+1655.35+1870.29+1653.64+1877.11C1652.8+1880.46+1643.56+1917.97+1641.2+1927.4C1640.33+1930.89+1639.44+1934.39+1638.09+1937.77C1637.51+1939.21+1634.39+1951.13+1633.94+1952.6C1630.49+1964+1631.59+1961.19+1625.08+1969.87C1623.13+1972.47+1618.55+1979.39+1616.33+1981.61C1611.86+1986.08+1608.56+1991+1603.7+1994.89C1594.4+2002.33+1583.76+2010.54+1572.01+2013.48C1565.84+2015.02+1561.33+2017.67+1555.03+2020.49C1540.21+2027.13+1540+2027.75+1527.36+2030.28C1522.65+2031.22+1504.22+2034.8+1499.66+2035.94C1488.85+2038.65+1476+2033.51+1464.94+2035.72C1456.47+2037.41+1444.12+2033.29+1435.9+2032.12C1432.11+2031.58+1428.36+2029.49+1424.5+2029.01C1412.2+2027.47+1399.2+2027.27+1387.17+2024.86C1381.93+2023.81+1368.75+2014.75+1364.21+2012.93C1357.41+2010.21+1361.02+2010.17+1355.03+2005.68C1350.78+2002.5+1345.29+2000.8+1341.03+1997.38C1334.13+1991.86+1334.21+2006.83+1328.81+2000.08C1321.16+1990.52+1323.83+1970.52+1317.76+1953.43C1312.5+1938.63+1295.53+1916.04+1289.71+1901.48C1287.66+1896.37+1267.83+1855.89+1266.32+1852.34C1258.13+1833.16+1243.53+1773.98+1242.84+1766.38C1241.99+1757.04+1243.57+1687.41+1243.57+1678.03C1243.57+1647.19+1241.11+1614.53+1252.38+1585.23C1262.75+1558.27+1280.33+1541.2+1303.18+1524.06C1312.28+1517.24+1320.67+1509.12+1330.14+1502.8C1332.92+1500.95+1336.12+1499.91+1338.96+1498.14C1341.3+1496.67+1342.84+1494.42+1345.18+1492.95C1348.17+1491.08+1352.32+1488.98+1355.55+1487.77C1357.68+1486.97+1360.38+1486.97+1362.29+1485.7C1369.46+1480.91+1377.78+1477+1386.13+1475.33C1388.62+1474.83+1390.81+1472.65+1393.39+1472.22C1399.21+1471.25+1405.17+1471.5+1411.02+1470.66C1418.65+1469.57+1426.13+1466.96+1433.83+1466C1440.47+1465.17+1446.9+1464.51+1453.53+1463.4C1457.95+1462.67+1463.02+1463.4+1467.53+1463.4C1472.9+1463.4+1478.29+1462.61+1483.6+1461.85C1486.31+1461.46+1489.18+1462.24+1491.89+1461.85C1507.6+1459.6+1523.95+1458.72+1539.59+1461.85C1543.61+1462.65+1547.52+1463.64+1551.51+1464.44C1554.03+1464.94+1556.23+1467.04+1558.77+1467.55C1567.52+1469.3+1577.86+1468.41+1585.21+1474.29C1594.51+1481.73+1596.29+1494.9+1601.28+1504.88C1603.31+1508.94+1604.93+1513.21+1606.98+1517.32C1609.17+1521.7+1613.05+1526.02+1614.24+1530.8C1616.02+1537.92+1618+1544.92+1619.43+1552.05C1620.66+1558.22+1625.68+1564.14+1626.47+1570.45C1626.95+1574.35+1641.65+1615.49+1643.11+1618.91C1645.75+1625.07+1650.89+1666.84+1651.78+1670.4C1652.92+1674.95+1659.89+1710.25+1658.04+1698.43C1656.19+1686.61+1661.37+1722.87+1662.82+1735.18C1663.45+1740.48+1662.56+1764.91+1662.75+1757.27C1663+1746.88+1664.25+1768.68+1663.54+1780.48C1662.79+1792.99+1662.54+1799.77+1661.43+1806.43C1660.07+1814.56+1660.71+1822.26+1659.34+1830.45C1657.87+1839.32+1652.61+1861.27+1652.61+1852.69" opacity="1" fill="#988174"/>
<path d="M1657.36+2085.11C1657.94+2086.29+1694.75+2131.53+1694.37+2133.08C1694.07+2134.27+1689.23+2185.12+1648.9+2211.09C1585.2+2252.1+1474.42+2274.7+1468.69+2273.74C1465.27+2273.17+1331.72+2203.95+1330.83+2200.39C1328.92+2192.76+1306.19+2135.95+1311.2+2130.93C1319.67+2122.46+1331.14+2113.55+1333.61+2101.17C1334.66+2095.94+1332.07+2090.7+1332.94+2085.45C1334.12+2078.39+1334.66+2074.59+1332.94+2067.72C1332.49+2065.91+1333.06+2063.85+1332.61+2062.04C1331.76+2058.63+1332.61+2053.87+1332.61+2050.33C1332.61+2044.57+1331.89+2038.31+1330.94+2032.6C1330.7+2031.18+1329.54+2029.99+1329.26+2028.59C1328.3+2023.78+1327.1+2020.11+1327.1+2015.08C1327.1+2012.35+1326.48+2004.14+1325.56+2002.31C1323.35+1997.89+1325.15+1989.73+1323.91+1984.78C1323.2+1981.94+1322.24+1978.35+1322.24+1975.41C1322.24+1973.98+1322.24+1972.74+1322.57+1971.4C1322.63+1971.18+1322.57+1970.73+1322.57+1970.73C1322.57+1970.73+1323.06+1973.04+1323.58+1974.08C1324.41+1975.74+1325.49+1976.95+1326.59+1978.42C1328.25+1980.64+1330.45+1982.28+1332.27+1984.11C1334.14+1985.98+1335.13+1989.18+1337.29+1990.8C1339.37+1992.36+1340.49+1995+1342.31+1996.82C1343.59+1998.1+1345.36+1999.21+1346.66+2000.5C1349.21+2003.05+1352.71+2004.29+1355.69+2006.52C1358.65+2008.74+1361.17+2011.4+1364.38+2013.54C1366.14+2014.71+1369.06+2015.05+1371.07+2015.55C1373.95+2016.27+1376.51+2019.06+1379.43+2020.23C1392.04+2025.27+1405.61+2025.04+1418.9+2027.25C1425.25+2028.31+1431.47+2030.46+1437.96+2031.27C1442.96+2031.89+1448.45+2030.38+1453.34+2031.6C1455.21+2032.07+1456.83+2033.48+1458.69+2033.94C1461.78+2034.71+1465.27+2033.65+1468.39+2034.28C1472.65+2035.13+1477.08+2034.4+1481.44+2034.95C1486.11+2035.53+1491.8+2036.08+1496.49+2035.62C1505.11+2034.75+1513.71+2033.15+1522.24+2031.94C1529.55+2030.89+1536.72+2027.22+1543.64+2024.91C1563.13+2018.42+1581.66+2009.61+1598.49+1997.82C1604.4+1993.69+1609.95+1988.29+1614.55+1982.77C1615.96+1981.07+1618.25+1980.05+1619.23+1978.09C1621.74+1973.08+1624.95+1968.81+1627.93+1964.04C1628.98+1962.35+1630.7+1961.17+1631.6+1959.36C1633.14+1956.29+1632.73+1952.95+1633.28+1949.66C1634.42+1942.82+1636.97+1936.23+1638.63+1929.6C1639.33+1926.79+1642.64+1901.61+1644.26+1899.45C1646.57+1896.37+1647.32+1915.2+1647.32+1922.91" opacity="1" fill="#988174"/>
<path stroke="#3e3b39" stroke-width="1" d="M1283.79+1890.11C1294.84+1925.41+1330.26+1986.67+1357.19+2009.07C1370.11+2019.83+1452.67+2064.79+1477.32+2064.08C1492.55+2063.64+1540.21+2042.92+1568.73+2016.25C1614.62+1973.36+1651.08+1897.17+1651.34+1896.32C1657.83+1875.17+1660.64+1858.25+1659.58+1847.04" fill="#988174" stroke-linecap="butt" opacity="1" stroke-linejoin="round"/>
<path stroke="#915b58" stroke-width="5" d="M1699.77+1710.52C1704.4+1706.75+1706.54+1695.03+1711.33+1699.82C1713.38+1701.87+1713.25+1715.6+1713.21+1722.63C1713.18+1729.66+1710.46+1756.89+1705.89+1759.94C1701.14+1763.1+1702.96+1758.04+1701.69+1750.6C1700.12+1741.44+1700.07+1743.48+1699.42+1738.07C1699.12+1735.61+1698.12+1732.02+1697.95+1730.14C1697.11+1720.66+1693.41+1715.69+1699.77+1710.52Z" fill="#915b58" stroke-linecap="butt" opacity="1" stroke-linejoin="round"/>
<path stroke="#9b7773" stroke-width="5" d="M1674.82+1716.89C1674.28+1709.33+1675.96+1700.02+1680.97+1696.89C1690.43+1691+1707.21+1688.06+1713.43+1696.36C1719.76+1704.8+1710.12+1765.3+1707.46+1780.57C1706.7+1784.95+1702.31+1800.39+1698.69+1810.58C1696.4+1817.05+1691.65+1823.24+1687.55+1832.97C1683.44+1842.7+1664.59+1851.17+1664.11+1840.5C1663.77+1832.8+1667.73+1816.8+1669.06+1806.96C1670.66+1795.24+1676.88+1791.13+1681.55+1789.53C1689.63+1786.75+1693.51+1791.68+1704.03+1774.86C1709.59+1765.96+1725.04+1691.8+1709.42+1694.92C1708.1+1695.18+1702.71+1695.72+1701.36+1700.74C1699.13+1709.02+1698.4+1704.3+1697.01+1706.65C1695.47+1709.26+1691.96+1713.02+1693.29+1723.29C1693.93+1728.25+1689.43+1742.91+1678.41+1739.25C1667.39+1735.6+1676.06+1714.41+1674.51+1715.96" fill="#9b7773" stroke-linecap="butt" opacity="1" stroke-linejoin="round"/>
<path stroke="#9b7773" stroke-width="5" d="M1693.72+1723.63C1693.72+1737.42+1696.18+1748.96+1699.43+1761.97C1700.64+1766.81+1699.65+1781.93+1699.65+1776.94" fill="#774f51" stroke-linecap="butt" opacity="1" stroke-linejoin="round"/>
<path stroke="#9b7773" stroke-width="5" d="M1708.26+1760.68C1702.12+1776.29+1698.73+1782.42+1701.37+1777.15" fill="#774f51" stroke-linecap="butt" opacity="1" stroke-linejoin="round"/>
<path stroke="#9b7773" stroke-width="5" d="M1675.33+1747.04C1675.33+1729.32+1729.34+1785.56+1678.97+1791.86C1671.14+1792.84+1681.54+1775.03+1681.02+1768.25C1680.74+1764.61+1671.09+1745.86+1677.48+1745.86" fill="#774f51" stroke-linecap="butt" opacity="1" stroke-linejoin="round"/>
<path stroke="#9b7773" stroke-width="5" d="M1681.48+1734.24C1681.21+1734.91+1682+1737.03+1681.68+1736.39" fill="#9b7773" stroke-linecap="butt" opacity="1" stroke-linejoin="round"/>
<path stroke="#9b7773" stroke-width="5" d="M1681.68+1735.26C1680.62+1739.5+1686.01+1745.28+1688.85+1747.81C1702.18+1759.66+1690.39+1740.98+1690.39+1730.86" fill="#9b7773" stroke-linecap="butt" opacity="1" stroke-linejoin="round"/>
<path stroke="#9b7773" stroke-width="5" d="M1674.05+1735.06C1677.98+1750.76+1672.29+1767.44+1674.26+1783.2C1674.63+1786.23+1675.89+1792.22+1675.89+1792.22C1675.89+1792.22+1673.95+1778.49+1677.74+1758.46" fill="#9b7773" stroke-linecap="butt" opacity="1" stroke-linejoin="round"/>
<path stroke="#9b7773" stroke-width="1.99" d="M1710.97+1761.01C1713.89+1762.24+1706.23+1771.92+1704.12+1773.13C1701.65+1774.55+1697.89+1761.64+1698.07+1760.7C1698.8+1757.05+1698.54+1760.3+1701.61+1761.78C1703.85+1762.86+1710.44+1759.54+1710.04+1755.89" fill="#9b7773" stroke-linecap="butt" opacity="1" stroke-linejoin="round"/>
<path stroke="#9b7773" stroke-width="5" d="M1203.95+1754.05C1196.85+1754.96+1219.97+1740.35+1223.95+1746.29C1230.89+1756.63+1230.98+1793.71+1235.1+1781.95" fill="#9b7773" stroke-linecap="butt" opacity="1" stroke-linejoin="round"/>
<path stroke="#9b7773" stroke-width="5" d="M1227.29+1766.4C1229.16+1781.09+1226.5+1810.64+1229.7+1816.51C1234.35+1825.04+1239.3+1807.16+1236.97+1790.6C1234.63+1774.04+1230.2+1773.62+1228.67+1761.62C1228.43+1759.72+1224.33+1744.91+1222.93+1746.72" fill="#9b7773" stroke-linecap="butt" opacity="1" stroke-linejoin="round"/>
<path stroke="#9b7773" stroke-width="5" d="M1245.65+1820.3C1240.4+1820.52+1231.88+1825.82+1232.5+1831.87C1233.12+1837.92+1249.68+1871.64+1252.95+1876.57C1257.09+1882.82+1274.39+1892.07+1278.06+1888.38C1281.73+1884.7+1260.07+1859.11+1258.43+1852.27C1255.62+1840.58+1249.74+1820.14+1245.65+1820.3Z" fill="#9b7773" stroke-linecap="butt" opacity="1" stroke-linejoin="round"/>
<path stroke="#9b7773" stroke-width="5" d="M1241.68+1801.16C1244.48+1806.76+1256.54+1851.41+1242.47+1847.9C1240.04+1847.29+1239.44+1842.42+1238.02+1840.13C1224.29+1818.09+1250.2+1730.55+1207.93+1747.46C1201.96+1749.84+1213.94+1783.14+1216.96+1790.71C1218.93+1795.63+1244.13+1832.37+1238.83+1832.37C1212.4+1832.37+1184.06+1728.83+1212.69+1736.21C1233.6+1741.59+1232.97+1764.37+1232.97+1767.89" fill="#9b7773" stroke-linecap="butt" opacity="1" stroke-linejoin="round"/>
<path stroke="#915b58" stroke-width="5" d="M1205.41+1755.08C1204.79+1766.72+1214.13+1780.73+1219.1+1793.37C1221.19+1798.68+1219.91+1812.57+1224.75+1809.54C1233.3+1804.17+1226.23+1769.21+1220.32+1764.34C1215.98+1760.77+1206.03+1743.44+1205.41+1755.08Z" fill="#915b58" stroke-linecap="butt" opacity="1" stroke-linejoin="round"/>
<path d="M1723.79+1851.36C1722.93+1851.47+1723.25+1851.32+1722.77+1851.64" opacity="1" fill="#000000"/>
<path d="M1673.62+1849.57C1673.62+1848.06+1674.95+1846.83+1676.59+1846.83C1678.23+1846.83+1679.55+1848.06+1679.55+1849.57C1679.55+1851.08+1678.23+1852.3+1676.59+1852.3C1674.95+1852.3+1673.62+1851.08+1673.62+1849.57Z" opacity="1" fill="#000000"/>
<path stroke="#000000" stroke-width="1" d="M1675.81+1850.36C1675.81+1850.36+1677.06+1849.94+1676.88+1844.74C1676.8+1842.55+1675.45+1840.63+1673.76+1839.9" fill="none" stroke-linecap="round" opacity="1" stroke-linejoin="round"/>
<path d="M1316.81+2124.05C1289.2+2170.35+1400.27+2210.41+1431.34+2220.01C1449.92+2225.75+1473.98+2230.98+1497.89+2232.85C1508.15+2233.65+1579.02+2218.61+1606.71+2204.09C1624.14+2194.95+1664.21+2178.69+1673.15+2150.57C1674.41+2146.59+1675.05+2142.38+1674.92+2137.91C1674.63+2128.25+1661.43+2092.41+1658.17+2085.89C1654.9+2079.36+1658.44+2081.58+1660.58+2084.68C1668.38+2095.93+1706.25+2088.3+1717.84+2143.75C1724.27+2174.5+1686.62+2224.85+1667.83+2236.22C1623.53+2263.04+1528.52+2283.69+1476.27+2282.17C1378.83+2279.34+1293.57+2214.67+1275.8+2191.52C1252.22+2160.8+1270.86+2136.51+1314.37+2125.51" opacity="1" fill="#2b343d"/>
<path d="M1295.78+2133.54C1279.83+2133.53+1206.85+2189.66+1193.28+2194.11C1076.79+2232.28+986.066+2291.87+921.856+2388.34C881.4+2449.13+864.46+2540.95+847.854+2565.78C831.247+2590.6+780.991+2731.31+789.73+2737.99C843.105+2778.81+1068.32+2861.76+1129.98+2841.21C1199.89+2817.91+1128.79+2620.13+1128.79+2620.13C1128.79+2620.13+1132.34+2655.56+1132.34+2673.33C1132.34+2709.06+1085.85+2857.94+1102.24+2883.01C1118.63+2908.08+1135.22+3036.73+1139.43+3064.66C1143.73+3093.1+1963.07+2997.52+2014.91+3018.26" opacity="1" fill="#2b343d"/>
<path d="M1698.13+2104.05C1700.96+2101.99+1765.45+2117.49+1776.56+2118.37C1910.87+2129.08+1979.39+2143.27+2029.37+2197.31C2079.36+2251.35+2120.65+2331.22+2151.74+2421.82C2157.86+2439.67+2200.17+2563.4+2191.8+2582.01C2189.61+2586.87+2187.5+2583.39+2178.26+2590.19C2177.2+2590.97+2142.05+2607.38+2146.68+2560.3C2150.65+2519.84+2154.63+2546.43+2166.7+2599.5C2176.86+2644.18+2056.25+2696.9+2018.88+2680.1C1964.32+2655.56+2012.82+2500.72+2012.82+2500.72C2012.82+2500.72+2008.89+2543.52+2009.39+2564.96C2011.9+2671.61+1998.77+2765.79+2003.45+2873.67C2007.16+2959.27+2018.19+2938.42+2023.01+2969.27C2027.83+3000.13+2041.75+3040.15+2003.12+3013.81C1964.49+2987.48+1916.5+2898.43+1885.73+2867.68C1739.2+2721.22+1529.05+2429.08+1401.21+2264.15C1372.56+2227.17+1656.73+2285.16+1691.83+2156.39" opacity="1" fill="#2b343d"/>
<path stroke="#6e6865" stroke-width="1" d="M841.586+2771.02C872.468+2777.51+846.433+2930.82+840.993+2989.48C835.553+3048.15+836.256+3180.96+841.543+3224.18C855.707+3339.97+1105.02+3750.05+1215.29+3773.83C1451.9+3824.85+1190.4+3466.73+1151.88+3386.23C1120.08+3319.77+1069.59+3247.42+1052.92+3180.98C1042.95+3141.23+1056.17+3107.98+1063.81+3070.35C1078.56+2997.62+1111.45+2865.86+1102.73+2849.52C1095.58+2836.11+820.585+2766.61+841.586+2771.02Z" fill="#988174" stroke-linecap="butt" opacity="1" stroke-linejoin="round"/>
<path stroke="#6e6865" stroke-width="1" d="M2009.99+2676.59C2005.29+2718.4+2003.19+2787.31+2001.69+2816.33C2000.98+2830.03+2011.18+2860.82+2018.95+2905.94C2026.72+2951.07+2029.27+2974.58+2029.89+2988.63C2031.34+3021.39+2040.32+3109.93+2042.51+3166.81C2044.71+3223.7+2054.21+3243.92+2064.26+3304.21C2072.31+3352.51+2080.44+3535.34+2174.32+3472.75C2256.76+3417.8+2260.19+3259.85+2247.3+3131.01C2237.73+3035.33+2219.16+2955.7+2217.26+2946.2C2212.79+2923.89+2207.94+2903.94+2204.67+2884.34C2201.3+2864.14+2181.15+2680.29+2172.29+2654.35C2163.44+2628.41+2169.68+2602.04+2161.67+2617.18C2145.75+2647.29+2135.47+2650.49+2108.57+2663.31C2073.05+2680.24+2071.4+2680.39+2049.49+2682.57C2026.11+2684.89+2012.13+2681.15+2012.31+2681.24" fill="#988174" stroke-linecap="butt" opacity="1" stroke-linejoin="round"/>
<path stroke="#5e595a" stroke-width="1" d="M1695.96+1684.98C1699.29+1665.89+1687.86+1618.78+1680.83+1565.93C1673.8+1513.08+1648.52+1448.65+1607.53+1407.67C1463.05+1263.18+1183.83+1369.23+1145.58+1560.47C1142.26+1577.05+1202.36+1629.75+1195.21+1674.93C1192.89+1689.62+1195.07+1711.69+1203.65+1723.84C1205.59+1726.58+1212.01+1734.72+1214.07+1735.48C1225.29+1739.58+1224.56+1743.68+1228.04+1746.76C1229.95+1748.45+1241.85+1811.47+1247.75+1821.31C1253.65+1831.14+1261.35+1860.56+1261.86+1860.34C1262.11+1860.23+1273.94+1885.62+1276.71+1890.42C1278.68+1893.85+1282.06+1891.34+1282.33+1890.81C1284.14+1887.25+1269.36+1857.31+1266.46+1852.08C1263.17+1846.13+1252.38+1810.07+1250.23+1801.1C1248.14+1792.35+1243.64+1772.95+1242.69+1763.44C1241.73+1753.74+1243.42+1740.36+1243.42+1739.61C1243.3+1725.01+1233.29+1589.46+1289.6+1535.94C1325.38+1501.94+1374.98+1477.65+1394.19+1473.81C1406.98+1471.25+1439.06+1466.49+1462.18+1464.4C1485.29+1462.31+1528.17+1459.94+1539.55+1462C1605.8+1473.98+1603.13+1524.7+1631.58+1595.84C1636.22+1607.43+1651.33+1658.54+1654.35+1682.79C1655.76+1694.1+1662.15+1720.42+1662.39+1737.41C1662.44+1740.44+1664.48+1764.55+1663.72+1776.47C1663.03+1787.1+1660.96+1800.66+1660.11+1816.33C1659.91+1819.96+1658.62+1839.9+1658.79+1844.39C1658.96+1848.87+1662.24+1844.91+1662.45+1844.57C1662.61+1844.32+1661.71+1838.06+1661.99+1836.24C1662.27+1834.43+1664.1+1820.1+1664.76+1816.11C1665.86+1809.37+1666.99+1802.77+1668.03+1800.38C1669.55+1796.9+1671.34+1793.82+1672.23+1793.17C1673.11+1792.51+1672.76+1790.04+1672.55+1788.84C1670.02+1774.64+1671.46+1774.41+1671.67+1767.73C1671.87+1761.05+1673.06+1742.94+1673.32+1734.01C1673.63+1723.03+1672.5+1711.09+1672.52+1707.65C1672.57+1701.42+1677.86+1692.13+1695.31+1688.49" fill="#5e5249" stroke-linecap="butt" opacity="1" stroke-linejoin="round"/>
<path d="M1479.76+1733.19C1470.98+1714.98+1469.21+1689.59+1485.3+1672.46C1501.39+1655.33+1535.87+1645.72+1554.75+1644.65C1579.88+1643.23+1593.08+1647.14+1604.9+1664.04C1610.42+1671.93+1618.51+1681.61+1618.22+1694.58C1617.89+1709.41+1615.54+1729.88+1605.89+1742.38C1596.24+1754.88+1581.87+1769.71+1557.54+1770.73C1533.2+1771.74+1515.6+1766.35+1508.32+1761.34C1498.69+1754.7+1483.57+1741.1+1479.76+1733.19Z" fill-opacity="0.434298" fill="#ffffff" opacity="1"/>
<path d="M1472.54+1675.38C1473.58+1674.8+1443.7+1674.85+1436.15+1675.19C1428.59+1675.52+1410.82+1682.7+1412.47+1683.37C1421.03+1686.84+1419.62+1696.53+1422.79+1704.69C1425.96+1712.84+1424.74+1716.3+1426.75+1712.6C1433.71+1699.76+1433.73+1697.62+1443.13+1696.68C1459.52+1695.03+1460.3+1709.84+1461.85+1704.56C1464.92+1694.07+1460.53+1682.09+1472.54+1675.38Z" opacity="1" fill="#2c2b32"/>
<path d="M1274.42+1751.17C1273.01+1745.96+1270.95+1738.71+1269.57+1734.37C1263.49+1715.16+1265.21+1706.07+1279.66+1688.52C1297.37+1667.01+1343.24+1663.64+1362.03+1665.73C1380.82+1667.82+1397.77+1675.74+1409.59+1692.64C1421.41+1709.55+1421.62+1717.28+1410.29+1744.14C1397.76+1773.84+1367.12+1791.99+1343.47+1791.47C1319.83+1790.95+1282.07+1779.48+1274.42+1751.17Z" fill-opacity="0.434298" fill="#ffffff" opacity="1"/>
<path d="M1673.72+1665.09C1663.63+1656.84+1642.65+1647.36+1634.96+1644.42C1632.84+1643.61+1630.54+1643.71+1627.59+1644.66C1624.01+1645.82+1620+1645.3+1617.03+1644.47C1582.27+1634.76+1509.21+1642.5+1485.86+1658.31C1481.91+1660.99+1473.12+1665.77+1469.29+1674.16C1468.48+1675.94+1457.95+1695.6+1462.41+1709.84C1466.87+1724.08+1473.49+1735.17+1480.93+1744.34C1489.07+1754.38+1493.6+1757.56+1496.53+1760.25C1514.66+1776.93+1543.56+1774.16+1552.35+1774.18C1569.45+1774.23+1587.86+1763.94+1593.15+1759.74C1605.64+1749.82+1617.24+1733.66+1620.03+1716.24C1622.95+1697.97+1619.58+1662.5+1617.58+1655.88C1616.32+1651.7+1615.56+1668.26+1615.17+1682.87C1614.94+1691.41+1614.83+1699.29+1614.84+1701.96C1614.85+1709.19+1612.82+1722.2+1605.73+1734.49C1600.62+1743.36+1590.15+1752.33+1582.22+1758.53C1571.39+1767.01+1534.82+1769.26+1516.95+1762.61C1499.08+1755.95+1487.54+1736.55+1482.02+1730.75C1469.61+1717.71+1472.34+1680.29+1491.75+1667.36C1499.27+1662.35+1518.47+1652.91+1539.78+1649.98C1559.98+1647.2+1582.29+1650.74+1590.53+1652.98C1595.34+1654.29+1598.72+1656.19+1603.6+1661.36C1605.95+1663.85+1615.75+1680.73+1615.3+1688.66C1613.26+1723.99+1618.61+1694.22+1618.98+1695.78C1620.86+1703.61+1621.21+1670.47+1628.55+1666.79C1640.02+1661.03+1662.16+1677.89+1673.35+1686.98" opacity="1" fill="#2c2b32"/>
<path d="M1414.61+1683.21C1439.79+1723.19+1418.06+1764.3+1382.61+1783.71C1367.48+1792+1357.94+1795.34+1337.96+1795.74C1317.98+1796.15+1310.24+1789.3+1302.69+1785.35C1291.26+1779.36+1282.99+1771.39+1272.72+1752.93C1255.67+1722.26+1271.34+1713.01+1252.15+1703.94C1251.69+1703.72+1250.09+1709.5+1242.95+1725C1241.24+1728.72+1240.37+1744.7+1237.25+1744.37C1229.7+1743.55+1224.96+1744.48+1223.87+1739.24C1220.82+1724.57+1222.77+1733.77+1241.53+1689.73C1243.01+1686.25+1261.49+1683.04+1264.16+1681.57C1281.81+1671.83+1377.13+1645.27+1406.55+1673.06C1424.2+1689.73+1425.77+1712.68+1401.57+1685.24C1395.01+1677.81+1369.1+1669.94+1359.37+1667.71C1337.08+1662.6+1312.28+1673.12+1300.65+1678.11C1289.21+1683.02+1270.49+1706.78+1271.71+1726.1C1272.16+1733.2+1272.92+1744.83+1281.53+1756.23C1294.74+1773.69+1319.17+1784.46+1334.09+1787.59C1350.31+1790.99+1368.2+1785.88+1385.67+1773.32C1408.91+1756.6+1429.09+1716.88+1403+1685.04" opacity="1" fill="#2c2b32"/>
<path stroke="#42373a" stroke-width="1" d="M1469.23+1659.03C1475.99+1649.9+1482.45+1637.67+1491.16+1630.06L1491.49+1630.32C1491.64+1630.71+1479.52+1647.72+1478.24+1649.41C1475.63+1652.86+1472.95+1656.27+1470.31+1659.69" fill="#42373a" stroke-linecap="butt" opacity="1" stroke-linejoin="round"/>
<path stroke="#42373a" stroke-width="1" d="M1469.35+1660.79C1474.3+1654.49+1490.15+1632.88+1498.91+1633.11L1498.97+1633.36C1490.38+1633.61+1474.74+1654.75+1469.67+1660.98" fill="#42373a" stroke-linecap="butt" opacity="1" stroke-linejoin="round"/>
<path stroke="#42373a" stroke-width="1" d="M1478.76+1646.07C1487.8+1638.03+1493.2+1631.15+1504.73+1629.69L1504.81+1630.18C1493.43+1631.59+1488+1638.39+1479.03+1646.28" fill="#42373a" stroke-linecap="butt" opacity="1" stroke-linejoin="round"/>
<path stroke="#42373a" stroke-width="1" d="M1466.14+1660.3C1480.53+1644.48+1496.99+1628.95+1518.9+1625.55L1519.06+1626.21C1497.84+1629.99+1480.21+1644.82+1466.29+1660.45" fill="#42373a" stroke-linecap="butt" opacity="1" stroke-linejoin="round"/>
<path stroke="#42373a" stroke-width="1" d="M1484.14+1653.13C1489.77+1649.39+1494.65+1643.84+1501.21+1642.2L1501.74+1643.04C1495.23+1644.67+1490.39+1650.2+1484.82+1653.93" fill="#42373a" stroke-linecap="butt" opacity="1" stroke-linejoin="round"/>
<path stroke="#42373a" stroke-width="1" d="M1482.68+1654.31C1491.96+1647.63+1500.68+1643.18+1511.25+1639.07L1511.49+1639.58C1502.1+1645.38+1492.34+1647.92+1483.23+1654.78" fill="#42373a" stroke-linecap="butt" opacity="1" stroke-linejoin="round"/>
<path stroke="#42373a" stroke-width="1" d="M1479.51+1648.61C1486.31+1642.75+1494.92+1633.56+1504.06+1630.76L1504.47+1631.65C1495.99+1634.74+1486.84+1644+1480.31+1649.32" fill="#42373a" stroke-linecap="butt" opacity="1" stroke-linejoin="round"/>
<path stroke="#42373a" stroke-width="1" d="M1474.84+1649.79C1483.54+1643.15+1498.2+1630.45+1510.25+1629.87L1510.46+1630.51C1499.77+1638.16+1486.78+1642.86+1475.85+1650.67" fill="#42373a" stroke-linecap="butt" opacity="1" stroke-linejoin="round"/>
<path stroke="#42373a" stroke-width="1" d="M1483.59+1648.54C1488.66+1645.43+1513+1631.91+1519.95+1635.07L1520.03+1635.97C1515.36+1639.19+1504.9+1640.22+1499.6+1641.89C1492.34+1644.17+1493.22+1644.46+1484.35+1649.39" fill="#42373a" stroke-linecap="butt" opacity="1" stroke-linejoin="round"/>
<path stroke="#42373a" stroke-width="1" d="M1499.35+1645.49C1508.33+1641.42+1517.28+1637.5+1526.6+1634.34L1527.09+1635.68C1517.83+1638.72+1508.59+1642.19+1499.54+1645.84" fill="#42373a" stroke-linecap="butt" opacity="1" stroke-linejoin="round"/>
<path stroke="#42373a" stroke-width="1" d="M1512.78+1643.85C1515.91+1642.76+1530.17+1635.57+1533.94+1639.35L1533.94+1640.31C1532.28+1641.98+1515.73+1643.74+1513+1644.43" fill="#42373a" stroke-linecap="butt" opacity="1" stroke-linejoin="round"/>
<path stroke="#42373a" stroke-width="1" d="M1513.54+1646.11C1518.6+1643.95+1533.16+1637.32+1540.19+1638.96L1540.38+1640.19C1531.66+1642.95+1522.48+1643.91+1513.77+1646.74" fill="#42373a" stroke-linecap="butt" opacity="1" stroke-linejoin="round"/>
<path stroke="#42373a" stroke-width="1" d="M1515.32+1645.16C1518.21+1643.94+1527.33+1638.78+1532.36+1638.89L1532.48+1639.76C1526.5+1639.94+1521.16+1643.63+1515.53+1645.67" fill="#42373a" stroke-linecap="butt" opacity="1" stroke-linejoin="round"/>
<path stroke="#42373a" stroke-width="1" d="M1497.93+1650.43C1505.05+1645.9+1513.13+1641.84+1519.65+1636.4L1519.83+1636.66C1513.31+1642.1+1505.42+1646.29+1498.42+1651.05" fill="#42373a" stroke-linecap="butt" opacity="1" stroke-linejoin="round"/>
<path stroke="#42373a" stroke-width="1" d="M1509.53+1634.84C1515.63+1632.91+1531.08+1625.56+1538.9+1628.76L1538.63+1630.61C1535.83+1628.78+1525.57+1631.66+1523+1632.2C1518.54+1633.13+1514.1+1634.19+1509.66+1635.19" fill="#42373a" stroke-linecap="butt" opacity="1" stroke-linejoin="round"/>
<path stroke="#42373a" stroke-width="1" d="M1516.03+1632.71C1528.24+1630.2+1548.81+1622.76+1561.49+1627.91L1561.19+1629.43C1548.15+1626.5+1528.72+1631.5+1516.35+1633.76" fill="#42373a" stroke-linecap="butt" opacity="1" stroke-linejoin="round"/>
<path stroke="#42373a" stroke-width="1" d="M1521.22+1631.13C1535.93+1630.28+1551.9+1626.92+1565.95+1633.27L1565.36+1635.23C1551.32+1630.39+1535.71+1632.63+1521.3+1631.79" fill="#42373a" stroke-linecap="butt" opacity="1" stroke-linejoin="round"/>
<path stroke="#42373a" stroke-width="1" d="M1510.81+1627C1519.45+1625.53+1528.07+1623.02+1536.82+1623.32C1538.59+1623.38+1546.04+1623.13+1546.01+1626.24L1545.72+1626.53C1545.68+1624.9+1533.79+1625.8+1532.9+1625.9C1525.72+1626.72+1518.58+1627.84+1511.42+1628.81" fill="#42373a" stroke-linecap="butt" opacity="1" stroke-linejoin="round"/>
<path stroke="#42373a" stroke-width="1" d="M1512.7+1631.44C1526.4+1627.01+1542.95+1628.43+1557.11+1629.54C1558.63+1629.66+1571.3+1631.17+1567.81+1634.06L1567.56+1633.93C1569.66+1633.76+1563.58+1632.37+1561.48+1632.21C1558.21+1631.96+1554.92+1631.84+1551.64+1631.59C1539.06+1630.63+1525.47+1629.44+1513.08+1632.49" fill="#42373a" stroke-linecap="butt" opacity="1" stroke-linejoin="round"/>
<path stroke="#42373a" stroke-width="1" d="M1552.46+1634.53C1559.79+1635.28+1567.12+1636.05+1574.43+1636.99C1575.61+1637.14+1585.23+1638.88+1578.39+1639.08L1578.28+1638.56C1579.13+1638.29+1581.5+1638.52+1580.87+1639.15C1580.44+1639.58+1577.3+1639.28+1577.2+1639.28C1569.09+1639.01+1560.26+1636.81+1552.46+1635.49" fill="#42373a" stroke-linecap="butt" opacity="1" stroke-linejoin="round"/>
<path stroke="#42373a" stroke-width="1" d="M1555.95+1636.82C1563.88+1636.45+1573.42+1634.64+1581.22+1637.78L1581.03+1638.84C1575.69+1640.65+1560.02+1637.96+1556.08+1637.77" fill="#42373a" stroke-linecap="butt" opacity="1" stroke-linejoin="round"/>
<path stroke="#42373a" stroke-width="1" d="M1552.68+1637.5C1561.88+1637.01+1571.12+1636.48+1580.31+1635.97C1586.27+1635.63+1577.85+1638.84+1574.29+1638.7L1574.27+1638.43C1593.04+1637.68+1569.85+1638.36+1564.93+1638.24C1560.87+1638.14+1556.81+1638.15+1552.75+1638.1" fill="#42373a" stroke-linecap="butt" opacity="1" stroke-linejoin="round"/>
<path stroke="#42373a" stroke-width="1" d="M1545.9+1635.84C1555.34+1632.13+1566.54+1631.57+1576.56+1633.01L1576.56+1633.47C1566.43+1634.92+1556.39+1633.98+1546.34+1636.72" fill="#42373a" stroke-linecap="butt" opacity="1" stroke-linejoin="round"/>
<path stroke="#42373a" stroke-width="1" d="M1541.13+1634.49C1546.15+1633.73+1551.13+1632.72+1556.17+1632.08C1559.09+1631.7+1585.06+1629.86+1584.55+1635.45L1584.3+1635.59C1583.2+1631.63+1559.29+1633.04+1556.37+1633.38C1551.96+1633.89+1547.59+1634.67+1543.2+1635.3C1542.63+1635.39+1542.05+1635.46+1541.47+1635.53" fill="#42373a" stroke-linecap="butt" opacity="1" stroke-linejoin="round"/>
<path stroke="#42373a" stroke-width="1" d="M1563.33+1633.65C1573.58+1633.26+1575.55+1632.72+1583.93+1633.47C1586.36+1633.68+1595.63+1637.11+1588.29+1638.07L1588.17+1637.53C1594.01+1635.17+1579.21+1634.44+1577.6+1634.39C1572.87+1634.23+1568.14+1634.36+1563.41+1634.34" fill="#42373a" stroke-linecap="butt" opacity="1" stroke-linejoin="round"/>
<path stroke="#42373a" stroke-width="1" d="M1567.94+1633.39C1574.04+1633.44+1583.87+1632.34+1584.15+1635.79L1583.68+1636.26C1583.97+1635.43+1578.82+1635.1+1578.29+1635.02C1574.84+1634.56+1571.39+1634.07+1567.94+1633.59" fill="#42373a" stroke-linecap="butt" opacity="1" stroke-linejoin="round"/>
<path stroke="#42373a" stroke-width="1" d="M1549.92+1634.22C1558.54+1633.24+1566.86+1632.39+1575.44+1634.01C1577.98+1634.49+1585.34+1637.09+1580.36+1639.78L1579.87+1639.37C1582.75+1639.26+1579.4+1637.42+1578.39+1637.01C1575.26+1635.76+1572+1635.44+1568.68+1634.86C1562.48+1633.76+1556.18+1634.1+1549.93+1634.28" fill="#42373a" stroke-linecap="butt" opacity="1" stroke-linejoin="round"/>
<path stroke="#42373a" stroke-width="1" d="M1564.85+1636.2C1570.66+1634.99+1576.72+1635.49+1582.65+1635.67C1584.43+1635.73+1591.75+1636.69+1591.76+1639.6L1591.29+1640.07C1591.33+1638.69+1583.08+1637.43+1582.65+1637.39C1576.76+1636.97+1570.82+1636.4+1564.93+1636.86" fill="#42373a" stroke-linecap="butt" opacity="1" stroke-linejoin="round"/>
<path stroke="#42373a" stroke-width="1" d="M1579.07+1638.1C1581.28+1638.01+1600.08+1636.59+1595.63+1641.04L1595.03+1640.14C1595.78+1641.67+1582.85+1639.18+1579.13+1639.02" fill="#42373a" stroke-linecap="butt" opacity="1" stroke-linejoin="round"/>
<path stroke="#42373a" stroke-width="1" d="M1554.75+1639.16C1557.58+1638.51+1560.58+1638.33+1563.23+1637.13L1563.51+1638.47C1560.9+1639.89+1557.68+1639.56+1554.75+1640" fill="#42373a" stroke-linecap="butt" opacity="1" stroke-linejoin="round"/>
<path stroke="#42373a" stroke-width="1" d="M1544.59+1639.79C1548.4+1639.47+1552.2+1639.12+1556.01+1638.82C1570.32+1637.67+1531.21+1643.92+1528.09+1644.67L1527.62+1643.62C1533.43+1639.14+1543.9+1638.79+1550.62+1638.46C1552.39+1638.37+1557.52+1637.59+1559.17+1638.64C1559.46+1638.82+1560.07+1639.49+1560.07+1639.14C1560.07+1638.67+1556.33+1638.79+1556.01+1638.82C1552.21+1639.15+1548.41+1639.52+1544.61+1639.87" fill="#42373a" stroke-linecap="butt" opacity="1" stroke-linejoin="round"/>
<path stroke="#42373a" stroke-width="1" d="M1538.06+1638.74C1530.46+1640.51+1521.64+1644.36+1513.79+1644.57L1513.51+1643.72C1518.06+1638.89+1532.05+1638.96+1537.94+1637.88" fill="#42373a" stroke-linecap="butt" opacity="1" stroke-linejoin="round"/>
<path stroke="#42373a" stroke-width="1" d="M1523.34+1636.95C1521.71+1637.45+1486.63+1651.13+1499.95+1645.91L1499.96+1645.93C1486.65+1651.36+1521.26+1637.25+1523.24+1636.63" fill="#42373a" stroke-linecap="butt" opacity="1" stroke-linejoin="round"/>
<path stroke="#42373a" stroke-width="1" d="M1524.86+1632.81C1521.24+1633.85+1517.59+1634.79+1514.01+1635.93C1511.34+1636.77+1495.38+1643.9+1498.47+1638.93L1498.9+1639.21C1495.08+1641.38+1511.32+1635.87+1513.8+1635.11C1517.42+1634+1521.11+1633.13+1524.77+1632.14" fill="#42373a" stroke-linecap="butt" opacity="1" stroke-linejoin="round"/>
<path stroke="#42373a" stroke-width="1" d="M1502.64+1636.43C1496.42+1639.24+1512.58+1630.65+1512.9+1630.54C1516.95+1629.12+1525.79+1625.32+1530.11+1626.46L1530.17+1626.82C1522.77+1629.15+1515.43+1631.18+1508.16+1633.97C1505.98+1634.8+1496.41+1636.43+1502.34+1635.62" fill="#42373a" stroke-linecap="butt" opacity="1" stroke-linejoin="round"/>
<path stroke="#42373a" stroke-width="1" d="M1504.05+1633.22C1512.19+1631.15+1525.87+1625.88+1535.2+1627.19L1535.23+1627.62C1524.54+1629.19+1515.11+1631.49+1504.48+1634.26" fill="#42373a" stroke-linecap="butt" opacity="1" stroke-linejoin="round"/>
<path stroke="#42373a" stroke-width="1" d="M1499.56+1642.41C1510.3+1636.91+1536.17+1628.62+1548.15+1630.89L1548.15+1632.03C1532.71+1636.33+1515.15+1639.09+1499.33+1641.82" fill="#42373a" stroke-linecap="butt" opacity="1" stroke-linejoin="round"/>
<path stroke="#42373a" stroke-width="1" d="M1518.41+1641.15C1523.13+1639.98+1527.82+1638.67+1532.57+1637.62C1536.08+1636.85+1539.63+1636.33+1543.17+1635.72C1545.37+1635.35+1551.23+1633.54+1552.97+1634.87L1552.97+1636.17C1552.26+1637.22+1545.2+1637.15+1543.49+1637.34C1535.1+1638.27+1526.78+1639.78+1518.53+1641.55" fill="#42373a" stroke-linecap="butt" opacity="1" stroke-linejoin="round"/>
<path stroke="#42373a" stroke-width="1" d="M1507.19+1647.48C1505.25+1648.5+1503.09+1650+1501.05+1650.88L1500.88+1650.6C1502.97+1649.41+1504.78+1648.07+1506.92+1646.9" fill="#42373a" stroke-linecap="butt" opacity="1" stroke-linejoin="round"/>
<path stroke="#42373a" stroke-width="1" d="M1508.56+1647.38C1501.94+1650.24+1495.22+1653.05+1488.66+1656.03L1488.42+1655.59C1493.47+1650.98+1502.37+1648.37+1508.09+1645.98" fill="#42373a" stroke-linecap="butt" opacity="1" stroke-linejoin="round"/>
<path stroke="#42373a" stroke-width="1" d="M1497.09+1651.37C1492.03+1654.01+1487.52+1659.72+1481.85+1659.14L1481.53+1658.57C1487.21+1657.93+1491.62+1653.18+1496.73+1650.62" fill="#42373a" stroke-linecap="butt" opacity="1" stroke-linejoin="round"/>
<path stroke="#42373a" stroke-width="1" d="M1489.76+1652.16C1485+1655.06+1480.25+1658+1475.78+1661.33C1474.51+1662.28+1471.58+1665.46+1471.74+1663.88L1471.34+1663.47C1471.31+1663.47+1474.41+1659.78+1479.55+1656.72C1482.75+1654.82+1486.08+1653.14+1489.35+1651.34" fill="#42373a" stroke-linecap="butt" opacity="1" stroke-linejoin="round"/>
<path stroke="#42373a" stroke-width="1" d="M1477.15+1657.91C1476.65+1658.55+1469.18+1668.47+1472.86+1664.39L1473.26+1664.99C1468.52+1669.43+1474.94+1658.8+1476.59+1657.27" fill="#42373a" stroke-linecap="butt" opacity="1" stroke-linejoin="round"/>
<path stroke="#42373a" stroke-width="1" d="M1477.57+1653.47C1475.99+1655.9+1471.32+1662.33+1474.08+1661.44L1474.08+1661.85C1471.05+1662.53+1475.16+1655.44+1477.18+1653.08" fill="#42373a" stroke-linecap="butt" opacity="1" stroke-linejoin="round"/>
<path stroke="#42373a" stroke-width="1" d="M1472.84+1661.1C1476.38+1655.11+1484.47+1653.08+1490.55+1650.7L1490.58+1650.77C1484.58+1653.78+1478.33+1658.29+1472.27+1660.67" fill="#42373a" stroke-linecap="butt" opacity="1" stroke-linejoin="round"/>
<path stroke="#42373a" stroke-width="1" d="M1480.05+1658.72C1483.51+1656.66+1486.94+1654.55+1490.44+1652.56C1492.66+1651.29+1498.08+1647.77+1500.68+1647.88L1500.74+1648.01C1495.76+1648.24+1482.83+1657.52+1480.28+1658.99" fill="#42373a" stroke-linecap="butt" opacity="1" stroke-linejoin="round"/>
<path stroke="#42373a" stroke-width="1" d="M1487.71+1655.7C1496.58+1650.96+1505.16+1646.42+1514.33+1642.45L1514.49+1642.8C1505.33+1646.69+1496.67+1651.27+1487.84+1655.93" fill="#42373a" stroke-linecap="butt" opacity="1" stroke-linejoin="round"/>
<path stroke="#42373a" stroke-width="1" d="M1504.27+1646.17C1508.15+1643.95+1520.24+1639.19+1526.08+1640.46L1526.08+1641.24C1519.2+1643.89+1511.32+1643.13+1504.27+1646.17" fill="#42373a" stroke-linecap="butt" opacity="1" stroke-linejoin="round"/>
<path stroke="#42373a" stroke-width="1" d="M1508.06+1647.67C1510.76+1646.87+1517.02+1644.25+1520.93+1644.11L1521.08+1644.69C1518.37+1646.52+1508.97+1647.54+1508.08+1647.72" fill="#42373a" stroke-linecap="butt" opacity="1" stroke-linejoin="round"/>
<path stroke="#42373a" stroke-width="1" d="M1409.65+1670.88C1405.2+1667.44+1400.91+1662.93+1395.57+1660.79L1395.77+1660.28C1401.07+1659.81+1407.06+1667.37+1410.17+1670.28" fill="#42373a" stroke-linecap="butt" opacity="1" stroke-linejoin="round"/>
<path stroke="#42373a" stroke-width="1" d="M1412.57+1672.01C1408.2+1667+1400.19+1659.11+1393.61+1656.25L1393.75+1655.84C1400.55+1656.58+1409.86+1666.76+1413.43+1671.17" fill="#42373a" stroke-linecap="butt" opacity="1" stroke-linejoin="round"/>
<path stroke="#42373a" stroke-width="1" d="M1413.67+1667.62C1409.55+1663.03+1404.3+1656.98+1398.73+1653.69L1398.8+1653.58C1404.4+1654.99+1411.72+1663.12+1414.66+1666.83" fill="#42373a" stroke-linecap="butt" opacity="1" stroke-linejoin="round"/>
<path stroke="#42373a" stroke-width="1" d="M1410.08+1666.29C1404.48+1661.69+1397.83+1653.8+1391.11+1650.39L1391.31+1650.03C1394.59+1650.26+1409.29+1664.21+1410.75+1665.5" fill="#42373a" stroke-linecap="butt" opacity="1" stroke-linejoin="round"/>
<path stroke="#42373a" stroke-width="1" d="M1406.8+1671.5C1404.08+1669.25+1400.78+1664.59+1396.91+1664.03L1396.98+1663.88C1399.72+1663.21+1405.31+1669.75+1407.34+1670.87" fill="#42373a" stroke-linecap="butt" opacity="1" stroke-linejoin="round"/>
<path stroke="#42373a" stroke-width="1" d="M1412.6+1676.97C1405.78+1671+1398.22+1664+1389.56+1660.68L1389.71+1660.35C1398.2+1662.19+1406.85+1671.01+1413.2+1676.27" fill="#42373a" stroke-linecap="butt" opacity="1" stroke-linejoin="round"/>
<path stroke="#42373a" stroke-width="1" d="M1404.06+1669.51C1395.99+1664.16+1383.93+1654.43+1373.81+1653.46L1373.89+1652.74C1380.33+1651.46+1399.68+1665.29+1404.73+1668.76" fill="#42373a" stroke-linecap="butt" opacity="1" stroke-linejoin="round"/>
<path stroke="#42373a" stroke-width="1" d="M1389+1660.06C1380.67+1656.78+1371.83+1654.72+1363.01+1653.15C1362.31+1653.02+1349.76+1650.95+1355.46+1651.84L1355.17+1652.54C1354.66+1652.45+1352.4+1651.58+1353.33+1650.57C1354.84+1648.94+1362.09+1650.97+1363.44+1651.24C1372.38+1653.02+1381.12+1655.43+1389.39+1659.28" fill="#42373a" stroke-linecap="butt" opacity="1" stroke-linejoin="round"/>
<path stroke="#42373a" stroke-width="1" d="M1376.98+1657.87C1373.56+1657.1+1370.15+1656.27+1366.72+1655.57C1362.69+1654.76+1340.14+1652+1354.7+1655.33C1356.4+1655.72+1358.11+1656.07+1359.8+1656.48C1360.37+1656.62+1360.92+1656.81+1361.47+1656.98L1361.47+1656.98C1358.48+1656.09+1359.31+1656.29+1354.68+1655.44C1350.17+1654.61+1345.3+1651.32+1353.34+1652.31C1361.46+1653.31+1369.27+1655.1+1377.2+1657.12" fill="#42373a" stroke-linecap="butt" opacity="1" stroke-linejoin="round"/>
<path stroke="#42373a" stroke-width="1" d="M1372.26+1660.18C1364.85+1658.46+1357.36+1656.64+1349.72+1656.25C1348.13+1656.16+1343.47+1656.26+1341.85+1656.26C1340.93+1656.26+1340.01+1656.16+1339.1+1656.23C1338.46+1656.27+1336.64+1656.99+1337.23+1656.72C1338.38+1656.21+1339.05+1656.18+1340.31+1656.34L1340.15+1657.23C1328.62+1655.98+1347.36+1654.75+1349.9+1655.04C1357.57+1655.93+1364.9+1657.98+1372.29+1660.1" fill="#42373a" stroke-linecap="butt" opacity="1" stroke-linejoin="round"/>
<path stroke="#42373a" stroke-width="1" d="M1341.42+1656.48C1338.24+1656.67+1335.06+1656.81+1331.88+1657.04C1329.94+1657.18+1324.57+1659.17+1326.12+1658C1327.4+1657.03+1327.42+1657.36+1329.02+1657.58L1328.78+1658.54C1327.21+1658.25+1325.83+1658.61+1325.53+1656.61C1325.33+1655.27+1331.85+1655.34+1331.9+1655.34C1335.09+1655.45+1338.27+1655.71+1341.46+1655.89" fill="#42373a" stroke-linecap="butt" opacity="1" stroke-linejoin="round"/>
<path stroke="#42373a" stroke-width="1" d="M1341.64+1660.94C1333.35+1660.74+1325.45+1660.67+1317.22+1661.39C1315.95+1661.5+1306.79+1663.95+1309.22+1662.38L1308.89+1663.19C1304.83+1658.4+1328.96+1659.44+1331.35+1659.57C1334.8+1659.74+1338.24+1659.98+1341.68+1660.19" fill="#42373a" stroke-linecap="butt" opacity="1" stroke-linejoin="round"/>
<path stroke="#42373a" stroke-width="1" d="M1324.26+1663.12C1315.72+1663.64+1307.08+1664.26+1298.68+1666C1297.24+1666.3+1294.03+1666.52+1294.67+1667.84C1294.96+1668.44+1295.86+1667.29+1296.48+1667.06L1296.27+1668.06C1285.59+1664.68+1312.47+1663.16+1317.5+1662.95C1319.76+1662.86+1322.01+1662.84+1324.27+1662.79" fill="#42373a" stroke-linecap="butt" opacity="1" stroke-linejoin="round"/>
<path stroke="#42373a" stroke-width="1" d="M1310.35+1666.68C1306.4+1667.04+1302.45+1667.36+1298.53+1667.98C1296.56+1668.29+1291.41+1670.73+1292.65+1669.17L1292.03+1668.86C1291.71+1666.75+1297.31+1666.66+1298.43+1666.56C1303.63+1666.11+1303.27+1666.29+1310.35+1666.21" fill="#42373a" stroke-linecap="butt" opacity="1" stroke-linejoin="round"/>
<path stroke="#42373a" stroke-width="1" d="M1291.99+1669.16C1289.85+1669.55+1287.71+1669.88+1285.58+1670.32C1284.46+1670.55+1281.32+1671.96+1282.33+1671.41L1281.86+1671.01C1281.31+1669.44+1283.96+1669.24+1291.89+1668.17" fill="#42373a" stroke-linecap="butt" opacity="1" stroke-linejoin="round"/>
<path stroke="#42373a" stroke-width="1" d="M1285.9+1671.77C1285.06+1672.02+1277.66+1674.59+1278.69+1674.73L1278.25+1674.55C1277.22+1672.18+1284.57+1671.36+1285.85+1671.05" fill="#42373a" stroke-linecap="butt" opacity="1" stroke-linejoin="round"/>
<path stroke="#42373a" stroke-width="1" d="M1285.21+1672.89C1283.19+1673.85+1277.51+1675.78+1280.95+1674.9L1281.1+1675.48C1276.87+1677.64+1280.35+1673.55+1284.93+1671.82" fill="#42373a" stroke-linecap="butt" opacity="1" stroke-linejoin="round"/>
<path stroke="#42373a" stroke-width="1" d="M1283.8+1672.68C1281.12+1673.95+1279.67+1674.35+1277.64+1675.87C1277.46+1676.01+1276.38+1676.91+1276.88+1676.9L1276.38+1676.69C1274.48+1674.56+1280.93+1673.09+1283.58+1672" fill="#42373a" stroke-linecap="butt" opacity="1" stroke-linejoin="round"/>
<path stroke="#42373a" stroke-width="1" d="M1285.97+1670.91C1280.54+1672.44+1282.54+1671.82+1279.14+1672.9C1278.83+1673+1277.95+1673.38+1278.28+1673.37L1277.69+1673.22C1277.15+1670.4+1283.13+1671.28+1285.93+1670.65" fill="#42373a" stroke-linecap="butt" opacity="1" stroke-linejoin="round"/>
<path stroke="#42373a" stroke-width="1" d="M1289.61+1668.11C1285.45+1668.86+1284.88+1668.69+1281.92+1669.76C1281.5+1669.91+1280.01+1670.98+1281.29+1670.93L1280.35+1671.19C1278.14+1667.19+1288.82+1667.2+1289.58+1667.09" fill="#42373a" stroke-linecap="butt" opacity="1" stroke-linejoin="round"/>
<path stroke="#42373a" stroke-width="1" d="M1293.27+1668.89C1290.09+1668.77+1286.94+1668.78+1283.83+1669.5C1283.49+1669.58+1280.18+1670.44+1280.45+1671.11L1279.93+1670.86C1280.07+1666.71+1292.16+1667.95+1293.33+1667.98" fill="#42373a" stroke-linecap="butt" opacity="1" stroke-linejoin="round"/>
<path stroke="#42373a" stroke-width="1" d="M1289.62+1666.97C1294.94+1666.38+1299.82+1665.12+1304.97+1667.07L1304.83+1667.7C1299.85+1666.24+1294.83+1666.94+1289.75+1667.46" fill="#42373a" stroke-linecap="butt" opacity="1" stroke-linejoin="round"/>
<path stroke="#42373a" stroke-width="1" d="M1288.14+1665.86C1295.31+1665.64+1303.51+1665.17+1310.06+1668.78L1309.81+1669.46C1303.22+1666.56+1295.32+1666.69+1288.31+1666.54" fill="#42373a" stroke-linecap="butt" opacity="1" stroke-linejoin="round"/>
<path stroke="#42373a" stroke-width="1" d="M1285.71+1671.44C1288.39+1670.93+1295.47+1668.57+1298.68+1669.54L1298.68+1669.98C1295.13+1669.32+1288.91+1671.47+1285.86+1672.16" fill="#42373a" stroke-linecap="butt" opacity="1" stroke-linejoin="round"/>
<path stroke="#42373a" stroke-width="1" d="M1290.91+1671.51C1292.14+1671.25+1293.38+1670.98+1294.61+1670.72L1294.61+1670.72C1293.38+1670.98+1292.14+1671.25+1290.91+1671.51" fill="#42373a" stroke-linecap="butt" opacity="1" stroke-linejoin="round"/>
<path stroke="#42373a" stroke-width="1" d="M1288.66+1671.09C1285.97+1671.58+1282.68+1670.76+1280.57+1672.5L1280.55+1672.43C1282.03+1670.12+1285.84+1670.95+1288.5+1670.3" fill="#42373a" stroke-linecap="butt" opacity="1" stroke-linejoin="round"/>
<path stroke="#42373a" stroke-width="1" d="M1302.91+1667.3C1302.38+1667.27+1292.17+1666.77+1292.17+1666.77L1291.66+1666.81C1290.76+1663.52+1302.76+1665.99+1303+1666.02" fill="#42373a" stroke-linecap="butt" opacity="1" stroke-linejoin="round"/>
<path stroke="#42373a" stroke-width="1" d="M1310.8+1667.68C1307.67+1666.52+1293.3+1662.32+1289.4+1665.16L1289.08+1664.32C1293.78+1661+1306.96+1664.84+1311.02+1666.64" fill="#42373a" stroke-linecap="butt" opacity="1" stroke-linejoin="round"/>
<path stroke="#42373a" stroke-width="1" d="M1305.46+1660.56C1301.99+1659.87+1298.43+1659.72+1294.9+1659.65C1294.56+1659.65+1292.62+1660.17+1293.47+1660.29L1293.09+1660.25C1291.47+1657.32+1304.06+1659.19+1305.69+1659.54" fill="#42373a" stroke-linecap="butt" opacity="1" stroke-linejoin="round"/>
<path stroke="#42373a" stroke-width="1" d="M1306.32+1662.57C1303.49+1662.51+1300.67+1662.46+1297.85+1662.41C1296.27+1662.38+1280.98+1663.84+1287.53+1664L1287.37+1664.75C1280.31+1664.5+1288.63+1661.45+1290.61+1661.15C1295.88+1660.34+1301.15+1661.2+1306.41+1661.67" fill="#42373a" stroke-linecap="butt" opacity="1" stroke-linejoin="round"/>
<path stroke="#42373a" stroke-width="1" d="M1312.76+1663.49C1306.61+1663.17+1300.95+1663.16+1294.86+1663.39C1291.68+1663.51+1291.68+1663.65+1288.81+1663.87C1288.24+1663.91+1286.74+1664.47+1287.12+1664.05C1288.03+1663.07+1287.63+1663.19+1288.69+1663.55L1288.62+1664.01C1283.08+1663.65+1293.94+1661.71+1294.82+1661.68C1300.94+1661.5+1306.8+1661.93+1312.92+1662.48" fill="#42373a" stroke-linecap="butt" opacity="1" stroke-linejoin="round"/>
<path stroke="#42373a" stroke-width="1" d="M1320.03+1661.1C1316.57+1660.62+1313.11+1660.05+1309.64+1659.66C1307.81+1659.46+1287.15+1657.39+1294.9+1659.33L1294.8+1659.71C1294.39+1659.67+1291.1+1658.6+1292.59+1657.92C1295.13+1656.76+1298.17+1657.57+1300.97+1657.65C1307.65+1657.83+1313.5+1659.03+1320.12+1660.45" fill="#42373a" stroke-linecap="butt" opacity="1" stroke-linejoin="round"/>
<path stroke="#42373a" stroke-width="1" d="M1321.73+1660C1318.03+1659.39+1314.36+1658.65+1310.64+1658.17C1308.68+1657.92+1289.46+1655.4+1297.81+1657.75L1297.69+1658.32C1285.85+1655.79+1309.38+1656.58+1310.89+1656.82C1314.62+1657.41+1318.29+1658.28+1321.99+1659" fill="#42373a" stroke-linecap="butt" opacity="1" stroke-linejoin="round"/>
<path stroke="#42373a" stroke-width="1" d="M1327.3+1660.06C1324.01+1659.53+1320.72+1658.97+1317.41+1658.47C1315.42+1658.17+1298.61+1655.48+1303.78+1657.27L1303.7+1657.84C1294.55+1656.35+1316.08+1656.67+1317.72+1656.95C1321.06+1657.52+1324.38+1658.18+1327.7+1658.8" fill="#42373a" stroke-linecap="butt" opacity="1" stroke-linejoin="round"/>
<path stroke="#42373a" stroke-width="1" d="M1331.39+1657.97C1324.52+1657.11+1317.88+1656.2+1310.97+1656.16C1310.55+1656.16+1301.97+1657.02+1303.9+1657.12L1303.27+1657.26C1301.82+1653.85+1318.73+1655.14+1320.54+1655.36C1324.24+1655.8+1327.91+1656.44+1331.59+1656.99" fill="#42373a" stroke-linecap="butt" opacity="1" stroke-linejoin="round"/>
<path stroke="#42373a" stroke-width="1" d="M1330.05+1654.88C1324.12+1654.64+1316.85+1654.22+1310.56+1654.25C1307.43+1654.26+1307.11+1654.29+1304.35+1654.61C1303.96+1654.66+1302.83+1655.12+1303.22+1655C1305.08+1654.45+1306.54+1654.39+1308.53+1654.39L1308.54+1654.93C1300.58+1656.18+1303.21+1652.9+1310.61+1652.99C1317.15+1653.06+1323.67+1653.59+1330.19+1654.02" fill="#42373a" stroke-linecap="butt" opacity="1" stroke-linejoin="round"/>
<path stroke="#42373a" stroke-width="1" d="M1334.98+1653.28C1332.68+1653.26+1330.39+1653.14+1328.09+1653.21C1324.06+1653.34+1320.02+1653.61+1316.02+1654.11C1310.37+1654.83+1314.1+1654.2+1309.36+1655.1C1309.24+1655.12+1308.9+1655.2+1309.01+1655.16C1310.84+1654.42+1310.58+1654.74+1313.21+1654.76L1313.2+1655.08C1304.27+1655.79+1312.59+1653.41+1315.94+1653.02C1322.32+1652.27+1328.65+1652.25+1335.05+1652.32" fill="#42373a" stroke-linecap="butt" opacity="1" stroke-linejoin="round"/>
<path stroke="#42373a" stroke-width="1" d="M1337.86+1653.35C1333.3+1653.27+1328.75+1653.15+1324.19+1653.1C1319.89+1653.04+1310.83+1654.36+1314.01+1653.31L1313.93+1653.64C1310.7+1652.37+1320.75+1652.17+1324.21+1652.22C1328.8+1652.29+1333.38+1652.44+1337.97+1652.55" fill="#42373a" stroke-linecap="butt" opacity="1" stroke-linejoin="round"/>
<path stroke="#42373a" stroke-width="1" d="M1341.8+1651.51C1337.87+1651.56+1333.93+1651.56+1329.99+1651.68C1328.38+1651.73+1323.58+1652.44+1325.19+1652.28C1326.2+1652.18+1327.22+1652.01+1328.24+1652.09L1328.15+1652.6C1327.33+1652.51+1325.27+1652.89+1325.09+1651.38C1324.9+1649.75+1328.36+1650.94+1330+1650.96C1333.94+1651+1337.88+1651.16+1341.82+1651.26" fill="#42373a" stroke-linecap="butt" opacity="1" stroke-linejoin="round"/>
<path stroke="#42373a" stroke-width="1" d="M1351.12+1653.88C1345.87+1654.05+1338.96+1655.08+1333.47+1654.92L1333.34+1654.46C1338.06+1651.55+1346.71+1652.99+1351.18+1653.17" fill="#42373a" stroke-linecap="butt" opacity="1" stroke-linejoin="round"/>
<path stroke="#42373a" stroke-width="1" d="M1352.97+1654.87C1342.36+1654.19+1332.32+1654.36+1321.81+1655.46L1321.72+1655.02C1330.5+1650.28+1344.03+1652.76+1353.21+1653.64" fill="#42373a" stroke-linecap="butt" opacity="1" stroke-linejoin="round"/>
<path stroke="#42373a" stroke-width="1" d="M1341.12+1653.88C1347.93+1653.82+1358.72+1653.14+1364.03+1658.55L1363.5+1659.31C1357.44+1655.29+1348.09+1655.05+1341.17+1654.27" fill="#42373a" stroke-linecap="butt" opacity="1" stroke-linejoin="round"/>
<path stroke="#42373a" stroke-width="1" d="M1333.75+1655.8C1340+1655.64+1348.69+1656.55+1354.72+1658.89L1354.53+1659.67C1348.96+1657.33+1339.5+1656.31+1333.76+1656.04" fill="#42373a" stroke-linecap="butt" opacity="1" stroke-linejoin="round"/>
<path stroke="#42373a" stroke-width="1" d="M1335.06+1658.1C1340.27+1658.5+1345.27+1658.98+1350.42+1659.72L1350.38+1660.02C1345.22+1659.39+1340.34+1659+1335.11+1658.8" fill="#42373a" stroke-linecap="butt" opacity="1" stroke-linejoin="round"/>
<path stroke="#42373a" stroke-width="1" d="M1354.27+1660.28C1350.16+1660.29+1346.05+1660.35+1341.95+1660.46C1341.24+1660.48+1336.05+1660.37+1336.59+1660.19L1336.09+1659.77C1336.34+1657.94+1340.94+1658.85+1341.98+1658.86C1346.1+1658.91+1350.22+1659.25+1354.32+1659.59" fill="#42373a" stroke-linecap="butt" opacity="1" stroke-linejoin="round"/>
<path stroke="#42373a" stroke-width="1" d="M1352+1660.57C1345.32+1660.14+1335.6+1662.59+1329.08+1661.5L1328.97+1660.89C1335.66+1658.55+1345.53+1658.53+1352.11+1659.65" fill="#42373a" stroke-linecap="butt" opacity="1" stroke-linejoin="round"/>
<path stroke="#42373a" stroke-width="1" d="M1331.95+1662.13C1327.7+1662.31+1321.8+1660.18+1319.29+1663.6L1318.75+1663.14C1321.26+1660.23+1329.22+1661.5+1331.98+1661.55" fill="#42373a" stroke-linecap="butt" opacity="1" stroke-linejoin="round"/>
<path stroke="#42373a" stroke-width="1" d="M1328.53+1664.57C1323.93+1664.63+1319.78+1664.49+1315.25+1664.9C1314.74+1664.95+1310.77+1666.08+1311.51+1664.81L1311.22+1665.16C1309.79+1662.37+1326.87+1663.81+1327.37+1663.84C1327.75+1663.86+1328.13+1663.9+1328.5+1663.93" fill="#42373a" stroke-linecap="butt" opacity="1" stroke-linejoin="round"/>
<path stroke="#42373a" stroke-width="1" d="M1317.94+1664.66C1311.04+1664.62+1311.5+1664.45+1306.4+1664.8C1304.79+1664.91+1303.18+1665.03+1301.56+1665.08C1301.15+1665.09+1300.13+1665.49+1300.32+1665.12C1301.13+1663.59+1302.92+1664.04+1304.37+1664.02L1304.41+1664.3C1292.62+1666.09+1315.71+1663.9+1318.01+1664.01" fill="#42373a" stroke-linecap="butt" opacity="1" stroke-linejoin="round"/>
<path stroke="#42373a" stroke-width="1" d="M1311.23+1662.6C1309.02+1662.44+1298.23+1663.54+1299.44+1662.71L1299.12+1663.41C1296.03+1660.73+1307.29+1661.44+1311.33+1662.11" fill="#42373a" stroke-linecap="butt" opacity="1" stroke-linejoin="round"/>
<path stroke="#42373a" stroke-width="1" d="M1308.77+1662.96C1306.62+1662.89+1300.21+1662.77+1302.32+1663.21L1302+1662.7C1302.11+1660.43+1306.53+1662.08+1308.8+1662.14" fill="#42373a" stroke-linecap="butt" opacity="1" stroke-linejoin="round"/>
<path stroke="#42373a" stroke-width="1" d="M1353.65+1659.21C1357.65+1659.89+1363.25+1660.33+1367.23+1662.06L1367.11+1662.54C1362.75+1661.28+1357.99+1660.47+1353.6+1659.52" fill="#42373a" stroke-linecap="butt" opacity="1" stroke-linejoin="round"/>
<path stroke="#42373a" stroke-width="1" d="M1348.1+1657.51C1352.65+1658.31+1357.72+1658.81+1362.06+1660.52L1361.98+1660.89C1357.35+1659.95+1352.79+1659.01+1348.11+1658.32" fill="#42373a" stroke-linecap="butt" opacity="1" stroke-linejoin="round"/>
<path stroke="#42373a" stroke-width="1" d="M1341.27+1656.6C1345.91+1657.41+1350.13+1658.41+1354.61+1659.66L1354.48+1660.17C1350.03+1659.21+1345.72+1658.12+1341.22+1657.31" fill="#42373a" stroke-linecap="butt" opacity="1" stroke-linejoin="round"/>
<path stroke="#42373a" stroke-width="1" d="M1339.57+1657.57C1347.46+1657.86+1355.2+1659.2+1363+1659.57L1362.92+1660.18C1355.25+1660.06+1347.17+1658.73+1339.55+1658.11" fill="#42373a" stroke-linecap="butt" opacity="1" stroke-linejoin="round"/>
<path stroke="#42373a" stroke-width="1" d="M1361.07+1657.82C1362.77+1658.1+1384.32+1660.11+1382.65+1662.7L1382.12+1662.25C1383.31+1663.32+1374.49+1660.76+1373.82+1660.61C1369.43+1659.67+1365.56+1658.7+1361.04+1658.21" fill="#42373a" stroke-linecap="butt" opacity="1" stroke-linejoin="round"/>
<path stroke="#42373a" stroke-width="1" d="M1370.63+1658.49C1375+1659.45+1379.91+1660.41+1383.96+1662.41L1383.85+1662.79C1379.41+1662.65+1374.87+1660.11+1370.46+1659.29" fill="#42373a" stroke-linecap="butt" opacity="1" stroke-linejoin="round"/>
<path stroke="#42373a" stroke-width="1" d="M1379.57+1659.64C1396.76+1662.24+1371.26+1655.92+1366.9+1654.03L1367.09+1653.52C1371.3+1655.1+1397.3+1662.57+1379.5+1659.98" fill="#42373a" stroke-linecap="butt" opacity="1" stroke-linejoin="round"/>
<path stroke="#42373a" stroke-width="1" d="M1388.91+1658.72C1383.75+1656.78+1378.62+1654.89+1373.59+1652.71L1373.77+1652.27C1379+1653.56+1384.64+1655.65+1389.28+1658.12" fill="#42373a" stroke-linecap="butt" opacity="1" stroke-linejoin="round"/>
<path stroke="#42373a" stroke-width="1" d="M1397.38+1657.39C1390.85+1654.87+1384.29+1652.14+1377.64+1649.95L1377.8+1649.36C1384.75+1650.56+1391.44+1653.69+1397.9+1656.34" fill="#42373a" stroke-linecap="butt" opacity="1" stroke-linejoin="round"/>
<path stroke="#42373a" stroke-width="1" d="M1393.53+1654.71C1386.53+1651.52+1380.09+1649.33+1373.02+1646.79L1373.11+1645.97C1379.74+1645.59+1388.7+1651.19+1394.05+1653.84" fill="#42373a" stroke-linecap="butt" opacity="1" stroke-linejoin="round"/>
<path stroke="#42373a" stroke-width="1" d="M1388.42+1658.71C1380.28+1655.22+1371.85+1652.51+1363.23+1650.51C1359.53+1649.65+1357.35+1648.99+1353.89+1648.82C1353.77+1648.81+1349.74+1649.36+1350.74+1649.19L1350.38+1649.42C1349.73+1648.25+1350.81+1647.84+1351.9+1647.79C1355.89+1647.61+1359.56+1648.83+1363.4+1649.84C1371.97+1652.08+1380.38+1654.76+1388.74+1657.72" fill="#42373a" stroke-linecap="butt" opacity="1" stroke-linejoin="round"/>
<path stroke="#42373a" stroke-width="1" d="M1375.45+1656.32C1364.84+1652.96+1354+1651.55+1342.9+1650.96C1339.24+1650.77+1335.6+1650.78+1331.94+1650.67C1331.3+1650.66+1331.36+1650.71+1331.98+1650.45L1331.62+1650.14C1331.2+1649.54+1346.51+1649.79+1348.38+1650.02C1357.74+1651.17+1366.73+1652.83+1375.72+1655.64" fill="#42373a" stroke-linecap="butt" opacity="1" stroke-linejoin="round"/>
<path stroke="#42373a" stroke-width="1" d="M1365.67+1656.36C1353.27+1655.84+1340.91+1654.21+1328.46+1653.79C1325.97+1653.7+1320.38+1652.26+1323.23+1653.7L1323.1+1654.04C1318.38+1652.9+1325.63+1652.27+1326.27+1652.26C1330.69+1652.23+1335.1+1652.69+1339.51+1652.97C1348.4+1653.52+1356.91+1654.18+1365.69+1655.93" fill="#42373a" stroke-linecap="butt" opacity="1" stroke-linejoin="round"/>
<path stroke="#42373a" stroke-width="1" d="M1348.94+1657.86C1341.56+1656.52+1333.98+1655.39+1326.71+1653.44L1326.8+1652.98C1334.21+1654.66+1341.57+1655.84+1349+1657.59" fill="#42373a" stroke-linecap="butt" opacity="1" stroke-linejoin="round"/>
<path stroke="#88715b" stroke-width="1.27" d="M1214.31+1521.85C1244.5+1450.56+1319.59+1403.36+1393.26+1386.6C1436.01+1376.87+1482.43+1382.41+1513.46+1414.97L1513.27+1415.17C1422.87+1332.61+1257.69+1426.74+1214.78+1521.94" fill="#88715b" stroke-linecap="butt" opacity="1" stroke-linejoin="round"/>
<path stroke="#88715b" stroke-width="1.27" d="M1280.24+1486.16C1319.79+1443.95+1385.36+1418.32+1442.66+1418.79C1461.12+1418.94+1477.01+1428.16+1494.93+1429.94L1494.89+1430.14C1477.05+1429.12+1460.98+1419.67+1442.7+1419.46C1386.46+1418.81+1319.58+1445.12+1280.41+1486.28" fill="#88715b" stroke-linecap="butt" opacity="1" stroke-linejoin="round"/>
<path stroke="#88715b" stroke-width="1.27" d="M1508.03+1463.48C1426.71+1432.4+1314.22+1437.48+1255.23+1510.45L1254.81+1510.09C1264.91+1494.05+1282.11+1482.51+1298.11+1473.04C1361.41+1435.6+1441.89+1437.08+1509.03+1461.8" fill="#88715b" stroke-linecap="butt" opacity="1" stroke-linejoin="round"/>
<path stroke="#5e595a" stroke-width="1" d="M1500.25+1466.47C1480.89+1461.98+1458.52+1467.16+1438.88+1467.93C1366.61+1470.73+1318.59+1479.3+1259.65+1524.79C1248.39+1533.48+1205.36+1565.91+1204.39+1581.69L1203.36+1581.39C1202.57+1564.56+1246.74+1531.96+1258.38+1523.04C1318.17+1477.19+1366.26+1470.57+1438.81+1466.63C1459.03+1465.54+1480.61+1460.51+1500.64+1465.11" fill="#5e595a" stroke-linecap="butt" opacity="1" stroke-linejoin="round"/>
<path stroke="#5e595a" stroke-width="1" d="M1273.28+1547.67C1264.26+1558.39+1253.05+1566.89+1242.39+1575.88C1240.52+1577.46+1236.07+1583.06+1236.84+1580.73C1238.3+1576.28+1244.18+1572.39+1247.57+1569.59L1247.61+1569.64C1215.09+1598.59+1269.44+1550.43+1272.57+1546.85" fill="#5e595a" stroke-linecap="butt" opacity="1" stroke-linejoin="round"/>
<path stroke="#5e595a" stroke-width="1" d="M1260.79+1556.02C1256.5+1559.52+1252.33+1563.19+1247.91+1566.53C1243.44+1569.9+1230.35+1575.18+1228.8+1581.1L1228.62+1580.98C1227.87+1576.19+1244.07+1568.13+1247.27+1565.75C1251.7+1562.45+1255.9+1558.85+1260.22+1555.4" fill="#5e595a" stroke-linecap="butt" opacity="1" stroke-linejoin="round"/>
<path stroke="#5e595a" stroke-width="1" d="M1258.7+1557.89C1246.8+1567.35+1235.51+1577.51+1223.51+1586.81C1220.29+1589.31+1207.73+1603.13+1211.28+1598.28L1211.37+1598.57C1205.93+1602.56+1220.38+1588.23+1222.98+1586.2C1235.02+1576.8+1246.2+1566.87+1258.33+1557.5" fill="#5e595a" stroke-linecap="butt" opacity="1" stroke-linejoin="round"/>
<path stroke="#5e595a" stroke-width="1" d="M1243.31+1573.34C1234.88+1580.97+1225.94+1588.07+1218.07+1596.27C1217.58+1596.79+1207.82+1610.19+1208.21+1607.24L1208.47+1607.5C1206.29+1609.74+1208.49+1604.96+1217.49+1595.62C1225.38+1587.42+1234.42+1580.41+1242.93+1572.84" fill="#5e595a" stroke-linecap="butt" opacity="1" stroke-linejoin="round"/>
<path stroke="#5e595a" stroke-width="1" d="M1238.89+1586.26C1230.62+1594.37+1222.46+1602.62+1214.62+1611.16C1212.01+1614.01+1209.05+1616.55+1206.68+1619.6C1205.79+1620.75+1203.71+1624.36+1204.95+1623.6L1204.78+1623.93C1200.29+1622.9+1210.04+1614.81+1213.99+1610.54C1221.85+1602.01+1230.07+1593.83+1238.4+1585.76" fill="#5e595a" stroke-linecap="butt" opacity="1" stroke-linejoin="round"/>
<path stroke="#5e595a" stroke-width="1" d="M1227.95+1602.12C1221.04+1608.45+1214.63+1615.34+1208.61+1622.52C1204.35+1627.6+1200.05+1633.74+1200.97+1633.13L1200.82+1633.28C1199.14+1632.77+1200.76+1631.19+1201.56+1629.96C1208.51+1619.27+1218.06+1610.12+1227.48+1601.7" fill="#5e595a" stroke-linecap="butt" opacity="1" stroke-linejoin="round"/>
<path stroke="#5e595a" stroke-width="1" d="M1227.47+1610.59C1218.46+1620.61+1205.14+1628.2+1200.79+1640.95C1200.77+1641.02+1206.88+1638.05+1208.26+1637.05L1208.42+1637.31C1207.27+1638.2+1199.42+1643.48+1199.99+1640.35C1200.43+1637.96+1205.19+1633.69+1206.44+1632.33C1213.26+1624.9+1220.13+1617.52+1226.97+1610.12" fill="#5e595a" stroke-linecap="butt" opacity="1" stroke-linejoin="round"/>
<path stroke="#5e595a" stroke-width="1" d="M1229.94+1619.49C1222.54+1628+1215.03+1636.44+1208.16+1645.39C1207.08+1646.81+1194.34+1663.18+1203.29+1654.93L1203.46+1655.19C1194.74+1664.56+1206.17+1646.6+1207.53+1644.86C1214.46+1635.96+1222.01+1627.56+1229.47+1619.1" fill="#5e595a" stroke-linecap="butt" opacity="1" stroke-linejoin="round"/>
<path stroke="#5e595a" stroke-width="1" d="M1229.94+1627.42C1223.69+1634.57+1216+1642.46+1210.27+1650.45C1209.04+1652.18+1200.97+1661.89+1207.81+1656.97L1207.88+1657.13C1199.67+1663.5+1210.86+1648.16+1212.42+1646.28C1217.88+1639.68+1223.67+1633.36+1229.47+1627.06" fill="#5e595a" stroke-linecap="butt" opacity="1" stroke-linejoin="round"/>
<path stroke="#5e595a" stroke-width="1" d="M1231.17+1639.06C1224.63+1646.03+1204.58+1663.05+1203.91+1674.44L1203.83+1674.43C1203.15+1662.04+1223.22+1645.43+1230.22+1638.27" fill="#5e595a" stroke-linecap="butt" opacity="1" stroke-linejoin="round"/>
<path stroke="#5e595a" stroke-width="1" d="M1233.24+1644.2C1225.45+1653.79+1217.19+1663.04+1210.13+1673.19C1208.34+1675.76+1195.6+1689.46+1203.81+1684.77L1203.93+1684.96C1194.73+1690.73+1208.39+1674.29+1209.53+1672.7C1216.17+1663.5+1227.8+1650.4+1233.12+1644.07" fill="#5e595a" stroke-linecap="butt" opacity="1" stroke-linejoin="round"/>
<path stroke="#5e595a" stroke-width="1" d="M1220.96+1669.66C1214.56+1677.32+1208.09+1684.92+1201.75+1692.63C1200.54+1694.1+1193.5+1702.88+1199.4+1701.13L1199.4+1701.4C1192.72+1702.24+1198.73+1694.73+1201.03+1692.01C1207.47+1684.37+1214.05+1676.85+1220.56+1669.28" fill="#5e595a" stroke-linecap="butt" opacity="1" stroke-linejoin="round"/>
<path stroke="#5e595a" stroke-width="1" d="M1233.43+1673.09C1226.84+1682.78+1219.95+1692.3+1214.17+1702.5C1212.07+1706.22+1206.46+1717.27+1209.78+1714.56L1209.89+1714.79C1209.56+1715.02+1207.58+1717.2+1206.52+1716.05C1202.99+1712.22+1210.87+1706.55+1213.44+1702.01C1219.22+1691.83+1226.25+1682.41+1232.94+1672.8" fill="#5e595a" stroke-linecap="butt" opacity="1" stroke-linejoin="round"/>
<path stroke="#5e595a" stroke-width="1" d="M1235.35+1687.98C1230.59+1694.63+1225.42+1701.02+1221.16+1708.01C1220.79+1708.6+1215.23+1717.96+1217.93+1717.51L1217.64+1717.8C1213.86+1717.35+1219.66+1708.59+1220.37+1707.43C1224.64+1700.45+1230.07+1694.26+1234.98+1687.72" fill="#5e595a" stroke-linecap="butt" opacity="1" stroke-linejoin="round"/>
<path stroke="#5e595a" stroke-width="1" d="M1233.92+1696.94C1228.89+1704.14+1223.87+1711.36+1218.62+1718.4C1216.66+1721.02+1211.48+1725.94+1216.13+1721.5L1216.45+1721.76C1210.05+1728.46+1220.81+1714.31+1221.43+1713.46C1225.49+1707.89+1229.43+1702.25+1233.44+1696.64" fill="#5e595a" stroke-linecap="butt" opacity="1" stroke-linejoin="round"/>
<path stroke="#5e595a" stroke-width="1" d="M1611.38+1505.24C1622.06+1507.91+1632.93+1509.89+1643.87+1511.34C1646.6+1511.7+1649.33+1512.02+1652.07+1512.32C1653.73+1512.5+1653.11+1509.27+1651.69+1513.82L1653.94+1511.56C1654.83+1520.72+1634.36+1512.78+1624.2+1510.83C1619.65+1509.96+1615.26+1508.43+1610.79+1507.23" fill="#5e595a" stroke-linecap="butt" opacity="1" stroke-linejoin="round"/>
<path stroke="#5e595a" stroke-width="1" d="M1638.55+1521.08C1646.12+1521.67+1658.72+1521.38+1663.03+1527.39L1662.76+1528.39C1656.52+1524.54+1646.29+1524.45+1638.55+1523.77" fill="#5e595a" stroke-linecap="butt" opacity="1" stroke-linejoin="round"/>
<path stroke="#5e595a" stroke-width="1" d="M1629.83+1526.2C1638.69+1527.88+1647.82+1528.88+1656.2+1532.2C1659.33+1533.45+1658.14+1534.66+1654.94+1534.42L1654.94+1534.27C1659.73+1533.86+1655.93+1534.03+1652.21+1533.19C1644.63+1531.49+1636.99+1530.12+1629.38+1528.58" fill="#5e595a" stroke-linecap="butt" opacity="1" stroke-linejoin="round"/>
<path stroke="#5e595a" stroke-width="1" d="M1637.7+1536.99C1646.64+1539.32+1659.37+1537.3+1664.18+1545.19L1663.59+1546.35C1655.95+1543.07+1642.19+1540.02+1637.41+1538.65" fill="#5e595a" stroke-linecap="butt" opacity="1" stroke-linejoin="round"/>
<path stroke="#5e595a" stroke-width="1" d="M1634.28+1543.35C1644.92+1546.78+1655.63+1550+1666.2+1553.64C1666.87+1553.87+1677.82+1560.19+1674.93+1561.17L1674.7+1561.17C1677.9+1562.7+1668.88+1556.96+1665.54+1555.79C1655.04+1552.1+1644.43+1548.73+1633.88+1545.21" fill="#5e595a" stroke-linecap="butt" opacity="1" stroke-linejoin="round"/>
<path stroke="#5e595a" stroke-width="1" d="M1635.34+1558.12C1645.29+1560.7+1655.28+1563.19+1665.21+1565.86C1665.89+1566.05+1678.17+1570.62+1672.86+1571.69L1672.8+1571.52C1675.66+1572.17+1667.38+1569.2+1664.55+1568.4C1654.65+1565.62+1644.72+1562.97+1634.81+1560.25" fill="#5e595a" stroke-linecap="butt" opacity="1" stroke-linejoin="round"/>
<path stroke="#5e595a" stroke-width="1" d="M1634.44+1569.82C1646.17+1572.87+1658.05+1575.41+1669.67+1578.83C1671.17+1579.27+1683.92+1582.94+1677.32+1584.13L1677.27+1583.92C1682.64+1585.06+1663.58+1580.08+1662.53+1579.79C1652.9+1577.1+1643.32+1574.2+1633.71+1571.4" fill="#5e595a" stroke-linecap="butt" opacity="1" stroke-linejoin="round"/>
<path stroke="#5e595a" stroke-width="1" d="M1648.7+1575.86C1657.56+1579.57+1679.39+1585.89+1678.64+1591.21L1677.94+1591.74C1669.25+1585.37+1657.58+1581.48+1648.27+1577.28" fill="#5e595a" stroke-linecap="butt" opacity="1" stroke-linejoin="round"/>
<path stroke="#5e595a" stroke-width="1" d="M1640.41+1581.38C1652.94+1586.72+1665.11+1592.97+1676.82+1599.92C1688.2+1606.67+1682.85+1608.97+1673.29+1605.46L1673.35+1605.3C1681.13+1607.64+1686.86+1608.54+1675.79+1601.91C1664.09+1594.9+1652.01+1588.5+1639.67+1582.69" fill="#5e595a" stroke-linecap="butt" opacity="1" stroke-linejoin="round"/>
<path stroke="#5e595a" stroke-width="1" d="M1644.5+1594.07C1653.47+1598.48+1662.47+1602.81+1671.4+1607.28C1672.02+1607.59+1684.35+1614.52+1682.88+1615.09L1682.65+1615.55C1683.21+1615.97+1676.34+1612.75+1675.75+1612.43C1673.92+1611.44+1672.13+1610.4+1670.28+1609.45C1661.38+1604.87+1652.44+1600.37+1643.53+1595.83" fill="#5e595a" stroke-linecap="butt" opacity="1" stroke-linejoin="round"/>
<path stroke="#5e595a" stroke-width="1" d="M1646.33+1602.34C1656+1607.68+1665.79+1612.81+1675.35+1618.37C1677.92+1619.88+1685.44+1625.23+1684.49+1629.4C1683.69+1632.87+1676.15+1628.14+1675.3+1627.77L1675.32+1627.7C1677.88+1628.52+1682.26+1632.62+1683.03+1630.05C1683.93+1626.98+1675.72+1621.09+1674.28+1620.21C1664.86+1614.44+1655.21+1609.05+1645.67+1603.46" fill="#5e595a" stroke-linecap="butt" opacity="1" stroke-linejoin="round"/>
<path stroke="#5e595a" stroke-width="1" d="M1650.54+1615.13C1660.6+1622.36+1672.76+1629.32+1681.18+1638.56C1681.33+1638.73+1689.39+1647.68+1684.83+1646.81C1678.6+1645.62+1673.13+1639.27+1667.36+1636.68L1667.36+1636.68C1672.15+1638.64+1677.19+1641.28+1681.46+1644.2C1682.74+1645.07+1684.82+1648.68+1685.03+1647.15C1685.52+1643.54+1667.96+1631.02+1663.14+1627.23C1658.57+1623.64+1653.98+1620.08+1649.41+1616.51" fill="#5e595a" stroke-linecap="butt" opacity="1" stroke-linejoin="round"/>
<path stroke="#5e595a" stroke-width="1" d="M1645.2+1628.66C1654.89+1635.25+1664.93+1641.34+1674.48+1648.12C1676.53+1649.58+1686.32+1659.61+1678.73+1654.15L1678.84+1653.99C1686.35+1659.91+1669.49+1647.94+1668.19+1647.04C1660+1641.38+1651.94+1635.54+1643.82+1629.8" fill="#5e595a" stroke-linecap="butt" opacity="1" stroke-linejoin="round"/>
<path stroke="#5e595a" stroke-width="1" d="M1659.29+1640.1C1668.16+1646.78+1677.09+1653.39+1685.91+1660.15C1687.33+1661.24+1699.36+1670.46+1693.13+1669.53L1694.25+1668.41C1693.86+1674.42+1687.27+1664.06+1684.58+1661.89C1675.96+1654.93+1667.23+1648.11+1658.55+1641.21" fill="#5e595a" stroke-linecap="butt" opacity="1" stroke-linejoin="round"/>
<path stroke="#5e595a" stroke-width="1" d="M1683.13+1672.97C1686.43+1675.35+1693.72+1682.71+1693.24+1681.34L1693.3+1681.3C1695.82+1685.04+1683.37+1675.75+1681.98+1674.63" fill="#5e595a" stroke-linecap="butt" opacity="1" stroke-linejoin="round"/>
<path stroke="#5e595a" stroke-width="1" d="M1682.77+1679.11C1684.95+1681.29+1687.19+1683.42+1689.32+1685.66C1689.34+1685.68+1691.77+1689.78+1691.72+1689.77C1690.53+1689.62+1690.11+1689.09+1689.17+1688.38L1689.17+1688.38C1690.17+1688.98+1690.8+1689.06+1691.17+1690.19C1691.63+1691.58+1689.14+1688.05+1688.1+1687.01C1686.04+1684.93+1683.96+1682.87+1681.89+1680.8" fill="#5e595a" stroke-linecap="butt" opacity="1" stroke-linejoin="round"/>
<path stroke="#5e595a" stroke-width="1" d="M1675.46+1684.88C1679.54+1686.54+1683.25+1688.39+1686.72+1690.89L1686.6+1691.35C1682.76+1692.66+1677.36+1687.83+1674.61+1685.97" fill="#5e595a" stroke-linecap="butt" opacity="1" stroke-linejoin="round"/>
<path stroke="#5e595a" stroke-width="1" d="M1678.57+1674.02C1680.66+1674.84+1687.03+1676.93+1684.82+1676.52L1685.76+1677C1684.05+1679.56+1679.77+1676.67+1677.88+1675.86" fill="#5e595a" stroke-linecap="butt" opacity="1" stroke-linejoin="round"/>
<path stroke="#5e595a" stroke-width="1" d="M1666.97+1696.95C1667.51+1697.44+1673.46+1702.8+1669.57+1703.2C1668.01+1703.36+1658.9+1692.43+1657.72+1694.44C1657.5+1694.81+1658.98+1695.56+1659.09+1695.67C1662.35+1699.04+1665.04+1702.78+1668.06+1706.33C1668.48+1706.83+1669.66+1707.34+1669.28+1707.87C1667.61+1710.21+1663.47+1706.44+1661.14+1705.6C1659.91+1705.15+1656.06+1704.44+1657.35+1704.6C1662.2+1705.2+1666.25+1711.42+1669.74+1714.73C1670.22+1715.18+1671.47+1715.65+1671.08+1716.17C1666.93+1721.58+1664.64+1711.09+1660.45+1713.5C1659.41+1714.1+1662.45+1714.86+1663.22+1715.77C1664.99+1717.87+1669.77+1722.14+1669.28+1725.31C1668.68+1729.16+1662.15+1724.14+1661.01+1723.42C1660.32+1722.98+1658.71+1721.43+1658.85+1722.24C1658.94+1722.78+1659.84+1721.74+1660.38+1721.72C1661.53+1721.7+1661.95+1723.4+1662.77+1724.19C1664.16+1725.52+1671.39+1732.06+1669.32+1734.57C1665.92+1738.69+1663.44+1728.81+1660.68+1730.47C1659.83+1730.98+1661.84+1732.07+1662.39+1732.88C1663.36+1734.3+1671.37+1739.91+1669.8+1742.17C1667.79+1745.05+1665.85+1742.37+1663.8+1741.13C1662.78+1740.51+1659.3+1739.57+1660.45+1739.89C1662.36+1740.43+1670.45+1747.78+1668.28+1750.15C1666.49+1752.09+1665.46+1751.13+1663.78+1749.77C1663.01+1749.14+1660.45+1747.7+1661.39+1748C1662.91+1748.48+1671.68+1755.9+1667.87+1758.36C1666.06+1759.53+1661.05+1757.18+1664.08+1756.42C1665.04+1756.18+1671.05+1765.9+1670.64+1767.47C1669.85+1770.43+1665.95+1767.41+1664.81+1766.61C1664.74+1766.56+1662.15+1765.47+1662.42+1765.99C1664.05+1769.21+1668.91+1771.76+1668.97+1775.88C1668.99+1777.53+1667.64+1778.18+1666.15+1778.02C1665.61+1777.96+1664.03+1777.63+1664.55+1777.76C1665.98+1778.11+1675.02+1784.99+1672.85+1787.75C1670.86+1790.27+1667.59+1788.2+1665.39+1787.18C1664.17+1786.62+1661.22+1784.21+1661.8+1785.41C1662.6+1787.07+1668.68+1788.1+1668.21+1792.8C1667.75+1797.33+1661.93+1793.38+1661.3+1795.03C1660.53+1797.06+1669.34+1804.22+1666.49+1806.7C1664.58+1808.36+1662.39+1806.28+1660.55+1805.38C1659.99+1805.11+1658.26+1804.67+1658.87+1804.56C1667.43+1803.04+1661.52+1816.12+1661.61+1816.47C1661.96+1817.85+1668.65+1823.67+1666.91+1825.13C1665+1826.73+1663.91+1825.92+1661.83+1825.24C1661.3+1825.06+1659.89+1824.63+1660.16+1825.11C1661.03+1826.66+1666.97+1836.06+1664.83+1837.24C1662.83+1838.34+1660.4+1836.72+1658.63+1837.61C1656.76+1838.55+1667.71+1851.11+1660.77+1851.3L1660.13+1850.01C1660.48+1850.06+1657.06+1838.76+1657.83+1836.64C1658.66+1834.33+1662.79+1836.79+1663.28+1836.67C1663.3+1836.67+1658.82+1826.66+1659.34+1824.8C1659.99+1822.5+1664.57+1823.37+1664.93+1825.13C1665.08+1825.88+1664.67+1823.58+1664.27+1822.93C1663.04+1820.93+1661.3+1819.26+1660.41+1817.07C1660.14+1816.4+1660.2+1815.82+1660.22+1815.1C1660.32+1812.56+1662.51+1813.97+1662.3+1811.1C1662.12+1808.57+1658.88+1806.59+1658.7+1804.39C1658.52+1802+1664.31+1804.59+1664.52+1805.39C1664.6+1805.71+1664.49+1806.67+1664.67+1806.38C1666.23+1803.96+1660.72+1798.48+1660.13+1796.19C1659.02+1791.84+1665.46+1794.18+1665.91+1793.19C1667.4+1789.94+1661.4+1787.27+1661.71+1784.34C1661.78+1783.66+1663.47+1784.61+1663.47+1784.61C1665.55+1785.48+1667.82+1786.31+1670.02+1786.55C1670.63+1786.61+1670.56+1788.19+1670.69+1787.68C1671.4+1784.76+1665.51+1780.7+1664.21+1778.58C1662.46+1775.72+1666.62+1776.46+1666.57+1776.07C1666.09+1772.57+1660.6+1769.11+1661.69+1765.48C1662.78+1761.86+1667.98+1767.22+1668.04+1767.47C1668.37+1768.87+1667.08+1764.73+1666.38+1763.47C1665.32+1761.56+1662.01+1757.97+1663.18+1755.77C1663.95+1754.34+1666.24+1758.62+1666.17+1756.72C1666.08+1754.24+1660.05+1749.43+1660.93+1747.54C1662.44+1744.32+1666.38+1751.25+1665.98+1749.38C1665.23+1745.88+1659.68+1742.88+1659.77+1739.32C1659.83+1736.81+1666.36+1740.31+1666.76+1740.57C1667.22+1740.87+1667.12+1742.7+1667.25+1742.16C1668.19+1738.36+1657.19+1734.63+1660.25+1729.49C1662.02+1726.54+1667.28+1734.35+1667.28+1734.35C1667.38+1734.41+1667.38+1734.11+1667.35+1734C1666.88+1732.04+1665.73+1730.51+1664.48+1728.98C1662.34+1726.35+1658.99+1724.63+1659.31+1721.07C1659.39+1720.19+1660.94+1721.76+1661.72+1722.18C1662.37+1722.52+1666.51+1723.89+1666.77+1724.38C1666.93+1724.66+1666.54+1725.62+1666.72+1725.35C1668.53+1722.59+1658.97+1715.92+1659.16+1713.04C1659.32+1710.63+1670.17+1713.52+1668.97+1717.58C1668.7+1718.48+1667.78+1716.11+1667.16+1715.41C1666.31+1714.43+1665.37+1713.55+1664.48+1712.62C1662.95+1711.01+1656.79+1706.37+1656.95+1703.96C1657.02+1702.92+1669.33+1704.8+1667.57+1709.01C1667.14+1710.05+1666.25+1707.18+1665.65+1706.22C1662.88+1701.85+1667.04+1707.64+1663.45+1703.03C1661.88+1701.02+1656.55+1696.82+1657.54+1693.95C1657.65+1693.63+1658.81+1693.73+1659.03+1693.79C1663.91+1695.24+1674.6+1708.26+1665.78+1698.51" fill="#5e595a" stroke-linecap="butt" opacity="1" stroke-linejoin="round"/>
<path stroke="#5e595a" stroke-width="1" d="M1233.69+1745.08C1236.3+1744.66+1244.54+1743.87+1242.01+1748.87C1241.74+1749.41+1234.25+1750.25+1233.41+1750.7C1232.49+1751.2+1243.27+1750.94+1240.31+1754.52C1238.31+1756.95+1232.63+1754.22+1230.96+1756.89C1230.79+1757.15+1231.04+1757.27+1231.32+1757.06C1232.54+1756.15+1237.98+1758.63+1238.34+1760.62C1239.18+1765.23+1234.21+1762.54+1232.89+1764.19C1232.69+1764.43+1233.48+1763.94+1233.71+1763.74C1235.03+1762.63+1239.3+1766.81+1240.01+1767.94C1242.67+1772.21+1233.43+1769.76+1237.13+1770.93C1241.88+1772.44+1243.03+1777.08+1238.94+1779.1C1237.19+1779.96+1242.73+1780.9+1243.58+1782.65C1244.21+1783.95+1239.2+1786.32+1240.49+1785.68C1242.42+1784.73+1246.49+1789.98+1245.77+1791.86C1245.32+1793.05+1243.1+1793.83+1243.17+1794.9C1243.29+1796.78+1249.44+1798.25+1248.44+1801.17C1247.85+1802.87+1247.01+1802.53+1245.73+1803.09C1245.44+1803.21+1247.39+1804.74+1247.6+1804.89C1250.52+1807.07+1247.36+1807.88+1246.59+1809.47C1246.12+1810.45+1248.68+1810.35+1249.39+1811.18C1250.78+1812.8+1251.15+1814.95+1251.72+1816.93C1252.21+1818.63+1249.98+1819.69+1250.9+1821.88C1252.29+1825.18+1255.4+1827.65+1256.77+1831.01C1258.46+1835.12+1257.31+1839.29+1260.52+1843.61C1262.21+1845.88+1265.49+1848.74+1265.49+1851.78C1265.49+1853.94+1262.76+1853.94+1262.59+1855.44C1262.29+1858.16+1269.29+1860.54+1269.96+1863.7C1270.53+1866.36+1267.27+1867.95+1267.72+1870.73C1268.16+1873.48+1271.29+1875.3+1272.65+1877.55C1275.5+1882.25+1277.84+1891.63+1277.84+1891.63C1274.99+1883.21+1269.91+1879.77+1267.09+1871.79C1266.03+1868.8+1269.46+1866.73+1268.83+1864.35C1267.87+1860.78+1262.99+1860.04+1262.07+1856.79C1261.19+1853.72+1265.24+1853.37+1263.9+1850.73C1260.39+1843.83+1256.15+1840.21+1255.51+1832.42C1255.2+1828.63+1250.81+1825.67+1249.53+1822.21C1248.59+1819.67+1250.55+1818.46+1250.15+1816.46C1249.91+1815.24+1242+1799.78+1246.7+1801.58C1246.81+1801.62+1245.55+1798.98+1245.53+1798.94C1244.55+1797.53+1241.74+1796.53+1242.09+1794.5C1242.28+1793.41+1244.55+1792.32+1244.58+1791.86C1244.84+1788.1+1235.17+1777.87+1239.96+1777.69C1240.41+1777.67+1234.92+1771.56+1234.84+1771.32C1234.36+1769.77+1236.37+1768.02+1237.86+1768.64C1239.75+1769.42+1232.67+1765.62+1231.95+1764.16C1231.26+1762.77+1236.86+1763.79+1236.24+1762.37C1235.27+1760.14+1228.52+1758.72+1229.51+1755.78C1230.19+1753.74+1236+1752.65+1237.73+1752.69C1237.98+1752.7+1238.58+1754.91+1238.55+1754.68C1238.27+1752.22+1231.51+1753.98+1231.56+1750.68C1231.6+1747.14+1237.14+1746.92+1239.67+1746.65C1240.58+1746.55+1242.18+1749.14+1241.3+1748.88C1236.58+1747.52+1237.35+1747.65+1234.27+1747.53" fill="#5e595a" stroke-linecap="butt" opacity="1" stroke-linejoin="round"/>
<path d="M1619.68+1573.21C1619.33+1573.17+1619.43+1573.22+1619.91+1572.94" opacity="1" fill="#988174"/>
</g>
<use stroke-linecap="round" stroke="#000000" xlink:href="#Mask" stroke-width="1.75" fill="none" stroke-linejoin="round"/>
</g>
</g>
</svg>
