<?xml version="1.0" encoding="UTF-8" standalone="no"?> <!-- Created with Vectornator for iOS (http://vectornator.io/) --><!DOCTYPE svg PUBLIC "-//W3C//DTD SVG 1.1//EN" "http://www.w3.org/Graphics/SVG/1.1/DTD/svg11.dtd">
<svg style="fill-rule:evenodd;clip-rule:evenodd;stroke-linecap:round;stroke-linejoin:round;" xmlns:vectornator="http://vectornator.io" xmlns:xlink="http://www.w3.org/1999/xlink" xmlns="http://www.w3.org/2000/svg" xml:space="preserve" version="1.1" viewBox="0 0 3024 4032">
<metadata>
<vectornator:setting key="DisplayWhiteBackground" value="0"/>
<vectornator:setting key="RulersVisible" value="1"/>
<vectornator:setting key="GridSpacing" value="36"/>
<vectornator:setting key="Units" value="Pixels"/>
<vectornator:setting key="DynamicGuides" value="0"/>
<vectornator:setting key="SnapToPoints" value="0"/>
<vectornator:setting key="SnapToGrid" value="0"/>
<vectornator:setting key="SnapToGuides" value="1"/>
<vectornator:setting key="ShowGrid" value="1"/>
<vectornator:setting key="SnapToEdges" value="0"/>
</metadata>
<defs>
<path d="M497.11+975.118C497.11+554.481+835.817+213.487+1253.63+213.487C1671.45+213.487+2010.16+554.481+2010.16+975.118C2010.16+1395.76+1671.45+1736.75+1253.63+1736.75C835.817+1736.75+497.11+1395.76+497.11+975.118Z" id="Mask"/>
<linearGradient y1="817.908" id="LinearGradient" x1="2.57639" y2="828.656" x2="2844.14" gradientUnits="userSpaceOnUse" gradientTransform="matrix(0.756901 0 0 1.02279 143.902 164.581)">
<stop stop-color="#000000" offset="0"/>
<stop stop-color="#3e4d8a" offset="0.663333"/>
<stop stop-color="#8e68b1" offset="1"/>
</linearGradient>
</defs>
<g id="Layer 1" vectornator:layerName="Layer 1">
<g vectornator:shadowColor="#000000" vectornator:shadowOpacity="1" vectornator:mask="#Mask" vectornator:shadowRadius="10" vectornator:shadowOffset="10" opacity="1" vectornator:shadowAngle="0.840632">
<clipPath id="ClipPath">
<use xlink:href="#Mask" fill="none" overflow="visible"/>
</clipPath>
<g clip-path="url(#ClipPath)">
<path d="M145.852+1818.35L2426.91+1818.35L2426.91+183.9L145.852+183.9L145.852+1818.35Z" opacity="1" fill="url(#LinearGradient)"/>
<path d="M1449.77+893.768C1449.77+904.389+1452.97+915.625+1450.81+926.429C1449.42+933.355+1446.81+940.347+1445.11+947.166C1444.27+950.517+1435.02+988.032+1432.66+997.454C1431.79+1000.94+1430.91+1004.44+1429.55+1007.82C1428.97+1009.27+1425.85+1021.18+1425.41+1022.66C1421.95+1034.05+1423.06+1031.24+1416.54+1039.92C1414.59+1042.53+1410.02+1049.45+1407.79+1051.67C1403.32+1056.14+1400.03+1061.06+1395.17+1064.95C1385.87+1072.39+1375.22+1080.6+1363.48+1083.54C1357.31+1085.08+1352.79+1087.72+1346.5+1090.55C1331.68+1097.19+1331.46+1097.8+1318.82+1100.33C1314.12+1101.27+1295.68+1104.86+1291.13+1106C1280.32+1108.7+1267.47+1103.56+1256.4+1105.78C1247.94+1107.47+1235.58+1103.35+1227.37+1102.18C1223.58+1101.64+1219.83+1099.55+1215.96+1099.07C1203.67+1097.53+1190.66+1097.32+1178.63+1094.92C1173.39+1093.87+1160.22+1084.8+1155.67+1082.99C1148.88+1080.27+1152.48+1080.23+1146.49+1075.74C1142.25+1072.55+1136.76+1070.85+1132.49+1067.44C1125.59+1061.92+1125.67+1076.89+1120.27+1070.14C1112.63+1060.58+1115.3+1040.57+1109.22+1023.49C1103.96+1008.69+1087+986.099+1081.17+971.533C1079.13+966.426+1059.3+925.949+1057.78+922.394C1049.59+903.222+1034.99+844.036+1034.3+836.441C1033.45+827.101+1035.03+757.469+1035.03+748.09C1035.03+717.248+1032.57+684.591+1043.84+655.292C1054.21+628.327+1071.79+611.26+1094.65+594.117C1103.74+587.298+1112.14+579.176+1121.61+572.862C1124.39+571.007+1127.58+569.968+1130.42+568.196C1132.76+566.732+1134.3+564.475+1136.64+563.011C1139.63+561.141+1143.79+559.036+1147.01+557.827C1149.14+557.028+1151.85+557.023+1153.75+555.753C1160.92+550.97+1169.24+547.055+1177.6+545.385C1180.08+544.888+1182.28+542.704+1184.86+542.274C1190.68+541.304+1196.63+541.555+1202.48+540.719C1210.11+539.629+1217.59+537.016+1225.29+536.053C1231.93+535.223+1238.37+534.566+1244.99+533.461C1249.42+532.723+1254.48+533.461+1258.99+533.461C1264.36+533.461+1269.75+532.664+1275.06+531.906C1277.77+531.519+1280.65+532.293+1283.36+531.906C1299.07+529.661+1315.42+528.779+1331.05+531.906C1335.07+532.71+1338.99+533.7+1342.98+534.498C1345.49+535.002+1347.69+537.101+1350.23+537.608C1358.98+539.358+1369.32+538.466+1376.67+544.348C1385.97+551.785+1387.75+564.955+1392.74+574.935C1394.78+579+1396.39+583.263+1398.45+587.378C1400.64+591.755+1404.51+596.074+1405.71+600.857C1407.49+607.98+1409.46+614.982+1410.89+622.112C1412.12+628.273+1417.14+634.202+1417.93+640.511C1418.42+644.404+1433.11+685.548+1434.58+688.963C1437.22+695.125+1442.35+736.895+1443.24+740.453C1444.38+745.005+1451.36+780.31+1449.51+768.486C1447.66+756.663+1452.84+792.923+1454.29+805.239C1454.91+810.533+1454.03+834.968+1454.21+827.331C1454.47+816.938+1455.72+838.74+1455.01+850.532C1454.26+863.046+1454+869.831+1452.89+876.488C1451.54+884.613+1452.17+892.318+1450.81+900.508C1449.33+909.381+1444.08+931.327+1444.08+922.748" opacity="1" fill="#988174"/>
<path d="M1448.82+1155.17C1449.41+1156.34+1486.22+1201.58+1485.83+1203.14C1485.53+1204.33+1480.7+1255.17+1440.36+1281.14C1376.66+1322.16+1265.89+1344.75+1260.15+1343.8C1256.73+1343.23+1123.18+1274.01+1122.29+1270.44C1120.38+1262.82+1097.65+1206+1102.67+1200.99C1111.14+1192.52+1122.6+1183.61+1125.08+1171.22C1126.12+1166+1123.53+1160.75+1124.41+1155.5C1125.58+1148.45+1126.12+1144.64+1124.41+1137.78C1123.95+1135.97+1124.53+1133.91+1124.07+1132.09C1123.22+1128.68+1124.07+1123.93+1124.07+1120.39C1124.07+1114.62+1123.35+1108.37+1122.4+1102.66C1122.16+1101.24+1121.01+1100.05+1120.73+1098.65C1119.77+1093.84+1118.57+1090.17+1118.57+1085.14C1118.57+1082.41+1117.94+1074.2+1117.02+1072.36C1114.81+1067.95+1116.62+1059.79+1115.38+1054.84C1114.67+1052+1113.7+1048.4+1113.7+1045.47C1113.7+1044.04+1113.7+1042.8+1114.04+1041.46C1114.09+1041.24+1114.04+1040.79+1114.04+1040.79C1114.04+1040.79+1114.52+1043.09+1115.04+1044.13C1115.88+1045.8+1116.95+1047.01+1118.05+1048.48C1119.71+1050.69+1121.91+1052.34+1123.74+1054.17C1125.61+1056.04+1126.6+1059.24+1128.75+1060.86C1130.83+1062.41+1131.95+1065.06+1133.77+1066.88C1135.05+1068.16+1136.83+1069.26+1138.12+1070.56C1140.67+1073.11+1144.18+1074.35+1147.15+1076.58C1150.12+1078.8+1152.63+1081.46+1155.85+1083.6C1157.6+1084.77+1160.52+1085.1+1162.53+1085.61C1165.41+1086.32+1167.97+1089.12+1170.9+1090.29C1183.5+1095.33+1197.07+1095.1+1210.36+1097.31C1216.72+1098.37+1222.93+1100.51+1229.42+1101.32C1234.43+1101.95+1239.91+1100.43+1244.81+1101.66C1246.67+1102.13+1248.29+1103.53+1250.16+1104C1253.24+1104.77+1256.73+1103.71+1259.86+1104.33C1264.11+1105.19+1268.55+1104.46+1272.9+1105C1277.57+1105.59+1283.27+1106.14+1287.95+1105.67C1296.57+1104.81+1305.17+1103.21+1313.7+1101.99C1321.01+1100.95+1328.19+1097.28+1335.11+1094.97C1354.59+1088.48+1373.13+1079.66+1389.96+1067.88C1395.86+1063.75+1401.41+1058.35+1406.01+1052.83C1407.43+1051.13+1409.71+1050.11+1410.69+1048.15C1413.2+1043.14+1416.41+1038.87+1419.39+1034.1C1420.45+1032.41+1422.16+1031.23+1423.07+1029.42C1424.61+1026.34+1424.19+1023.01+1424.74+1019.72C1425.88+1012.88+1428.43+1006.29+1430.09+999.653C1430.79+996.849+1434.11+971.663+1435.73+969.506C1438.04+966.422+1438.79+985.256+1438.79+992.964" opacity="1" fill="#988174"/>
<path stroke="#6e6865" stroke-width="1" d="M1075.25+960.172C1086.3+995.469+1121.73+1056.73+1148.65+1079.13C1161.58+1089.89+1244.14+1134.85+1268.79+1134.13C1284.01+1133.69+1331.67+1112.98+1360.2+1086.31C1406.08+1043.42+1442.54+967.223+1442.8+966.382C1449.3+945.226+1452.11+928.305+1451.05+917.099" fill="#988174" stroke-linecap="butt" opacity="1" stroke-linejoin="round"/>
<path stroke="#915b58" stroke-width="5" d="M1491.24+780.573C1495.86+776.811+1498+765.087+1502.79+769.881C1504.85+771.932+1504.71+785.653+1504.68+792.686C1504.64+799.719+1501.92+826.947+1497.35+829.994C1492.61+833.157+1494.43+828.1+1493.16+820.662C1491.59+811.493+1491.54+813.536+1490.88+808.124C1490.59+805.666+1489.59+802.073+1489.42+800.201C1488.57+790.718+1484.88+785.749+1491.24+780.573Z" fill="#915b58" stroke-linecap="butt" opacity="1" stroke-linejoin="round"/>
<path stroke="#9b7773" stroke-width="5" d="M1466.29+786.949C1465.74+779.392+1467.43+770.074+1472.44+766.948C1481.89+761.053+1498.67+758.115+1504.9+766.418C1511.22+774.853+1501.58+835.359+1498.92+850.63C1498.16+855.008+1493.78+870.446+1490.16+880.639C1487.86+887.108+1483.11+893.301+1479.01+903.028C1474.91+912.754+1456.05+921.224+1455.58+910.554C1455.23+902.859+1459.19+886.854+1460.53+877.019C1462.12+865.293+1468.34+861.19+1473.01+859.585C1481.09+856.806+1484.98+861.738+1495.49+844.914C1501.05+836.018+1516.51+761.853+1500.88+764.979C1499.57+765.241+1494.17+765.774+1492.82+770.801C1490.6+779.081+1489.86+774.358+1488.48+776.709C1486.94+779.314+1483.42+783.08+1484.75+793.351C1485.39+798.303+1480.89+812.963+1469.87+809.31C1458.85+805.656+1467.52+784.467+1465.98+786.015" fill="#9b7773" stroke-linecap="butt" opacity="1" stroke-linejoin="round"/>
<path stroke="#9b7773" stroke-width="5" d="M1485.19+793.69C1485.19+807.474+1487.64+819.014+1490.89+832.025C1492.1+836.866+1491.11+851.983+1491.11+846.993" fill="#774f51" stroke-linecap="butt" opacity="1" stroke-linejoin="round"/>
<path stroke="#9b7773" stroke-width="5" d="M1499.72+830.733C1493.59+846.347+1490.2+852.478+1492.83+847.208" fill="#774f51" stroke-linecap="butt" opacity="1" stroke-linejoin="round"/>
<path stroke="#9b7773" stroke-width="5" d="M1466.8+817.1C1466.8+799.381+1520.8+855.621+1470.43+861.917C1462.61+862.896+1473+845.092+1472.48+838.305C1472.2+834.667+1462.56+815.922+1468.95+815.922" fill="#774f51" stroke-linecap="butt" opacity="1" stroke-linejoin="round"/>
<path stroke="#9b7773" stroke-width="5" d="M1472.94+804.295C1472.67+804.964+1473.47+807.09+1473.15+806.446" fill="#9b7773" stroke-linecap="butt" opacity="1" stroke-linejoin="round"/>
<path stroke="#9b7773" stroke-width="5" d="M1473.15+805.319C1472.09+809.552+1477.47+815.339+1480.32+817.868C1493.65+829.718+1481.85+811.037+1481.85+800.914" fill="#9b7773" stroke-linecap="butt" opacity="1" stroke-linejoin="round"/>
<path stroke="#9b7773" stroke-width="5" d="M1465.51+805.114C1469.44+820.816+1463.75+837.502+1465.72+853.261C1466.1+856.292+1467.36+862.276+1467.36+862.276C1467.36+862.276+1465.41+848.549+1469.2+828.522" fill="#9b7773" stroke-linecap="butt" opacity="1" stroke-linejoin="round"/>
<path stroke="#9b7773" stroke-width="1.99" d="M1502.43+831.066C1505.36+832.298+1497.69+841.976+1495.58+843.189C1493.12+844.603+1489.35+831.697+1489.54+830.758C1490.27+827.102+1490.01+830.353+1493.08+831.836C1495.31+832.914+1501.9+829.602+1501.51+825.948" fill="#9b7773" stroke-linecap="butt" opacity="1" stroke-linejoin="round"/>
<path stroke="#9b7773" stroke-width="5" d="M995.41+824.111C988.315+825.018+1011.43+810.404+1015.41+816.345C1022.35+826.689+1022.45+863.765+1026.56+852.009" fill="#9b7773" stroke-linecap="butt" opacity="1" stroke-linejoin="round"/>
<path stroke="#9b7773" stroke-width="5" d="M1018.75+836.455C1020.63+851.145+1017.97+880.693+1021.17+886.568C1025.82+895.097+1030.77+877.219+1028.43+860.659C1026.1+844.098+1021.66+843.675+1020.13+831.681C1019.89+829.781+1015.8+814.972+1014.4+816.781" fill="#9b7773" stroke-linecap="butt" opacity="1" stroke-linejoin="round"/>
<path stroke="#9b7773" stroke-width="5" d="M1037.12+890.361C1031.86+890.578+1023.35+895.875+1023.97+901.926C1024.59+907.977+1041.15+941.699+1044.41+946.63C1048.55+952.881+1065.86+962.128+1069.52+958.441C1073.19+954.754+1051.53+929.169+1049.89+922.328C1047.09+910.642+1041.2+890.193+1037.12+890.361Z" fill="#9b7773" stroke-linecap="butt" opacity="1" stroke-linejoin="round"/>
<path stroke="#9b7773" stroke-width="5" d="M1033.14+871.219C1035.94+876.812+1048.01+921.472+1033.94+917.954C1031.51+917.347+1030.91+912.474+1029.48+910.187C1015.75+888.149+1041.67+800.606+999.398+817.513C993.427+819.901+1005.4+853.196+1008.43+860.763C1010.4+865.686+1035.59+902.429+1030.29+902.429C1003.87+902.429+975.52+798.89+1004.15+806.265C1025.06+811.651+1024.43+834.424+1024.43+837.95" fill="#9b7773" stroke-linecap="butt" opacity="1" stroke-linejoin="round"/>
<path stroke="#915b58" stroke-width="5" d="M996.874+825.137C996.256+836.773+1005.6+850.789+1010.57+863.427C1012.66+868.739+1011.38+882.63+1016.21+879.596C1024.77+874.231+1017.7+839.27+1011.78+834.397C1007.44+830.823+997.492+813.501+996.874+825.137Z" fill="#915b58" stroke-linecap="butt" opacity="1" stroke-linejoin="round"/>
<path d="M1515.25+921.419C1514.4+921.526+1514.72+921.373+1514.23+921.698" opacity="1" fill="#000000"/>
<path d="M1465.09+919.626C1465.09+918.116+1466.41+916.892+1468.05+916.892C1469.69+916.892+1471.02+918.116+1471.02+919.626C1471.02+921.136+1469.69+922.361+1468.05+922.361C1466.41+922.361+1465.09+921.136+1465.09+919.626Z" opacity="1" fill="#000000"/>
<path stroke="#000000" stroke-width="1" d="M1467.27+920.414C1467.27+920.414+1468.53+919.993+1468.34+914.796C1468.26+912.605+1466.92+910.683+1465.22+909.958" fill="none" stroke-linecap="round" opacity="1" stroke-linejoin="round"/>
<path d="M1108.27+1194.1C1080.66+1240.41+1191.74+1280.46+1222.8+1290.07C1241.38+1295.81+1265.44+1301.03+1289.36+1302.9C1299.61+1303.7+1370.49+1288.66+1398.17+1274.15C1415.61+1265.01+1455.67+1248.75+1464.61+1220.62C1465.87+1216.65+1466.52+1212.43+1466.38+1207.97C1466.1+1198.31+1452.9+1162.47+1449.63+1155.94C1446.37+1149.41+1449.9+1151.64+1452.05+1154.73C1459.84+1165.99+1497.71+1158.36+1509.31+1213.81C1515.74+1244.56+1478.09+1294.9+1459.29+1306.28C1414.99+1333.09+1319.98+1353.75+1267.73+1352.23C1170.3+1349.39+1085.03+1284.73+1067.26+1261.58C1043.68+1230.86+1062.32+1206.57+1105.83+1195.56" opacity="1" fill="#2b343d"/>
<path d="M1087.24+1203.6C1071.29+1203.59+998.31+1259.72+984.742+1264.17C868.251+1302.34+777.53+1361.93+713.32+1458.4C672.865+1519.18+655.925+1611.01+639.318+1635.83C622.712+1660.66+572.455+1801.37+581.194+1808.05C634.569+1848.86+859.788+1931.82+921.441+1911.27C991.354+1887.97+920.259+1690.19+920.259+1690.19C920.259+1690.19+923.805+1725.62+923.805+1743.39C923.805+1779.11+877.313+1928+893.703+1953.07C910.094+1978.14+926.681+2106.79+930.899+2134.72C935.195+2163.15+1754.54+2067.58+1806.37+2088.32" opacity="1" fill="#2b343d"/>
<path d="M1489.59+1174.11C1492.42+1172.05+1556.92+1187.54+1568.03+1188.43C1702.34+1199.14+1770.85+1213.33+1820.84+1267.37C1870.82+1321.41+1912.11+1401.27+1943.2+1491.88C1949.32+1509.72+1991.63+1633.46+1983.26+1652.07C1981.08+1656.93+1978.97+1653.45+1969.72+1660.25C1968.67+1661.03+1933.51+1677.44+1938.14+1630.36C1942.12+1589.9+1946.09+1616.49+1958.16+1669.56C1968.32+1714.23+1847.72+1766.96+1810.35+1750.15C1755.79+1725.62+1804.28+1570.78+1804.28+1570.78C1804.28+1570.78+1800.35+1613.58+1800.86+1635.02C1803.36+1741.66+1790.23+1835.85+1794.91+1943.73C1798.63+2029.33+1809.66+2008.48+1814.47+2039.33C1819.29+2070.18+1833.21+2110.21+1794.58+2083.87C1755.96+2057.53+1707.96+1968.49+1677.19+1937.74C1530.66+1791.28+1320.51+1499.14+1192.68+1334.2C1164.02+1297.23+1448.2+1355.22+1483.29+1226.45" opacity="1" fill="#2b343d"/>
<path stroke="#6e6865" stroke-width="1" d="M633.051+1841.08C663.933+1847.57+637.897+2000.88+632.457+2059.54C627.017+2118.2+627.721+2251.02+633.007+2294.23C647.171+2410.02+896.486+2820.1+1006.76+2843.88C1243.36+2894.91+981.866+2536.79+943.346+2456.29C911.548+2389.83+861.058+2317.48+844.388+2251.04C834.414+2211.29+847.638+2178.04+855.27+2140.41C870.024+2067.67+902.911+1935.92+894.193+1919.57C887.044+1906.16+612.049+1836.66+633.051+1841.08Z" fill="#988174" stroke-linecap="butt" opacity="1" stroke-linejoin="round"/>
<path stroke="#6e6865" stroke-width="1" d="M1801.45+1746.65C1796.76+1788.45+1794.65+1857.36+1793.15+1886.38C1792.45+1900.09+1802.64+1930.88+1810.41+1976C1818.18+2021.12+1820.73+2044.63+1821.35+2058.69C1822.8+2091.45+1831.78+2179.99+1833.98+2236.87C1836.17+2293.75+1845.67+2313.98+1855.72+2374.27C1863.77+2422.57+1871.91+2605.4+1965.79+2542.81C2048.22+2487.85+2051.65+2329.91+2038.76+2201.06C2029.19+2105.39+2010.62+2025.76+2008.72+2016.25C2004.26+1993.95+1999.4+1974+1996.13+1954.4C1992.77+1934.19+1972.61+1750.35+1963.76+1724.41C1954.9+1698.47+1961.14+1672.1+1953.14+1687.24C1937.21+1717.34+1926.93+1720.55+1900.03+1733.37C1864.52+1750.3+1862.86+1750.44+1840.95+1752.62C1817.58+1754.95+1803.6+1751.21+1803.77+1751.3" fill="#988174" stroke-linecap="butt" opacity="1" stroke-linejoin="round"/>
<path stroke="#5e595a" stroke-width="1" d="M1487.42+755.035C1490.76+735.947+1479.33+688.84+1472.3+635.989C1465.27+583.138+1439.98+518.712+1398.99+477.723C1254.51+333.24+975.293+439.283+937.044+630.528C933.728+647.108+993.828+699.811+986.678+744.989C984.352+759.68+986.535+781.748+995.117+793.898C997.055+796.642+1003.47+804.777+1005.54+805.533C1016.75+809.636+1016.02+813.733+1019.5+816.819C1021.41+818.508+1033.32+881.53+1039.21+891.366C1045.11+901.202+1052.82+930.618+1053.32+930.399C1053.57+930.29+1065.4+955.673+1068.17+960.476C1070.15+963.91+1073.53+961.397+1073.8+960.868C1075.61+957.309+1060.83+927.367+1057.93+922.133C1054.63+916.183+1043.84+880.124+1041.7+871.158C1039.6+862.41+1035.11+843.003+1034.16+833.494C1033.19+823.802+1034.89+810.421+1034.88+809.672C1034.77+795.071+1024.75+659.522+1081.06+606.002C1116.85+571.993+1166.44+547.707+1185.65+543.865C1198.44+541.308+1230.53+536.551+1253.64+534.461C1276.76+532.37+1319.64+530.002+1331.01+532.059C1397.26+544.041+1394.59+594.757+1423.05+665.899C1427.68+677.482+1442.79+728.593+1445.81+752.845C1447.22+764.161+1453.62+790.479+1453.86+807.464C1453.9+810.499+1455.94+834.611+1455.18+846.526C1454.5+857.162+1452.42+870.719+1451.57+886.386C1451.37+890.019+1450.08+909.96+1450.25+914.443C1450.43+918.926+1453.7+914.972+1453.92+914.627C1454.07+914.378+1453.17+908.118+1453.45+906.301C1453.73+904.484+1455.57+890.153+1456.22+886.166C1457.32+879.431+1458.45+872.827+1459.49+870.442C1461.02+866.959+1462.81+863.879+1463.69+863.223C1464.57+862.567+1464.22+860.094+1464.01+858.893C1461.48+844.693+1462.93+844.469+1463.13+837.787C1463.34+831.104+1464.52+813.002+1464.78+804.065C1465.1+793.09+1463.97+781.151+1463.99+777.712C1464.03+771.473+1469.33+762.189+1486.78+758.543" fill="#5e5249" stroke-linecap="butt" opacity="1" stroke-linejoin="round"/>
<path d="M1271.22+803.246C1262.44+785.034+1260.67+759.643+1276.77+742.516C1292.86+725.389+1327.33+715.778+1346.21+714.708C1371.34+713.284+1384.55+717.193+1396.37+734.097C1401.88+741.985+1409.98+751.665+1409.69+764.638C1409.35+779.469+1407+799.934+1397.35+812.434C1387.71+824.933+1373.33+839.764+1349+840.782C1324.67+841.801+1307.07+836.412+1299.79+831.397C1290.15+824.758+1275.03+811.153+1271.22+803.246Z" fill-opacity="0.434298" fill="#ffffff" opacity="1"/>
<path d="M1264+745.436C1265.04+744.857+1235.17+744.912+1227.61+745.244C1220.05+745.577+1202.29+752.757+1203.94+753.426C1212.49+756.894+1211.09+766.588+1214.26+774.745C1217.42+782.901+1216.2+786.362+1218.21+782.657C1225.17+769.818+1225.19+767.681+1234.6+766.733C1250.98+765.084+1251.76+779.902+1253.31+774.617C1256.39+764.129+1251.99+752.144+1264+745.436Z" opacity="1" fill="#2c2b32"/>
<path d="M1065.88+821.229C1064.47+816.016+1062.41+808.766+1061.04+804.429C1054.96+785.221+1056.68+776.124+1071.13+758.579C1088.84+737.072+1134.71+733.699+1153.5+735.787C1172.29+737.875+1189.24+745.794+1201.06+762.698C1212.88+779.603+1213.08+787.339+1201.75+814.201C1189.22+843.896+1158.59+862.044+1134.94+861.528C1111.29+861.011+1073.54+849.532+1065.88+821.229Z" fill-opacity="0.434298" fill="#ffffff" opacity="1"/>
<path d="M1465.18+735.15C1455.1+726.899+1434.12+717.418+1426.42+714.478C1424.31+713.67+1422+713.77+1419.05+714.722C1415.48+715.876+1411.46+715.359+1408.49+714.528C1373.73+704.817+1300.67+712.553+1277.32+728.371C1273.38+731.044+1264.59+735.826+1260.75+744.217C1259.94+745.992+1249.41+765.662+1253.87+779.902C1258.33+794.141+1264.95+805.231+1272.39+814.401C1280.54+824.442+1285.07+827.616+1287.99+830.305C1306.12+846.992+1335.03+844.22+1343.81+844.242C1360.91+844.283+1379.32+833.995+1384.61+829.796C1397.11+819.873+1408.7+803.72+1411.49+786.298C1414.42+768.03+1411.04+732.555+1409.05+725.937C1407.79+721.76+1407.02+738.32+1406.63+752.928C1406.4+761.471+1406.3+769.347+1406.3+772.016C1406.31+779.25+1404.28+792.255+1397.2+804.548C1392.08+813.421+1381.61+822.388+1373.69+828.592C1362.86+837.066+1326.28+839.318+1308.41+832.665C1290.54+826.012+1279.01+806.609+1273.48+800.805C1261.07+787.767+1263.81+750.351+1283.22+737.414C1290.73+732.405+1309.94+722.964+1331.24+720.035C1351.45+717.258+1373.76+720.799+1382+723.039C1386.81+724.346+1390.18+726.245+1395.06+731.413C1397.42+733.909+1407.22+750.784+1406.76+758.72C1404.73+794.045+1410.07+764.275+1410.44+765.836C1412.32+773.667+1412.67+740.523+1420.01+736.845C1431.49+731.09+1453.62+747.952+1464.81+757.039" opacity="1" fill="#2c2b32"/>
<path d="M1206.07+753.263C1231.26+793.243+1209.52+834.353+1174.07+853.772C1158.95+862.058+1149.4+865.393+1129.42+865.801C1109.45+866.209+1101.71+859.361+1094.15+855.403C1082.72+849.414+1074.45+841.451+1064.18+822.987C1047.13+792.322+1062.81+783.071+1043.62+773.992C1043.16+773.774+1041.55+779.562+1034.42+795.056C1032.7+798.779+1031.84+814.762+1028.71+814.424C1021.17+813.609+1016.43+814.534+1015.34+809.293C1012.29+794.631+1014.24+803.823+1032.99+759.786C1034.47+756.306+1052.96+753.102+1055.62+751.631C1073.28+741.884+1168.59+715.328+1198.02+743.121C1215.66+759.786+1217.24+782.74+1193.03+755.3C1186.48+747.865+1160.56+739.998+1150.83+737.767C1128.55+732.659+1103.75+743.175+1092.12+748.165C1080.67+753.073+1061.96+776.84+1063.17+796.161C1063.62+803.259+1064.38+814.883+1073+826.283C1086.2+843.749+1110.64+854.515+1125.55+857.646C1141.77+861.051+1159.66+855.94+1177.13+843.375C1200.37+826.657+1220.55+786.937+1194.46+755.097" opacity="1" fill="#2c2b32"/>
<path stroke="#42373a" stroke-width="1" d="M1260.69+729.091C1267.45+719.962+1273.92+707.727+1282.63+700.116L1282.96+700.382C1283.11+700.772+1270.99+717.78+1269.71+719.467C1267.09+722.918+1264.42+726.324+1261.77+729.752" fill="#42373a" stroke-linecap="butt" opacity="1" stroke-linejoin="round"/>
<path stroke="#42373a" stroke-width="1" d="M1260.82+730.847C1265.77+724.552+1281.61+702.938+1290.37+703.171L1290.43+703.415C1281.85+703.666+1266.21+724.812+1261.14+731.039" fill="#42373a" stroke-linecap="butt" opacity="1" stroke-linejoin="round"/>
<path stroke="#42373a" stroke-width="1" d="M1270.23+716.128C1279.27+708.083+1284.67+701.205+1296.19+699.751L1296.28+700.24C1284.89+701.649+1279.46+708.449+1270.5+716.333" fill="#42373a" stroke-linecap="butt" opacity="1" stroke-linejoin="round"/>
<path stroke="#42373a" stroke-width="1" d="M1257.61+730.36C1271.99+714.538+1288.46+699.01+1310.36+695.609L1310.52+696.264C1289.3+700.048+1271.68+714.882+1257.75+730.512" fill="#42373a" stroke-linecap="butt" opacity="1" stroke-linejoin="round"/>
<path stroke="#42373a" stroke-width="1" d="M1275.61+723.183C1281.23+719.444+1286.12+713.896+1292.67+712.262L1293.21+713.096C1286.7+714.728+1281.86+720.262+1276.28+723.991" fill="#42373a" stroke-linecap="butt" opacity="1" stroke-linejoin="round"/>
<path stroke="#42373a" stroke-width="1" d="M1274.15+724.369C1283.42+717.683+1292.15+713.235+1302.71+709.13L1302.95+709.632C1293.57+715.439+1283.8+717.974+1274.7+724.833" fill="#42373a" stroke-linecap="butt" opacity="1" stroke-linejoin="round"/>
<path stroke="#42373a" stroke-width="1" d="M1270.98+718.667C1277.78+712.809+1286.39+703.621+1295.52+700.817L1295.94+701.71C1287.46+704.793+1278.31+714.062+1271.78+719.374" fill="#42373a" stroke-linecap="butt" opacity="1" stroke-linejoin="round"/>
<path stroke="#42373a" stroke-width="1" d="M1266.31+719.846C1275+713.202+1289.67+700.512+1301.71+699.929L1301.92+700.57C1291.23+708.218+1278.25+712.921+1267.31+720.732" fill="#42373a" stroke-linecap="butt" opacity="1" stroke-linejoin="round"/>
<path stroke="#42373a" stroke-width="1" d="M1275.05+718.595C1280.12+715.483+1304.46+701.97+1311.42+705.126L1311.5+706.027C1306.83+709.249+1296.37+710.273+1291.06+711.944C1283.81+714.23+1284.68+714.513+1275.82+719.447" fill="#42373a" stroke-linecap="butt" opacity="1" stroke-linejoin="round"/>
<path stroke="#42373a" stroke-width="1" d="M1290.82+715.551C1299.79+711.475+1308.74+707.558+1318.06+704.397L1318.55+705.741C1309.3+708.774+1300.05+712.245+1291+715.895" fill="#42373a" stroke-linecap="butt" opacity="1" stroke-linejoin="round"/>
<path stroke="#42373a" stroke-width="1" d="M1304.24+713.91C1307.37+712.821+1321.64+705.623+1325.41+709.41L1325.41+710.367C1323.75+712.033+1307.19+713.802+1304.47+714.492" fill="#42373a" stroke-linecap="butt" opacity="1" stroke-linejoin="round"/>
<path stroke="#42373a" stroke-width="1" d="M1305+716.171C1310.07+714.01+1324.62+707.377+1331.66+709.019L1331.85+710.251C1323.12+713.007+1313.94+713.971+1305.23+716.797" fill="#42373a" stroke-linecap="butt" opacity="1" stroke-linejoin="round"/>
<path stroke="#42373a" stroke-width="1" d="M1306.78+715.216C1309.67+713.999+1318.79+708.834+1323.82+708.944L1323.95+709.819C1317.97+709.998+1312.62+713.685+1307+715.723" fill="#42373a" stroke-linecap="butt" opacity="1" stroke-linejoin="round"/>
<path stroke="#42373a" stroke-width="1" d="M1289.39+720.483C1296.52+715.957+1304.59+711.896+1311.11+706.461L1311.3+706.721C1304.77+712.154+1296.89+716.343+1289.89+721.11" fill="#42373a" stroke-linecap="butt" opacity="1" stroke-linejoin="round"/>
<path stroke="#42373a" stroke-width="1" d="M1300.99+704.895C1307.09+702.969+1322.55+695.621+1330.36+698.814L1330.1+700.669C1327.3+698.835+1317.04+701.72+1314.46+702.256C1310+703.185+1305.57+704.247+1301.12+705.243" fill="#42373a" stroke-linecap="butt" opacity="1" stroke-linejoin="round"/>
<path stroke="#42373a" stroke-width="1" d="M1307.49+702.767C1319.7+700.253+1340.27+692.821+1352.96+697.968L1352.65+699.486C1339.62+696.554+1320.19+701.556+1307.81+703.82" fill="#42373a" stroke-linecap="butt" opacity="1" stroke-linejoin="round"/>
<path stroke="#42373a" stroke-width="1" d="M1312.69+701.186C1327.39+700.338+1343.37+696.978+1357.41+703.325L1356.82+705.291C1342.78+700.448+1327.17+702.688+1312.76+701.849" fill="#42373a" stroke-linecap="butt" opacity="1" stroke-linejoin="round"/>
<path stroke="#42373a" stroke-width="1" d="M1302.28+697.061C1310.91+695.591+1319.54+693.081+1328.29+693.378C1330.06+693.438+1337.5+693.188+1337.48+696.3L1337.19+696.588C1337.15+694.956+1325.26+695.86+1324.36+695.961C1317.18+696.774+1310.04+697.901+1302.88+698.871" fill="#42373a" stroke-linecap="butt" opacity="1" stroke-linejoin="round"/>
<path stroke="#42373a" stroke-width="1" d="M1304.17+701.498C1317.86+697.068+1334.42+698.487+1348.57+699.595C1350.09+699.714+1362.77+701.223+1359.27+704.116L1359.02+703.992C1361.12+703.815+1355.05+702.425+1352.95+702.266C1349.67+702.018+1346.38+701.892+1343.11+701.644C1330.52+700.69+1316.93+699.499+1304.54+702.551" fill="#42373a" stroke-linecap="butt" opacity="1" stroke-linejoin="round"/>
<path stroke="#42373a" stroke-width="1" d="M1343.93+704.59C1351.26+705.338+1358.58+706.109+1365.89+707.047C1367.07+707.198+1376.7+708.936+1369.86+709.134L1369.74+708.614C1370.59+708.347+1372.96+708.579+1372.34+709.208C1371.91+709.641+1368.76+709.337+1368.66+709.334C1360.55+709.069+1351.72+706.87+1343.93+705.548" fill="#42373a" stroke-linecap="butt" opacity="1" stroke-linejoin="round"/>
<path stroke="#42373a" stroke-width="1" d="M1347.41+706.88C1355.34+706.503+1364.88+704.697+1372.69+707.837L1372.5+708.896C1367.16+710.703+1351.48+708.017+1347.55+707.823" fill="#42373a" stroke-linecap="butt" opacity="1" stroke-linejoin="round"/>
<path stroke="#42373a" stroke-width="1" d="M1344.15+707.557C1353.35+707.07+1362.59+706.537+1371.77+706.023C1377.73+705.688+1369.32+708.896+1365.75+708.757L1365.73+708.484C1384.5+707.739+1361.32+708.421+1356.39+708.298C1352.33+708.197+1348.27+708.207+1344.21+708.161" fill="#42373a" stroke-linecap="butt" opacity="1" stroke-linejoin="round"/>
<path stroke="#42373a" stroke-width="1" d="M1337.37+705.9C1346.81+702.185+1358+701.622+1368.03+703.064L1368.03+703.523C1357.9+704.979+1347.85+704.034+1337.8+706.774" fill="#42373a" stroke-linecap="butt" opacity="1" stroke-linejoin="round"/>
<path stroke="#42373a" stroke-width="1" d="M1332.59+704.548C1337.61+703.784+1342.6+702.778+1347.63+702.134C1350.56+701.76+1376.52+699.918+1376.01+705.504L1375.77+705.649C1374.66+701.684+1350.75+703.099+1347.83+703.438C1343.43+703.949+1339.06+704.726+1334.67+705.36C1334.09+705.443+1333.51+705.513+1332.94+705.59" fill="#42373a" stroke-linecap="butt" opacity="1" stroke-linejoin="round"/>
<path stroke="#42373a" stroke-width="1" d="M1354.8+703.711C1365.04+703.312+1367.02+702.78+1375.39+703.523C1377.83+703.739+1387.09+707.17+1379.75+708.129L1379.63+707.589C1385.47+705.232+1370.68+704.498+1369.07+704.443C1364.34+704.283+1359.6+704.413+1354.87+704.397" fill="#42373a" stroke-linecap="butt" opacity="1" stroke-linejoin="round"/>
<path stroke="#42373a" stroke-width="1" d="M1359.4+703.446C1365.51+703.497+1375.34+702.398+1375.62+705.847L1375.14+706.32C1375.44+705.484+1370.29+705.154+1369.76+705.082C1366.3+704.614+1362.85+704.126+1359.4+703.647" fill="#42373a" stroke-linecap="butt" opacity="1" stroke-linejoin="round"/>
<path stroke="#42373a" stroke-width="1" d="M1341.39+704.282C1350+703.294+1358.33+702.451+1366.9+704.072C1369.44+704.551+1376.8+707.145+1371.82+709.839L1371.33+709.431C1374.22+709.313+1370.86+707.476+1369.85+707.07C1366.72+705.812+1363.46+705.501+1360.14+704.916C1353.94+703.822+1347.65+704.156+1341.39+704.334" fill="#42373a" stroke-linecap="butt" opacity="1" stroke-linejoin="round"/>
<path stroke="#42373a" stroke-width="1" d="M1356.32+706.26C1362.13+705.047+1368.18+705.55+1374.11+705.73C1375.89+705.784+1383.21+706.749+1383.23+709.653L1382.76+710.124C1382.79+708.748+1374.55+707.483+1374.11+707.451C1368.22+707.024+1362.29+706.461+1356.4+706.922" fill="#42373a" stroke-linecap="butt" opacity="1" stroke-linejoin="round"/>
<path stroke="#42373a" stroke-width="1" d="M1370.53+708.159C1372.75+708.069+1391.55+706.651+1387.1+711.098L1386.5+710.201C1387.25+711.73+1374.32+709.234+1370.59+709.081" fill="#42373a" stroke-linecap="butt" opacity="1" stroke-linejoin="round"/>
<path stroke="#42373a" stroke-width="1" d="M1346.21+709.212C1349.05+708.572+1352.04+708.385+1354.7+707.192L1354.97+708.527C1352.37+709.943+1349.14+709.617+1346.21+710.058" fill="#42373a" stroke-linecap="butt" opacity="1" stroke-linejoin="round"/>
<path stroke="#42373a" stroke-width="1" d="M1336.05+709.848C1339.86+709.523+1343.67+709.179+1347.48+708.874C1361.78+707.73+1322.67+713.977+1319.56+714.725L1319.08+713.677C1324.89+709.193+1335.37+708.852+1342.09+708.516C1343.86+708.428+1348.99+707.642+1350.63+708.693C1350.92+708.879+1351.54+709.543+1351.54+709.197C1351.54+708.729+1347.79+708.847+1347.48+708.874C1343.67+709.204+1339.87+709.577+1336.07+709.929" fill="#42373a" stroke-linecap="butt" opacity="1" stroke-linejoin="round"/>
<path stroke="#42373a" stroke-width="1" d="M1329.53+708.794C1321.93+710.57+1313.11+714.416+1305.26+714.625L1304.97+713.777C1309.53+708.946+1323.51+709.02+1329.41+707.939" fill="#42373a" stroke-linecap="butt" opacity="1" stroke-linejoin="round"/>
<path stroke="#42373a" stroke-width="1" d="M1314.8+707.003C1313.18+707.506+1278.09+721.187+1291.41+715.963L1291.42+715.99C1278.11+721.418+1312.72+707.312+1314.71+706.686" fill="#42373a" stroke-linecap="butt" opacity="1" stroke-linejoin="round"/>
<path stroke="#42373a" stroke-width="1" d="M1316.32+702.871C1312.7+703.908+1309.06+704.845+1305.47+705.982C1302.81+706.827+1286.84+713.96+1289.94+708.987L1290.36+709.268C1286.54+711.433+1302.78+705.931+1305.27+705.17C1308.89+704.062+1312.58+703.185+1316.23+702.193" fill="#42373a" stroke-linecap="butt" opacity="1" stroke-linejoin="round"/>
<path stroke="#42373a" stroke-width="1" d="M1294.1+706.49C1287.88+709.293+1304.04+700.705+1304.36+700.595C1308.41+699.173+1317.26+695.381+1321.57+696.516L1321.64+696.879C1314.23+699.207+1306.89+701.236+1299.62+704.024C1297.44+704.859+1287.87+706.483+1293.81+705.677" fill="#42373a" stroke-linecap="butt" opacity="1" stroke-linejoin="round"/>
<path stroke="#42373a" stroke-width="1" d="M1295.51+703.282C1303.66+701.203+1317.34+695.933+1326.66+697.245L1326.69+697.673C1316.01+699.251+1306.57+701.546+1295.94+704.319" fill="#42373a" stroke-linecap="butt" opacity="1" stroke-linejoin="round"/>
<path stroke="#42373a" stroke-width="1" d="M1291.03+712.467C1301.76+706.967+1327.63+698.676+1339.61+700.946L1339.61+702.089C1324.17+706.392+1306.61+709.152+1290.79+711.876" fill="#42373a" stroke-linecap="butt" opacity="1" stroke-linejoin="round"/>
<path stroke="#42373a" stroke-width="1" d="M1309.87+711.209C1314.59+710.033+1319.28+708.722+1324.03+707.681C1327.54+706.912+1331.1+706.383+1334.64+705.781C1336.84+705.407+1342.69+703.601+1344.43+704.928L1344.43+706.225C1343.73+707.276+1336.66+707.211+1334.95+707.4C1326.57+708.329+1318.24+709.837+1310+711.612" fill="#42373a" stroke-linecap="butt" opacity="1" stroke-linejoin="round"/>
<path stroke="#42373a" stroke-width="1" d="M1298.66+717.538C1296.71+718.561+1294.55+720.058+1292.52+720.934L1292.34+720.659C1294.43+719.467+1296.25+718.128+1298.38+716.952" fill="#42373a" stroke-linecap="butt" opacity="1" stroke-linejoin="round"/>
<path stroke="#42373a" stroke-width="1" d="M1300.02+717.434C1293.41+720.301+1286.69+723.103+1280.12+726.089L1279.88+725.65C1284.93+721.036+1293.84+718.431+1299.56+716.042" fill="#42373a" stroke-linecap="butt" opacity="1" stroke-linejoin="round"/>
<path stroke="#42373a" stroke-width="1" d="M1288.55+721.424C1283.5+724.069+1278.99+729.773+1273.31+729.202L1272.99+728.626C1278.67+727.983+1283.08+723.238+1288.19+720.677" fill="#42373a" stroke-linecap="butt" opacity="1" stroke-linejoin="round"/>
<path stroke="#42373a" stroke-width="1" d="M1281.22+722.221C1276.47+725.122+1271.71+728.055+1267.25+731.385C1265.97+732.337+1263.05+735.519+1263.21+733.935L1262.8+733.532C1262.78+733.53+1265.88+729.838+1271.01+726.779C1274.22+724.873+1277.55+723.194+1280.81+721.401" fill="#42373a" stroke-linecap="butt" opacity="1" stroke-linejoin="round"/>
<path stroke="#42373a" stroke-width="1" d="M1268.61+727.966C1268.11+728.604+1260.65+738.528+1264.33+734.447L1264.73+735.05C1259.98+739.484+1266.4+728.86+1268.06+727.325" fill="#42373a" stroke-linecap="butt" opacity="1" stroke-linejoin="round"/>
<path stroke="#42373a" stroke-width="1" d="M1269.03+723.526C1267.45+725.957+1262.78+732.391+1265.54+731.498L1265.54+731.91C1262.52+732.586+1266.63+725.493+1268.65+723.14" fill="#42373a" stroke-linecap="butt" opacity="1" stroke-linejoin="round"/>
<path stroke="#42373a" stroke-width="1" d="M1264.3+731.156C1267.84+725.166+1275.94+723.137+1282.02+720.762L1282.05+720.831C1276.04+723.833+1269.8+728.342+1263.74+730.731" fill="#42373a" stroke-linecap="butt" opacity="1" stroke-linejoin="round"/>
<path stroke="#42373a" stroke-width="1" d="M1271.51+728.776C1274.98+726.722+1278.41+724.61+1281.9+722.614C1284.12+721.349+1289.55+717.83+1292.15+717.941L1292.21+718.071C1287.23+718.296+1274.3+727.579+1271.75+729.052" fill="#42373a" stroke-linecap="butt" opacity="1" stroke-linejoin="round"/>
<path stroke="#42373a" stroke-width="1" d="M1279.18+725.756C1288.04+721.018+1296.62+716.474+1305.8+712.505L1305.95+712.853C1296.79+716.744+1288.14+721.33+1279.31+725.984" fill="#42373a" stroke-linecap="butt" opacity="1" stroke-linejoin="round"/>
<path stroke="#42373a" stroke-width="1" d="M1295.73+716.23C1299.61+714.008+1311.7+709.244+1317.55+710.513L1317.55+711.293C1310.67+713.947+1302.78+713.187+1295.73+716.23" fill="#42373a" stroke-linecap="butt" opacity="1" stroke-linejoin="round"/>
<path stroke="#42373a" stroke-width="1" d="M1299.53+717.732C1302.22+716.925+1308.48+714.309+1312.4+714.163L1312.54+714.746C1309.84+716.578+1300.43+717.593+1299.54+717.772" fill="#42373a" stroke-linecap="butt" opacity="1" stroke-linejoin="round"/>
<path stroke="#42373a" stroke-width="1" d="M1201.12+740.941C1196.67+737.493+1192.37+732.991+1187.04+730.845L1187.23+730.341C1192.53+729.871+1198.52+737.423+1201.63+740.335" fill="#42373a" stroke-linecap="butt" opacity="1" stroke-linejoin="round"/>
<path stroke="#42373a" stroke-width="1" d="M1204.04+742.068C1199.66+737.061+1191.65+729.165+1185.07+726.31L1185.21+725.898C1192.02+726.633+1201.32+736.813+1204.9+741.228" fill="#42373a" stroke-linecap="butt" opacity="1" stroke-linejoin="round"/>
<path stroke="#42373a" stroke-width="1" d="M1205.14+737.682C1201.02+733.091+1195.76+727.041+1190.19+723.743L1190.26+723.636C1195.86+725.044+1203.18+733.172+1206.12+736.888" fill="#42373a" stroke-linecap="butt" opacity="1" stroke-linejoin="round"/>
<path stroke="#42373a" stroke-width="1" d="M1201.55+736.343C1195.94+731.745+1189.29+723.862+1182.57+720.452L1182.77+720.092C1186.06+720.322+1200.75+734.264+1202.21+735.558" fill="#42373a" stroke-linecap="butt" opacity="1" stroke-linejoin="round"/>
<path stroke="#42373a" stroke-width="1" d="M1198.26+741.56C1195.54+739.303+1192.25+734.644+1188.37+734.083L1188.45+733.934C1191.18+733.264+1196.77+739.807+1198.8+740.923" fill="#42373a" stroke-linecap="butt" opacity="1" stroke-linejoin="round"/>
<path stroke="#42373a" stroke-width="1" d="M1204.07+747.03C1197.25+741.055+1189.69+734.056+1181.03+730.733L1181.18+730.408C1189.66+732.251+1198.32+741.062+1204.67+746.331" fill="#42373a" stroke-linecap="butt" opacity="1" stroke-linejoin="round"/>
<path stroke="#42373a" stroke-width="1" d="M1195.52+739.565C1187.45+734.219+1175.39+724.484+1165.27+723.519L1165.36+722.802C1171.79+721.518+1191.14+735.35+1196.2+738.821" fill="#42373a" stroke-linecap="butt" opacity="1" stroke-linejoin="round"/>
<path stroke="#42373a" stroke-width="1" d="M1180.46+730.119C1172.13+726.842+1163.29+724.777+1154.48+723.203C1153.77+723.078+1141.23+721.003+1146.92+721.898L1146.64+722.602C1146.12+722.512+1143.86+721.64+1144.8+720.629C1146.3+719.001+1153.55+721.023+1154.91+721.293C1163.84+723.074+1172.59+725.49+1180.86+729.334" fill="#42373a" stroke-linecap="butt" opacity="1" stroke-linejoin="round"/>
<path stroke="#42373a" stroke-width="1" d="M1168.44+727.926C1165.02+727.161+1161.62+726.327+1158.18+725.631C1154.15+724.816+1131.6+722.053+1146.16+725.386C1147.86+725.774+1149.57+726.128+1151.26+726.54C1151.83+726.678+1152.38+726.87+1152.94+727.035L1152.94+727.035C1149.95+726.15+1150.78+726.344+1146.14+725.494C1141.63+724.667+1136.76+721.374+1144.8+722.365C1152.93+723.366+1160.73+725.153+1168.67+727.174" fill="#42373a" stroke-linecap="butt" opacity="1" stroke-linejoin="round"/>
<path stroke="#42373a" stroke-width="1" d="M1163.73+730.236C1156.31+728.514+1148.82+726.699+1141.18+726.303C1139.6+726.221+1134.94+726.317+1133.32+726.318C1132.4+726.318+1131.48+726.221+1130.56+726.284C1129.92+726.328+1128.11+727.044+1128.7+726.781C1129.85+726.267+1130.51+726.235+1131.78+726.399L1131.61+727.285C1120.09+726.034+1138.83+724.81+1141.37+725.102C1149.04+725.982+1156.36+728.041+1163.75+730.153" fill="#42373a" stroke-linecap="butt" opacity="1" stroke-linejoin="round"/>
<path stroke="#42373a" stroke-width="1" d="M1132.88+726.538C1129.7+726.725+1126.52+726.865+1123.34+727.098C1121.4+727.241+1116.03+729.227+1117.58+728.053C1118.86+727.085+1118.88+727.422+1120.48+727.641L1120.25+728.6C1118.67+728.304+1117.3+728.668+1117+726.668C1116.8+725.327+1123.32+725.399+1123.37+725.401C1126.56+725.51+1129.74+725.766+1132.92+725.948" fill="#42373a" stroke-linecap="butt" opacity="1" stroke-linejoin="round"/>
<path stroke="#42373a" stroke-width="1" d="M1133.1+731C1124.82+730.802+1116.92+730.728+1108.69+731.444C1107.42+731.554+1098.25+734.003+1100.68+732.439L1100.36+733.243C1096.3+728.459+1120.42+729.501+1122.81+729.624C1126.26+729.801+1129.7+730.037+1133.15+730.244" fill="#42373a" stroke-linecap="butt" opacity="1" stroke-linejoin="round"/>
<path stroke="#42373a" stroke-width="1" d="M1115.73+733.177C1107.18+733.694+1098.55+734.321+1090.14+736.057C1088.7+736.355+1085.49+736.579+1086.13+737.902C1086.42+738.493+1087.33+737.347+1087.94+737.116L1087.73+738.122C1077.06+734.733+1103.94+733.216+1108.97+733.011C1111.22+732.919+1113.48+732.901+1115.73+732.846" fill="#42373a" stroke-linecap="butt" opacity="1" stroke-linejoin="round"/>
<path stroke="#42373a" stroke-width="1" d="M1101.81+736.742C1097.87+737.094+1093.91+737.416+1090+738.034C1088.02+738.346+1082.87+740.791+1084.11+739.223L1083.5+738.917C1083.17+736.811+1088.77+736.713+1089.9+736.616C1095.09+736.168+1094.73+736.35+1101.82+736.27" fill="#42373a" stroke-linecap="butt" opacity="1" stroke-linejoin="round"/>
<path stroke="#42373a" stroke-width="1" d="M1083.45+739.219C1081.32+739.605+1079.17+739.941+1077.05+740.377C1075.93+740.606+1072.79+742.018+1073.79+741.469L1073.32+741.067C1072.77+739.502+1075.42+739.299+1083.35+738.231" fill="#42373a" stroke-linecap="butt" opacity="1" stroke-linejoin="round"/>
<path stroke="#42373a" stroke-width="1" d="M1077.37+741.827C1076.53+742.081+1069.12+744.644+1070.16+744.786L1069.71+744.607C1068.68+742.236+1076.04+741.413+1077.31+741.111" fill="#42373a" stroke-linecap="butt" opacity="1" stroke-linejoin="round"/>
<path stroke="#42373a" stroke-width="1" d="M1076.68+742.943C1074.65+743.91+1068.98+745.835+1072.42+744.957L1072.56+745.536C1068.34+747.699+1071.82+743.608+1076.39+741.881" fill="#42373a" stroke-linecap="butt" opacity="1" stroke-linejoin="round"/>
<path stroke="#42373a" stroke-width="1" d="M1075.26+742.734C1072.58+744.007+1071.14+744.406+1069.11+745.926C1068.92+746.066+1067.85+746.968+1068.35+746.953L1067.85+746.752C1065.94+744.614+1072.4+743.146+1075.05+742.059" fill="#42373a" stroke-linecap="butt" opacity="1" stroke-linejoin="round"/>
<path stroke="#42373a" stroke-width="1" d="M1077.43+740.963C1072+742.497+1074.01+741.874+1070.61+742.953C1070.29+743.052+1069.42+743.44+1069.75+743.426L1069.16+743.28C1068.62+740.454+1074.59+741.34+1077.4+740.707" fill="#42373a" stroke-linecap="butt" opacity="1" stroke-linejoin="round"/>
<path stroke="#42373a" stroke-width="1" d="M1081.07+738.165C1076.91+738.917+1076.34+738.749+1073.39+739.814C1072.97+739.965+1071.47+741.032+1072.76+740.984L1071.82+741.251C1069.6+737.244+1080.28+737.259+1081.04+737.147" fill="#42373a" stroke-linecap="butt" opacity="1" stroke-linejoin="round"/>
<path stroke="#42373a" stroke-width="1" d="M1084.74+738.949C1081.55+738.824+1078.4+738.834+1075.3+739.556C1074.96+739.634+1071.64+740.495+1071.91+741.171L1071.39+740.913C1071.53+736.766+1083.62+738.006+1084.79+738.034" fill="#42373a" stroke-linecap="butt" opacity="1" stroke-linejoin="round"/>
<path stroke="#42373a" stroke-width="1" d="M1081.09+737.025C1086.41+736.435+1091.29+735.172+1096.43+737.126L1096.3+737.759C1091.32+736.297+1086.3+736.996+1081.21+737.519" fill="#42373a" stroke-linecap="butt" opacity="1" stroke-linejoin="round"/>
<path stroke="#42373a" stroke-width="1" d="M1079.6+735.915C1086.77+735.694+1094.98+735.227+1101.52+738.838L1101.28+739.515C1094.69+736.616+1086.78+736.743+1079.78+736.6" fill="#42373a" stroke-linecap="butt" opacity="1" stroke-linejoin="round"/>
<path stroke="#42373a" stroke-width="1" d="M1077.17+741.493C1079.85+740.988+1086.93+738.631+1090.15+739.601L1090.15+740.042C1086.59+739.376+1080.38+741.526+1077.32+742.214" fill="#42373a" stroke-linecap="butt" opacity="1" stroke-linejoin="round"/>
<path stroke="#42373a" stroke-width="1" d="M1082.37+741.571C1083.61+741.305+1084.84+741.039+1086.08+740.773L1086.08+740.773C1084.84+741.039+1083.61+741.305+1082.37+741.571" fill="#42373a" stroke-linecap="butt" opacity="1" stroke-linejoin="round"/>
<path stroke="#42373a" stroke-width="1" d="M1080.13+741.142C1077.43+741.634+1074.14+740.815+1072.03+742.556L1072.01+742.484C1073.5+740.175+1077.3+741.006+1079.97+740.36" fill="#42373a" stroke-linecap="butt" opacity="1" stroke-linejoin="round"/>
<path stroke="#42373a" stroke-width="1" d="M1094.37+737.355C1093.84+737.332+1083.63+736.823+1083.63+736.823L1083.12+736.864C1082.23+733.58+1094.22+736.051+1094.47+736.081" fill="#42373a" stroke-linecap="butt" opacity="1" stroke-linejoin="round"/>
<path stroke="#42373a" stroke-width="1" d="M1102.26+737.733C1099.14+736.576+1084.76+732.38+1080.86+735.215L1080.55+734.375C1085.25+731.06+1098.42+734.9+1102.49+736.697" fill="#42373a" stroke-linecap="butt" opacity="1" stroke-linejoin="round"/>
<path stroke="#42373a" stroke-width="1" d="M1096.92+730.615C1093.46+729.932+1089.9+729.775+1086.37+729.711C1086.02+729.705+1084.08+730.23+1084.93+730.351L1084.56+730.306C1082.93+727.375+1095.52+729.243+1097.15+729.593" fill="#42373a" stroke-linecap="butt" opacity="1" stroke-linejoin="round"/>
<path stroke="#42373a" stroke-width="1" d="M1097.78+732.623C1094.96+732.571+1092.14+732.512+1089.32+732.466C1087.73+732.44+1072.44+733.898+1079+734.061L1078.83+734.809C1071.77+734.555+1080.1+731.504+1082.08+731.203C1087.35+730.402+1092.61+731.256+1097.88+731.728" fill="#42373a" stroke-linecap="butt" opacity="1" stroke-linejoin="round"/>
<path stroke="#42373a" stroke-width="1" d="M1104.22+733.548C1098.07+733.232+1092.42+733.217+1086.32+733.444C1083.14+733.562+1083.14+733.709+1080.27+733.929C1079.71+733.972+1078.2+734.523+1078.59+734.109C1079.5+733.129+1079.09+733.249+1080.16+733.602L1080.09+734.071C1074.55+733.705+1085.41+731.763+1086.29+731.738C1092.4+731.557+1098.27+731.992+1104.38+732.536" fill="#42373a" stroke-linecap="butt" opacity="1" stroke-linejoin="round"/>
<path stroke="#42373a" stroke-width="1" d="M1111.49+731.159C1108.03+730.68+1104.58+730.112+1101.11+729.72C1099.28+729.514+1078.61+727.448+1086.36+729.385L1086.27+729.765C1085.85+729.723+1082.56+728.657+1084.05+727.976C1086.59+726.815+1089.64+727.632+1092.43+727.707C1099.11+727.886+1104.96+729.09+1111.58+730.507" fill="#42373a" stroke-linecap="butt" opacity="1" stroke-linejoin="round"/>
<path stroke="#42373a" stroke-width="1" d="M1113.19+730.06C1109.5+729.45+1105.82+728.705+1102.11+728.231C1100.14+727.98+1080.92+725.453+1089.27+727.803L1089.15+728.374C1077.31+725.851+1100.85+726.637+1102.36+726.878C1106.08+727.471+1109.75+728.334+1113.45+729.062" fill="#42373a" stroke-linecap="butt" opacity="1" stroke-linejoin="round"/>
<path stroke="#42373a" stroke-width="1" d="M1118.77+730.122C1115.47+729.59+1112.18+729.025+1108.88+728.526C1106.88+728.224+1090.07+725.536+1095.25+727.328L1095.16+727.896C1086.01+726.406+1107.55+726.73+1109.19+727.008C1112.52+727.574+1115.84+728.239+1119.17+728.855" fill="#42373a" stroke-linecap="butt" opacity="1" stroke-linejoin="round"/>
<path stroke="#42373a" stroke-width="1" d="M1122.86+728.031C1115.99+727.17+1109.34+726.253+1102.44+726.216C1102.02+726.214+1093.43+727.08+1095.36+727.177L1094.74+727.317C1093.28+723.912+1110.19+725.197+1112+725.413C1115.7+725.855+1119.37+726.501+1123.05+727.044" fill="#42373a" stroke-linecap="butt" opacity="1" stroke-linejoin="round"/>
<path stroke="#42373a" stroke-width="1" d="M1121.52+724.937C1115.58+724.7+1108.32+724.28+1102.02+724.305C1098.9+724.317+1098.57+724.346+1095.82+724.667C1095.42+724.713+1094.3+725.175+1094.68+725.061C1096.55+724.509+1098+724.444+1099.99+724.451L1100+724.985C1092.05+726.24+1094.68+722.962+1102.08+723.045C1108.61+723.119+1115.13+723.651+1121.65+724.076" fill="#42373a" stroke-linecap="butt" opacity="1" stroke-linejoin="round"/>
<path stroke="#42373a" stroke-width="1" d="M1126.44+723.342C1124.15+723.317+1121.85+723.197+1119.56+723.269C1115.52+723.395+1111.49+723.666+1107.48+724.171C1101.84+724.884+1105.56+724.258+1100.82+725.156C1100.71+725.177+1100.37+725.262+1100.48+725.218C1102.3+724.476+1102.04+724.801+1104.67+724.816L1104.66+725.132C1095.73+725.851+1104.05+723.467+1107.41+723.074C1113.79+722.326+1120.11+722.304+1126.52+722.38" fill="#42373a" stroke-linecap="butt" opacity="1" stroke-linejoin="round"/>
<path stroke="#42373a" stroke-width="1" d="M1129.33+723.411C1124.77+723.326+1120.21+723.212+1115.65+723.154C1111.35+723.1+1102.3+724.413+1105.47+723.369L1105.39+723.694C1102.17+722.426+1112.22+722.23+1115.68+722.28C1120.26+722.345+1124.85+722.495+1129.43+722.602" fill="#42373a" stroke-linecap="butt" opacity="1" stroke-linejoin="round"/>
<path stroke="#42373a" stroke-width="1" d="M1133.27+721.564C1129.33+721.622+1125.39+721.616+1121.46+721.737C1119.84+721.787+1115.05+722.5+1116.65+722.341C1117.67+722.241+1118.69+722.064+1119.7+722.144L1119.62+722.654C1118.8+722.565+1116.73+722.948+1116.56+721.436C1116.37+719.804+1119.82+720.997+1121.47+721.015C1125.41+721.059+1129.34+721.217+1133.28+721.318" fill="#42373a" stroke-linecap="butt" opacity="1" stroke-linejoin="round"/>
<path stroke="#42373a" stroke-width="1" d="M1142.59+723.941C1137.34+724.106+1130.43+725.137+1124.94+724.977L1124.8+724.518C1129.52+721.607+1138.17+723.049+1142.64+723.231" fill="#42373a" stroke-linecap="butt" opacity="1" stroke-linejoin="round"/>
<path stroke="#42373a" stroke-width="1" d="M1144.44+724.928C1133.82+724.249+1123.78+724.416+1113.28+725.52L1113.19+725.074C1121.97+720.333+1135.49+722.815+1144.68+723.694" fill="#42373a" stroke-linecap="butt" opacity="1" stroke-linejoin="round"/>
<path stroke="#42373a" stroke-width="1" d="M1132.58+723.934C1139.39+723.879+1150.18+723.195+1155.49+728.606L1154.96+729.37C1148.91+725.348+1139.55+725.109+1132.64+724.329" fill="#42373a" stroke-linecap="butt" opacity="1" stroke-linejoin="round"/>
<path stroke="#42373a" stroke-width="1" d="M1125.21+725.854C1131.46+725.697+1140.15+726.607+1146.18+728.946L1145.99+729.731C1140.43+727.384+1130.97+726.368+1125.22+726.097" fill="#42373a" stroke-linecap="butt" opacity="1" stroke-linejoin="round"/>
<path stroke="#42373a" stroke-width="1" d="M1126.52+728.16C1131.73+728.557+1136.74+729.037+1141.88+729.778L1141.84+730.075C1136.69+729.451+1131.81+729.059+1126.58+728.855" fill="#42373a" stroke-linecap="butt" opacity="1" stroke-linejoin="round"/>
<path stroke="#42373a" stroke-width="1" d="M1145.74+730.336C1141.63+730.345+1137.52+730.412+1133.41+730.518C1132.7+730.537+1127.51+730.428+1128.05+730.251L1127.56+729.831C1127.8+727.994+1132.41+728.905+1133.45+728.918C1137.57+728.971+1141.68+729.312+1145.79+729.65" fill="#42373a" stroke-linecap="butt" opacity="1" stroke-linejoin="round"/>
<path stroke="#42373a" stroke-width="1" d="M1143.46+730.632C1136.79+730.2+1127.07+732.647+1120.54+731.557L1120.44+730.945C1127.13+728.603+1136.99+728.59+1143.57+729.711" fill="#42373a" stroke-linecap="butt" opacity="1" stroke-linejoin="round"/>
<path stroke="#42373a" stroke-width="1" d="M1123.41+732.187C1119.17+732.365+1113.27+730.235+1110.76+733.659L1110.22+733.198C1112.72+730.282+1120.69+731.561+1123.45+731.606" fill="#42373a" stroke-linecap="butt" opacity="1" stroke-linejoin="round"/>
<path stroke="#42373a" stroke-width="1" d="M1119.99+734.629C1115.4+734.692+1111.24+734.55+1106.72+734.957C1106.2+735.003+1102.23+736.139+1102.98+734.871L1102.68+735.216C1101.26+732.428+1118.33+733.864+1118.84+733.897C1119.21+733.922+1119.59+733.954+1119.97+733.983" fill="#42373a" stroke-linecap="butt" opacity="1" stroke-linejoin="round"/>
<path stroke="#42373a" stroke-width="1" d="M1109.4+734.716C1102.51+734.675+1102.96+734.508+1097.87+734.859C1096.25+734.97+1094.64+735.087+1093.02+735.137C1092.61+735.149+1091.59+735.543+1091.79+735.177C1092.59+733.649+1094.38+734.093+1095.84+734.081L1095.87+734.353C1084.08+736.151+1107.17+733.954+1109.47+734.068" fill="#42373a" stroke-linecap="butt" opacity="1" stroke-linejoin="round"/>
<path stroke="#42373a" stroke-width="1" d="M1102.7+732.656C1100.49+732.499+1089.7+733.596+1090.9+732.767L1090.58+733.466C1087.49+730.786+1098.76+731.497+1102.8+732.169" fill="#42373a" stroke-linecap="butt" opacity="1" stroke-linejoin="round"/>
<path stroke="#42373a" stroke-width="1" d="M1100.24+733.022C1098.08+732.949+1091.67+732.826+1093.78+733.271L1093.47+732.754C1093.57+730.485+1097.99+732.135+1100.26+732.2" fill="#42373a" stroke-linecap="butt" opacity="1" stroke-linejoin="round"/>
<path stroke="#42373a" stroke-width="1" d="M1145.11+729.262C1149.12+729.95+1154.72+730.387+1158.7+732.117L1158.58+732.601C1154.21+731.336+1149.46+730.531+1145.06+729.574" fill="#42373a" stroke-linecap="butt" opacity="1" stroke-linejoin="round"/>
<path stroke="#42373a" stroke-width="1" d="M1139.57+727.569C1144.12+728.368+1149.19+728.872+1153.53+730.573L1153.44+730.947C1148.81+730.007+1144.25+729.068+1139.58+728.378" fill="#42373a" stroke-linecap="butt" opacity="1" stroke-linejoin="round"/>
<path stroke="#42373a" stroke-width="1" d="M1132.74+726.653C1137.37+727.464+1141.59+728.464+1146.08+729.721L1145.94+730.225C1141.5+729.27+1137.18+728.181+1132.69+727.371" fill="#42373a" stroke-linecap="butt" opacity="1" stroke-linejoin="round"/>
<path stroke="#42373a" stroke-width="1" d="M1131.03+727.63C1138.93+727.922+1146.66+729.253+1154.46+729.628L1154.39+730.235C1146.71+730.122+1138.63+728.792+1131.02+728.171" fill="#42373a" stroke-linecap="butt" opacity="1" stroke-linejoin="round"/>
<path stroke="#42373a" stroke-width="1" d="M1152.53+727.877C1154.24+728.156+1175.78+730.164+1174.11+732.752L1173.59+732.307C1174.78+733.38+1165.95+730.814+1165.28+730.67C1160.9+729.725+1157.02+728.754+1152.5+728.269" fill="#42373a" stroke-linecap="butt" opacity="1" stroke-linejoin="round"/>
<path stroke="#42373a" stroke-width="1" d="M1162.09+728.551C1166.47+729.51+1171.37+730.469+1175.42+732.47L1175.31+732.85C1170.87+732.711+1166.33+730.162+1161.93+729.35" fill="#42373a" stroke-linecap="butt" opacity="1" stroke-linejoin="round"/>
<path stroke="#42373a" stroke-width="1" d="M1171.03+729.701C1188.22+732.301+1162.73+725.975+1158.37+724.091L1158.55+723.573C1162.76+725.158+1188.76+732.626+1170.97+730.034" fill="#42373a" stroke-linecap="butt" opacity="1" stroke-linejoin="round"/>
<path stroke="#42373a" stroke-width="1" d="M1180.37+728.777C1175.22+726.84+1170.09+724.946+1165.05+722.768L1165.23+722.325C1170.46+723.617+1176.11+725.704+1180.75+728.18" fill="#42373a" stroke-linecap="butt" opacity="1" stroke-linejoin="round"/>
<path stroke="#42373a" stroke-width="1" d="M1188.84+727.446C1182.32+724.932+1175.75+722.195+1169.1+720.006L1169.27+719.419C1176.22+720.614+1182.91+723.749+1189.36+726.392" fill="#42373a" stroke-linecap="butt" opacity="1" stroke-linejoin="round"/>
<path stroke="#42373a" stroke-width="1" d="M1184.99+724.771C1178+721.581+1171.55+719.384+1164.48+716.851L1164.58+716.03C1171.2+715.648+1180.16+721.245+1185.52+723.902" fill="#42373a" stroke-linecap="butt" opacity="1" stroke-linejoin="round"/>
<path stroke="#42373a" stroke-width="1" d="M1179.88+728.763C1171.74+725.275+1163.32+722.571+1154.69+720.569C1151+719.71+1148.81+719.05+1145.35+718.873C1145.23+718.866+1141.2+719.421+1142.21+719.252L1141.84+719.473C1141.2+718.306+1142.28+717.896+1143.37+717.848C1147.35+717.669+1151.02+718.883+1154.87+719.893C1163.44+722.139+1171.85+724.817+1180.2+727.774" fill="#42373a" stroke-linecap="butt" opacity="1" stroke-linejoin="round"/>
<path stroke="#42373a" stroke-width="1" d="M1166.92+726.378C1156.31+723.014+1145.47+721.603+1134.37+721.019C1130.7+720.826+1127.07+720.833+1123.4+720.732C1122.76+720.715+1122.83+720.771+1123.44+720.505L1123.09+720.202C1122.66+719.593+1137.98+719.849+1139.84+720.078C1149.2+721.226+1158.19+722.89+1167.18+725.696" fill="#42373a" stroke-linecap="butt" opacity="1" stroke-linejoin="round"/>
<path stroke="#42373a" stroke-width="1" d="M1157.13+726.413C1144.73+725.899+1132.38+724.27+1119.93+723.844C1117.43+723.759+1111.85+722.313+1114.7+723.761L1114.56+724.099C1109.84+722.956+1117.1+722.326+1117.73+722.32C1122.15+722.284+1126.56+722.751+1130.98+723.027C1139.86+723.581+1148.38+724.238+1157.15+725.983" fill="#42373a" stroke-linecap="butt" opacity="1" stroke-linejoin="round"/>
<path stroke="#42373a" stroke-width="1" d="M1140.41+727.915C1133.02+726.582+1125.44+725.445+1118.17+723.502L1118.27+723.033C1125.68+724.716+1133.03+725.901+1140.47+727.643" fill="#42373a" stroke-linecap="butt" opacity="1" stroke-linejoin="round"/>
<path stroke="#88715b" stroke-width="1.27" d="M1005.77+591.905C1035.96+520.614+1111.06+473.421+1184.72+456.657C1227.47+446.927+1273.89+452.472+1304.92+485.027L1304.73+485.226C1214.33+402.671+1049.16+496.795+1006.25+591.997" fill="#88715b" stroke-linecap="butt" opacity="1" stroke-linejoin="round"/>
<path stroke="#88715b" stroke-width="1.27" d="M1071.7+556.219C1111.25+514.011+1176.82+488.379+1234.13+488.844C1252.59+488.994+1268.47+498.219+1286.4+499.993L1286.36+500.197C1268.51+499.176+1252.44+489.732+1234.17+489.519C1177.93+488.864+1111.04+515.178+1071.87+556.341" fill="#88715b" stroke-linecap="butt" opacity="1" stroke-linejoin="round"/>
<path stroke="#88715b" stroke-width="1.27" d="M1299.49+533.536C1218.17+502.462+1105.68+507.534+1046.7+580.512L1046.27+580.142C1056.38+564.109+1073.58+552.569+1089.58+543.102C1152.87+505.652+1233.35+507.134+1300.5+531.861" fill="#88715b" stroke-linecap="butt" opacity="1" stroke-linejoin="round"/>
<path stroke="#5e595a" stroke-width="1" d="M1291.72+536.524C1272.35+532.037+1249.99+537.22+1230.34+537.983C1158.07+540.788+1110.05+549.357+1051.11+594.843C1039.85+603.533+996.827+635.969+995.85+651.742L994.821+651.448C994.032+634.621+1038.21+602.02+1049.84+593.096C1109.63+547.251+1157.73+540.627+1230.28+536.692C1250.5+535.595+1272.08+530.568+1292.1+535.17" fill="#5e595a" stroke-linecap="butt" opacity="1" stroke-linejoin="round"/>
<path stroke="#5e595a" stroke-width="1" d="M1064.75+617.727C1055.73+628.452+1044.52+636.949+1033.86+645.938C1031.98+647.522+1027.54+653.118+1028.31+650.784C1029.76+646.341+1035.64+642.449+1039.03+639.651L1039.07+639.694C1006.56+668.647+1060.91+620.487+1064.03+616.909" fill="#5e595a" stroke-linecap="butt" opacity="1" stroke-linejoin="round"/>
<path stroke="#5e595a" stroke-width="1" d="M1052.26+626.073C1047.96+629.577+1043.8+633.245+1039.37+636.584C1034.91+639.953+1021.82+645.233+1020.26+651.156L1020.09+651.041C1019.34+646.245+1035.54+638.189+1038.73+635.807C1043.16+632.505+1047.36+628.904+1051.68+625.453" fill="#5e595a" stroke-linecap="butt" opacity="1" stroke-linejoin="round"/>
<path stroke="#5e595a" stroke-width="1" d="M1050.16+627.945C1038.26+637.409+1026.98+647.568+1014.97+656.871C1011.75+659.365+999.198+673.191+1002.74+668.342L1002.84+668.629C997.39+672.614+1011.84+658.29+1014.45+656.255C1026.48+646.861+1037.67+636.929+1049.8+627.555" fill="#5e595a" stroke-linecap="butt" opacity="1" stroke-linejoin="round"/>
<path stroke="#5e595a" stroke-width="1" d="M1034.77+643.399C1026.35+651.026+1017.41+658.129+1009.54+666.327C1009.04+666.845+999.285+680.248+999.677+677.298L999.937+677.558C997.752+679.793+999.958+675.017+1008.95+665.677C1016.85+657.479+1025.89+650.467+1034.39+642.902" fill="#5e595a" stroke-linecap="butt" opacity="1" stroke-linejoin="round"/>
<path stroke="#5e595a" stroke-width="1" d="M1030.36+656.314C1022.08+664.43+1013.92+672.677+1006.09+681.217C1003.48+684.063+1000.52+686.607+998.148+689.659C997.258+690.807+995.176+694.417+996.413+693.655L996.246+693.987C991.757+692.957+1001.51+684.867+1005.45+680.593C1013.31+672.07+1021.53+663.883+1029.86+655.819" fill="#5e595a" stroke-linecap="butt" opacity="1" stroke-linejoin="round"/>
<path stroke="#5e595a" stroke-width="1" d="M1019.42+672.173C1012.5+678.502+1006.09+685.399+1000.07+692.581C995.812+697.657+991.512+703.793+992.431+703.184L992.28+703.335C990.605+702.829+992.22+701.251+993.023+700.015C999.972+689.322+1009.52+680.178+1018.95+671.753" fill="#5e595a" stroke-linecap="butt" opacity="1" stroke-linejoin="round"/>
<path stroke="#5e595a" stroke-width="1" d="M1018.93+680.643C1009.93+690.666+996.6+698.257+992.259+711.012C992.237+711.076+998.34+708.109+999.728+707.105L999.886+707.363C998.734+708.258+990.887+713.534+991.458+710.411C991.896+708.017+996.655+703.75+997.909+702.385C1004.73+694.958+1011.59+687.578+1018.44+680.174" fill="#5e595a" stroke-linecap="butt" opacity="1" stroke-linejoin="round"/>
<path stroke="#5e595a" stroke-width="1" d="M1021.4+689.542C1014+698.058+1006.49+706.499+999.627+715.451C998.545+716.863+985.804+733.241+994.757+724.986L994.922+725.25C986.206+734.621+997.637+716.655+998.993+714.914C1005.92+706.015+1013.48+697.62+1020.93+689.158" fill="#5e595a" stroke-linecap="butt" opacity="1" stroke-linejoin="round"/>
<path stroke="#5e595a" stroke-width="1" d="M1021.4+697.48C1015.15+704.632+1007.46+712.521+1001.74+720.512C1000.5+722.237+992.434+731.949+999.275+727.024L999.345+727.186C991.131+733.556+1002.33+718.215+1003.89+716.333C1009.35+709.738+1015.14+703.42+1020.93+697.117" fill="#5e595a" stroke-linecap="butt" opacity="1" stroke-linejoin="round"/>
<path stroke="#5e595a" stroke-width="1" d="M1022.64+709.119C1016.1+716.09+996.043+733.104+995.373+744.5L995.299+744.485C994.616+732.098+1014.68+715.484+1021.69+708.33" fill="#5e595a" stroke-linecap="butt" opacity="1" stroke-linejoin="round"/>
<path stroke="#5e595a" stroke-width="1" d="M1024.71+714.253C1016.92+723.845+1008.65+733.095+1001.6+743.244C999.805+745.821+987.068+759.522+995.273+754.83L995.399+755.019C986.193+760.789+999.851+744.349+1001+742.76C1007.64+733.56+1019.27+720.455+1024.58+714.125" fill="#5e595a" stroke-linecap="butt" opacity="1" stroke-linejoin="round"/>
<path stroke="#5e595a" stroke-width="1" d="M1012.43+739.716C1006.02+747.374+999.558+754.98+993.214+762.688C992.004+764.158+984.961+772.942+990.865+771.183L990.865+771.453C984.181+772.302+990.195+764.784+992.49+762.064C998.933+754.428+1005.51+746.91+1012.03+739.332" fill="#5e595a" stroke-linecap="butt" opacity="1" stroke-linejoin="round"/>
<path stroke="#5e595a" stroke-width="1" d="M1024.89+743.149C1018.31+752.84+1011.41+762.359+1005.64+772.554C1003.53+776.278+997.925+787.323+1001.24+784.617L1001.35+784.845C1001.02+785.078+999.046+787.261+997.987+786.111C994.451+782.274+1002.33+776.608+1004.9+772.069C1010.68+761.886+1017.71+752.465+1024.4+742.855" fill="#5e595a" stroke-linecap="butt" opacity="1" stroke-linejoin="round"/>
<path stroke="#5e595a" stroke-width="1" d="M1026.82+758.037C1022.06+764.691+1016.88+771.078+1012.62+778.063C1012.26+778.66+1006.69+788.02+1009.39+787.565L1009.1+787.858C1005.32+787.403+1011.12+778.643+1011.83+777.489C1016.1+770.511+1021.53+764.313+1026.45+757.773" fill="#5e595a" stroke-linecap="butt" opacity="1" stroke-linejoin="round"/>
<path stroke="#5e595a" stroke-width="1" d="M1025.38+766.997C1020.36+774.201+1015.34+781.414+1010.08+788.455C1008.13+791.077+1002.95+795.996+1007.6+791.559L1007.91+791.813C1001.51+798.513+1012.27+784.37+1012.89+783.517C1016.95+777.95+1020.9+772.303+1024.9+766.697" fill="#5e595a" stroke-linecap="butt" opacity="1" stroke-linejoin="round"/>
<path stroke="#5e595a" stroke-width="1" d="M1402.84+575.296C1413.53+577.967+1424.4+579.946+1435.33+581.392C1438.06+581.754+1440.8+582.082+1443.53+582.38C1445.19+582.56+1444.57+579.327+1443.15+583.877L1445.4+581.622C1446.29+590.782+1425.82+582.835+1415.66+580.887C1411.12+580.015+1406.72+578.487+1402.26+577.287" fill="#5e595a" stroke-linecap="butt" opacity="1" stroke-linejoin="round"/>
<path stroke="#5e595a" stroke-width="1" d="M1430.01+591.134C1437.58+591.728+1450.18+591.435+1454.49+597.445L1454.22+598.443C1447.98+594.593+1437.76+594.508+1430.01+593.824" fill="#5e595a" stroke-linecap="butt" opacity="1" stroke-linejoin="round"/>
<path stroke="#5e595a" stroke-width="1" d="M1421.3+596.257C1430.15+597.933+1439.28+598.94+1447.66+602.26C1450.8+603.504+1449.61+604.721+1446.41+604.481L1446.41+604.323C1451.19+603.919+1447.39+604.086+1443.67+603.248C1436.1+601.543+1428.45+600.174+1420.84+598.637" fill="#5e595a" stroke-linecap="butt" opacity="1" stroke-linejoin="round"/>
<path stroke="#5e595a" stroke-width="1" d="M1429.16+607.047C1438.1+609.377+1450.83+607.356+1455.64+615.245L1455.06+616.41C1447.41+613.129+1433.66+610.074+1428.88+608.711" fill="#5e595a" stroke-linecap="butt" opacity="1" stroke-linejoin="round"/>
<path stroke="#5e595a" stroke-width="1" d="M1425.74+613.409C1436.38+616.838+1447.09+620.061+1457.67+623.697C1458.33+623.925+1469.28+630.249+1466.39+631.228L1466.17+631.228C1469.36+632.759+1460.35+627.014+1457.01+625.843C1446.5+622.161+1435.9+618.791+1425.34+615.265" fill="#5e595a" stroke-linecap="butt" opacity="1" stroke-linejoin="round"/>
<path stroke="#5e595a" stroke-width="1" d="M1426.8+628.175C1436.76+630.757+1446.74+633.245+1456.67+635.92C1457.35+636.104+1469.63+640.682+1464.32+641.747L1464.26+641.573C1467.13+642.227+1458.84+639.254+1456.01+638.458C1446.12+635.673+1436.18+633.023+1426.27+630.306" fill="#5e595a" stroke-linecap="butt" opacity="1" stroke-linejoin="round"/>
<path stroke="#5e595a" stroke-width="1" d="M1425.91+639.874C1437.64+642.93+1449.51+645.465+1461.14+648.887C1462.63+649.328+1475.38+652.995+1468.79+654.185L1468.74+653.974C1474.1+655.114+1455.04+650.142+1454+649.851C1444.36+647.159+1434.78+644.256+1425.18+641.458" fill="#5e595a" stroke-linecap="butt" opacity="1" stroke-linejoin="round"/>
<path stroke="#5e595a" stroke-width="1" d="M1440.17+645.915C1449.03+649.632+1470.85+655.944+1470.1+661.269L1469.41+661.793C1460.71+655.423+1449.04+651.534+1439.73+647.34" fill="#5e595a" stroke-linecap="butt" opacity="1" stroke-linejoin="round"/>
<path stroke="#5e595a" stroke-width="1" d="M1431.87+651.436C1444.4+656.778+1456.57+663.024+1468.29+669.973C1479.66+676.724+1474.31+679.027+1464.76+675.52L1464.82+675.361C1472.59+677.694+1478.33+678.601+1467.25+671.966C1455.55+664.958+1443.47+658.553+1431.13+652.748" fill="#5e595a" stroke-linecap="butt" opacity="1" stroke-linejoin="round"/>
<path stroke="#5e595a" stroke-width="1" d="M1435.96+664.132C1444.93+668.533+1453.93+672.868+1462.86+677.336C1463.48+677.646+1475.81+684.58+1474.34+685.145L1474.11+685.607C1474.67+686.03+1467.81+682.809+1467.22+682.489C1465.39+681.502+1463.59+680.458+1461.74+679.507C1452.85+674.923+1443.91+670.425+1434.99+665.885" fill="#5e595a" stroke-linecap="butt" opacity="1" stroke-linejoin="round"/>
<path stroke="#5e595a" stroke-width="1" d="M1437.79+672.393C1447.46+677.74+1457.26+682.871+1466.81+688.432C1469.39+689.934+1476.9+695.286+1475.95+699.458C1475.16+702.927+1467.62+698.198+1466.76+697.829L1466.79+697.762C1469.34+698.581+1473.73+702.68+1474.49+700.107C1475.4+697.039+1467.18+691.147+1465.75+690.268C1456.32+684.501+1446.67+679.103+1437.14+673.52" fill="#5e595a" stroke-linecap="butt" opacity="1" stroke-linejoin="round"/>
<path stroke="#5e595a" stroke-width="1" d="M1442.01+685.183C1452.06+692.42+1464.23+699.379+1472.64+708.617C1472.8+708.785+1480.86+717.732+1476.29+716.864C1470.06+715.679+1464.6+709.33+1458.83+706.737L1458.83+706.737C1463.61+708.693+1468.65+711.34+1472.93+714.255C1474.2+715.125+1476.29+718.737+1476.49+717.208C1476.98+713.596+1459.43+701.073+1454.6+697.287C1450.03+693.702+1445.45+690.137+1440.87+686.562" fill="#5e595a" stroke-linecap="butt" opacity="1" stroke-linejoin="round"/>
<path stroke="#5e595a" stroke-width="1" d="M1436.67+698.718C1446.36+705.31+1456.39+711.394+1465.95+718.181C1467.99+719.635+1477.79+729.669+1470.2+724.205L1470.31+724.044C1477.81+729.971+1460.96+717.998+1459.65+717.093C1451.46+711.436+1443.4+705.6+1435.28+699.853" fill="#5e595a" stroke-linecap="butt" opacity="1" stroke-linejoin="round"/>
<path stroke="#5e595a" stroke-width="1" d="M1450.75+710.154C1459.63+716.838+1468.55+723.449+1477.37+730.206C1478.8+731.299+1490.82+740.521+1484.59+739.591L1485.72+738.465C1485.32+744.48+1478.73+734.122+1476.05+731.952C1467.43+724.986+1458.69+718.163+1450.01+711.269" fill="#5e595a" stroke-linecap="butt" opacity="1" stroke-linejoin="round"/>
<path stroke="#5e595a" stroke-width="1" d="M1474.6+743.025C1477.9+745.412+1485.18+752.768+1484.7+751.393L1484.76+751.359C1487.28+755.1+1474.84+745.808+1473.45+744.685" fill="#5e595a" stroke-linecap="butt" opacity="1" stroke-linejoin="round"/>
<path stroke="#5e595a" stroke-width="1" d="M1474.24+749.163C1476.42+751.346+1478.66+753.474+1480.78+755.712C1480.8+755.733+1483.23+759.836+1483.18+759.83C1482+759.677+1481.58+759.146+1480.63+758.441L1480.63+758.441C1481.63+759.035+1482.26+759.113+1482.64+760.242C1483.09+761.641+1480.61+758.111+1479.57+757.067C1477.5+754.99+1475.42+752.925+1473.35+750.853" fill="#5e595a" stroke-linecap="butt" opacity="1" stroke-linejoin="round"/>
<path stroke="#5e595a" stroke-width="1" d="M1466.92+754.934C1471.01+756.596+1474.72+758.445+1478.18+760.948L1478.07+761.404C1474.22+762.719+1468.83+757.89+1466.08+756.022" fill="#5e595a" stroke-linecap="butt" opacity="1" stroke-linejoin="round"/>
<path stroke="#5e595a" stroke-width="1" d="M1470.04+744.074C1472.12+744.899+1478.49+746.984+1476.29+746.582L1477.23+747.053C1475.51+749.616+1471.23+746.724+1469.35+745.914" fill="#5e595a" stroke-linecap="butt" opacity="1" stroke-linejoin="round"/>
<path stroke="#5e595a" stroke-width="1" d="M1458.43+767.004C1458.97+767.496+1464.92+772.858+1461.03+773.256C1459.48+773.414+1450.36+762.486+1449.18+764.498C1448.96+764.867+1450.45+765.614+1450.56+765.726C1453.81+769.1+1456.5+772.838+1459.52+776.39C1459.94+776.889+1461.12+777.396+1460.74+777.929C1459.07+780.265+1454.93+776.499+1452.6+775.655C1451.38+775.211+1447.52+774.498+1448.82+774.659C1453.66+775.262+1457.72+781.473+1461.21+784.788C1461.68+785.239+1462.94+785.708+1462.54+786.227C1458.39+791.639+1456.11+781.147+1451.91+783.561C1450.88+784.158+1453.92+784.918+1454.69+785.831C1456.46+787.926+1461.23+792.197+1460.74+795.362C1460.14+799.213+1453.61+794.201+1452.47+793.476C1451.78+793.036+1450.18+791.492+1450.31+792.3C1450.4+792.833+1451.31+791.794+1451.85+791.782C1452.99+791.756+1453.41+793.453+1454.24+794.245C1455.62+795.575+1462.86+802.12+1460.79+804.626C1457.39+808.742+1454.9+798.869+1452.14+800.532C1451.3+801.041+1453.3+802.126+1453.85+802.939C1454.82+804.362+1462.83+809.972+1461.27+812.228C1459.26+815.111+1457.31+812.426+1455.27+811.189C1454.25+810.572+1450.77+809.625+1451.91+809.947C1453.83+810.484+1461.92+817.84+1459.74+820.205C1457.95+822.148+1456.93+821.183+1455.25+819.825C1454.48+819.202+1451.91+817.755+1452.86+818.055C1454.37+818.536+1463.14+825.958+1459.34+828.42C1457.53+829.592+1452.51+827.242+1455.55+826.479C1456.5+826.239+1462.52+835.958+1462.1+837.526C1461.31+840.488+1457.41+837.465+1456.28+836.669C1456.2+836.613+1453.62+835.53+1453.88+836.051C1455.52+839.263+1460.38+841.819+1460.43+845.941C1460.46+847.584+1459.1+848.233+1457.61+848.076C1457.08+848.02+1455.49+847.686+1456.02+847.816C1457.44+848.17+1466.48+855.051+1464.31+857.81C1462.33+860.324+1459.06+858.253+1456.85+857.237C1455.64+856.679+1452.68+854.266+1453.26+855.466C1454.07+857.127+1460.14+858.156+1459.67+862.861C1459.21+867.383+1453.39+863.438+1452.77+865.089C1452+867.117+1460.8+874.274+1457.95+876.755C1456.05+878.414+1453.86+876.333+1452.02+875.441C1451.46+875.169+1449.73+874.723+1450.34+874.614C1458.9+873.101+1452.99+886.176+1453.08+886.527C1453.43+887.909+1460.12+893.728+1458.38+895.187C1456.46+896.79+1455.37+895.974+1453.29+895.295C1452.76+895.122+1451.35+894.683+1451.62+895.169C1452.5+896.716+1458.43+906.114+1456.3+907.293C1454.3+908.4+1451.86+906.78+1450.09+907.669C1448.22+908.606+1459.18+921.169+1452.24+921.358L1451.59+920.068C1451.94+920.115+1448.52+908.818+1449.29+906.692C1450.13+904.385+1454.25+906.844+1454.75+906.732C1454.76+906.728+1450.28+896.721+1450.8+894.86C1451.45+892.554+1456.03+893.427+1456.39+895.187C1456.54+895.937+1456.13+893.641+1455.73+892.989C1454.51+890.989+1452.76+889.317+1451.88+887.127C1451.6+886.453+1451.66+885.876+1451.69+885.16C1451.78+882.618+1453.98+884.031+1453.77+881.16C1453.58+878.625+1450.34+876.651+1450.17+874.447C1449.98+872.053+1455.78+874.652+1455.98+875.443C1456.06+875.769+1455.95+876.724+1456.13+876.441C1457.69+874.02+1452.19+868.535+1451.6+866.243C1450.48+861.902+1456.92+864.238+1457.38+863.243C1458.86+860+1452.86+857.33+1453.17+854.398C1453.24+853.722+1454.93+854.669+1454.94+854.671C1457.01+855.533+1459.29+856.366+1461.49+856.605C1462.1+856.671+1462.03+858.245+1462.15+857.74C1462.87+854.815+1456.98+850.756+1455.68+848.635C1453.93+845.773+1458.09+846.515+1458.03+846.123C1457.55+842.629+1452.07+839.167+1453.15+835.541C1454.24+831.917+1459.45+837.28+1459.5+837.526C1459.83+838.931+1458.54+834.789+1457.84+833.527C1456.78+831.619+1453.48+828.023+1454.65+825.825C1455.41+824.398+1457.71+828.682+1457.64+826.776C1457.55+824.298+1451.52+819.489+1452.4+817.598C1453.9+814.376+1457.84+821.304+1457.44+819.438C1456.7+815.936+1451.14+812.932+1451.23+809.381C1451.3+806.87+1457.82+810.364+1458.22+810.626C1458.69+810.93+1458.58+812.756+1458.71+812.217C1459.65+808.415+1448.65+804.686+1451.72+799.552C1453.48+796.595+1458.74+804.405+1458.74+804.406C1458.84+804.471+1458.84+804.172+1458.82+804.056C1458.34+802.096+1457.19+800.563+1455.94+799.032C1453.81+796.411+1450.46+794.689+1450.77+791.123C1450.85+790.243+1452.4+791.82+1453.18+792.235C1453.83+792.58+1457.97+793.951+1458.23+794.435C1458.39+794.721+1458+795.68+1458.18+795.408C1460+792.645+1450.43+785.976+1450.62+783.093C1450.78+780.683+1461.63+783.579+1460.43+787.633C1460.17+788.536+1459.24+786.171+1458.62+785.462C1457.78+784.491+1456.83+783.608+1455.94+782.673C1454.42+781.064+1448.25+776.428+1448.42+774.014C1448.49+772.976+1460.79+774.858+1459.04+779.065C1458.6+780.107+1457.72+777.234+1457.11+776.281C1454.34+771.91+1458.51+777.701+1454.91+773.088C1453.35+771.075+1448.01+766.878+1449+764.011C1449.11+763.688+1450.27+763.787+1450.5+763.852C1455.37+765.295+1466.07+778.316+1457.25+768.566" fill="#5e595a" stroke-linecap="butt" opacity="1" stroke-linejoin="round"/>
<path stroke="#5e595a" stroke-width="1" d="M1025.15+815.133C1027.76+814.717+1036+813.931+1033.47+818.931C1033.2+819.462+1025.72+820.303+1024.88+820.757C1023.95+821.259+1034.73+820.998+1031.78+824.578C1029.78+827.006+1024.09+824.274+1022.42+826.942C1022.26+827.205+1022.51+827.327+1022.79+827.119C1024+826.21+1029.45+828.69+1029.81+830.674C1030.65+835.283+1025.68+832.602+1024.35+834.245C1024.15+834.49+1024.94+834+1025.18+833.798C1026.5+832.687+1030.76+836.863+1031.47+838C1034.13+842.266+1024.9+839.814+1028.6+840.988C1033.34+842.494+1034.49+847.138+1030.4+849.156C1028.65+850.018+1034.2+850.953+1035.04+852.708C1035.67+854.007+1030.67+856.382+1031.96+855.742C1033.89+854.787+1037.95+860.041+1037.24+861.917C1036.78+863.11+1034.56+863.889+1034.63+864.956C1034.75+866.833+1040.9+868.309+1039.9+871.227C1039.32+872.931+1038.47+872.584+1037.2+873.144C1036.91+873.271+1038.85+874.795+1039.06+874.951C1041.99+877.126+1038.83+877.933+1038.06+879.525C1037.58+880.509+1040.14+880.407+1040.85+881.236C1042.24+882.859+1042.62+885.009+1043.19+886.983C1043.67+888.684+1041.44+889.744+1042.37+891.94C1043.75+895.233+1046.86+897.712+1048.24+901.068C1049.93+905.179+1048.77+909.347+1051.98+913.662C1053.67+915.939+1056.96+918.798+1056.96+921.835C1056.96+923.993+1054.22+923.998+1054.05+925.494C1053.75+928.221+1060.75+930.597+1061.42+933.756C1061.99+936.416+1058.74+938.009+1059.18+940.787C1059.63+943.535+1062.75+945.352+1064.12+947.607C1066.97+952.304+1069.31+961.686+1069.31+961.686C1066.45+953.266+1061.37+949.828+1058.55+941.851C1057.49+938.858+1060.93+936.788+1060.29+934.409C1059.34+930.838+1054.46+930.101+1053.53+926.849C1052.65+923.775+1056.7+923.429+1055.36+920.79C1051.86+913.888+1047.61+910.269+1046.97+902.474C1046.66+898.69+1042.28+895.727+1040.99+892.266C1040.05+889.726+1042.02+888.515+1041.62+886.514C1041.37+885.294+1033.47+869.833+1038.16+871.638C1038.28+871.682+1037.02+869.041+1036.99+869.002C1036.02+867.585+1033.2+866.592+1033.55+864.556C1033.74+863.469+1036.02+862.376+1036.05+861.918C1036.31+858.157+1026.63+847.927+1031.42+847.744C1031.87+847.727+1026.38+841.622+1026.31+841.378C1025.83+839.826+1027.84+838.08+1029.33+838.694C1031.22+839.473+1024.14+835.678+1023.41+834.216C1022.72+832.827+1028.33+833.85+1027.71+832.427C1026.74+830.2+1019.98+828.777+1020.97+825.839C1021.65+823.799+1027.46+822.71+1029.2+822.752C1029.44+822.758+1030.04+824.966+1030.02+824.737C1029.74+822.279+1022.98+824.04+1023.02+820.733C1023.07+817.201+1028.6+816.98+1031.13+816.706C1032.05+816.607+1033.65+819.198+1032.76+818.942C1028.05+817.578+1028.81+817.707+1025.74+817.59" fill="#5e595a" stroke-linecap="butt" opacity="1" stroke-linejoin="round"/>
<path d="M1411.15+643.268C1410.79+643.228+1410.9+643.279+1411.37+643" opacity="1" fill="#988174"/>
</g>
<use stroke-linecap="round" stroke="#000000" xlink:href="#Mask" stroke-width="1.75" fill="none" stroke-linejoin="round"/>
</g>
</g>
</svg>
